<?xml version="1.0" encoding="utf-8"?>
<!-- Generator: Adobe Illustrator 19.2.1, SVG Export Plug-In . SVG Version: 6.00 Build 0)  -->
<svg version="1.1" id="Layer_1" xmlns="http://www.w3.org/2000/svg" xmlns:xlink="http://www.w3.org/1999/xlink" x="0px" y="0px"
	 viewBox="0 0 71.7 72" enable-background="new 0 0 71.7 72" xml:space="preserve">
<circle fill="#FFFFFF" cx="34.7" cy="31.2" r="1.1"/>
<circle fill="#FFFFFF" cx="36.7" cy="25" r="0.7"/>
<ellipse fill="#FFFFFF" cx="37.4" cy="32.2" rx="0.7" ry="0.7"/>
<circle fill="#FFFFFF" cx="37.5" cy="28.3" r="1.6"/>
<circle fill="#FFFFFF" cx="33.8" cy="27.5" r="1.2"/>
<path fill="#FFFFFF" d="M35.9,4.5C18.5,4.5,4.4,18.7,4.4,36c0,17.4,14.1,31.5,31.5,31.5c17.4,0,31.5-14.1,31.5-31.5
	C67.4,18.7,53.2,4.5,35.9,4.5z M51.3,48.8c-0.6,0.6-1.3,1-2.1,1.4c-2.9,1.3-6.1,1.9-9.3,2.1c-3.7,0.2-7.4,0.1-11.1-0.2
	c-2.1-0.2-4.5-0.5-6.4-1.3c-1.2-0.5-2.4-1.5-2.7-2.7c-0.4-1.4,0.3-2.8,0.9-4c0.7-1.3,11-14.9,11-14.9l0-6.4h0l0-0.8l-0.1,0
	c-0.2,0-0.1,0-0.3-0.1c-0.3-0.1-0.5-0.4-0.5-0.7c0-0.1,0-0.4,0-0.5c0-1,4-1.1,5.2-1.1c1.5,0,5,0.1,5,1.1c0,0.1,0,0.4,0,0.6
	c0,0.4-0.4,0.7-0.7,0.7L40,22c-3.5,0.7-5.8,0.3-5.8,0.3s-0.3,0-0.4,0.2c-0.1,0.2,0.3,0.3,0.3,0.3c3.2,0.3,5.2-0.1,5.8-0.2l0,6.5
	c0,0,10.1,13.2,10.9,14.5c0.4,0.6,0.8,1.3,1,1.9C52.4,46.6,52.2,47.9,51.3,48.8z"/>
<g>
	<path fill="#FFFFFF" d="M50.5,44.6c-0.4-1-5.8-7.9-5.8-7.9h0c-0.1-0.4-0.8-0.6-2.8-0.8c-1.6-0.2-3.8-0.3-6.2-0.3
		c-2.3,0-4.5,0.1-6.2,0.3c-2,0.2-2.7,0.5-2.8,0.8c0,0-5,7.4-5,7.5c-1,1.2-1.2,3.2-0.2,4.4c1.1,1.3,2.5,1.8,4.1,2
		c6,1.1,15.3,0.8,18,0.3C48,50.2,52.1,48.3,50.5,44.6z M36.2,37.9c-3.9,0-6.7-0.4-7.8-0.7c1.1-0.3,3.9-0.5,7.8-0.5
		c3.9,0,6.7,0.3,7.8,0.5C42.9,37.5,40.1,37.9,36.2,37.9z"/>
</g>
<path fill="#FFFFFF" d="M39.9,20.6c-0.6-0.2-2-0.4-4-0.4c-1.8,0-3.2,0.2-4,0.3C36.6,21.2,39.2,20.7,39.9,20.6z"/>
</svg>
