<?xml version="1.0" encoding="utf-8"?>
<!-- Generator: Adobe Illustrator 19.2.1, SVG Export Plug-In . SVG Version: 6.00 Build 0)  -->
<svg version="1.1" id="Layer_1" xmlns="http://www.w3.org/2000/svg" xmlns:xlink="http://www.w3.org/1999/xlink" x="0px" y="0px"
	 viewBox="0 0 71.7 72" enable-background="new 0 0 71.7 72" xml:space="preserve">
<path fill="#FFFFFF" d="M35.9,4.5C18.5,4.5,4.3,18.6,4.3,36c0,17.4,14.1,31.5,31.5,31.5c17.4,0,31.5-14.1,31.5-31.5
	C67.4,18.6,53.3,4.5,35.9,4.5z M34.3,16.2C34.1,16,34,15.8,34,15.5c0-0.8,0.8-1.4,1.8-1.4c1,0,1.8,0.6,1.8,1.4
	c0,0.2-0.1,0.5-0.2,0.7c5.2,0.7,9,4.7,9,4.7h-2.6l0.7,9h-2l-0.6-8h-4.9v8h-2v-8H30l-0.6,8h-2l0.7-9h-2.6
	C25.5,20.9,29.2,17,34.3,16.2z M23.6,33.1h24.6v3.3H23.6V33.1z M36,42.7c-1.6,0-3,1.3-3,3V46h-8.4l1.3-7.4h19.8l1.3,7.4H39v-0.3
	C39,44.1,37.6,42.7,36,42.7z M24.2,48.4H33V51c0,0.1,0.1,0.2,0.1,0.3h5.8c0-0.1,0.1-0.2,0.1-0.3v-2.7h8.5l1.3,7.5H22.9L24.2,48.4z
	 M35.9,62.2c-4.9,0-9.5-1.4-13.4-3.7l0.1-0.3h26.7l0.1,0.3C45.3,60.8,40.8,62.2,35.9,62.2z"/>
</svg>
