<?xml version="1.0" encoding="utf-8"?>
<!-- Generator: Adobe Illustrator 19.2.1, SVG Export Plug-In . SVG Version: 6.00 Build 0)  -->
<svg version="1.1" id="Layer_1" xmlns="http://www.w3.org/2000/svg" xmlns:xlink="http://www.w3.org/1999/xlink" x="0px" y="0px"
	 viewBox="0 0 71.7 72" enable-background="new 0 0 71.7 72" xml:space="preserve">
<g>
	<path fill="#FFFFFF" d="M35.9,67.5C18.5,67.5,4.3,53.4,4.3,36c0-17.4,14.1-31.5,31.5-31.5S67.4,18.6,67.4,36
		C67.4,53.4,53.2,67.5,35.9,67.5z M35.9,7.5C20.2,7.5,7.4,20.3,7.4,36s12.8,28.5,28.5,28.5S64.3,51.7,64.3,36S51.6,7.5,35.9,7.5z"/>
	<g>
		<path fill="#FFFFFF" d="M40.3,29.3C40.3,29.3,40.3,29.3,40.3,29.3c0.5-0.5,1.1-1,1.8-1.4l0.5-0.3c0.4-0.2,0.8-0.5,1.3-0.7l0.5-0.2
			c0.4-0.2,0.8-0.4,1.3-0.5c0.4-0.1,0.7-0.2,1.1-0.4l0.5-0.1c0.9-0.3,2-0.6,3.1-0.8c-2.2-2.2-9.4-2.6-12.5,1.3
			c0.4-1.2,0.9-2.2,1.5-3.1l0.3-0.4c0.2-0.3,0.4-0.7,0.7-1.1l0.2-0.4c1-1.6,2.2-3.4,2.2-3.4s-1.4-1-5.8,2.2
			c-1.8,1.3-2.7,3.5-2.8,5.7c-3.7-3.3-10.8-1.8-12.6,0.7c1.2,0.1,2.2,0.2,3.2,0.3l0.5,0.1c0.4,0.1,0.8,0.1,1.1,0.2
			c0.1,0,0.2,0,0.3,0.1l0.5,0.1c0.2,0,0.4,0.1,0.6,0.1l0.5,0.1c0.5,0.1,0.9,0.3,1.4,0.4l0.5,0.2c0.6,0.2,1.1,0.5,1.6,0.8
			c-5,0.3-8.8,6.3-8.3,9.3c0.9-0.8,1.7-1.4,2.5-2l0.4-0.3c0.3-0.2,0.6-0.5,0.9-0.7c0.1-0.1,0.2-0.1,0.3-0.2l0.4-0.3
			c0.2-0.1,0.3-0.2,0.5-0.3l0.5-0.3c1.4-0.8,2.6-1.2,4-1.5c0.1,0,0.3-0.1,0.5-0.2c0,0.4,0.2,0.7,0.2,0.7s-0.1,0.5,0.2,1.2
			c0.1,0.3,0.5,0.4,0.9,0.5c0,4.3,0,10.3,0,12.3c0,3.2-1.1,4.1-1.1,4.1c-0.4,0.3-1.1,1.2-1.3,1.4c-0.6,0.6-0.3,1.5,0.1,1.5
			c1.3,0.2,5.3,0,5.3,0c2.3,0,2.6,0,3.1-0.2c0.3-0.1,0.2-1.2-0.1-1.5c-0.3-0.4-2.1-1.3-2.3-1.9c-0.4-1.9-0.4-3.4-0.4-3.4
			S37.7,40,37.7,35c0.4,0,0.7-0.2,0.8-0.5c0.3-0.8,0.1-1.2,0.1-1.2s0.1-0.1,0.1-0.3c0.4,0.1,0.7,0.1,1,0.2c0.7,0.1,1.5,0.2,2.2,0.5
			l0.5,0.2c0.4,0.2,0.9,0.3,1.3,0.6l0.5,0.2c0.4,0.2,0.8,0.4,1.2,0.7c0.3,0.2,0.6,0.4,1,0.6l0.4,0.3c0.8,0.5,1.7,1.2,2.6,1.9
			C50,34.9,45.5,28.9,40.3,29.3z"/>
	</g>
</g>
</svg>
