<?xml version="1.0" encoding="utf-8"?>
<!-- Generator: Adobe Illustrator 19.2.1, SVG Export Plug-In . SVG Version: 6.00 Build 0)  -->
<svg version="1.1" id="Layer_1" xmlns="http://www.w3.org/2000/svg" xmlns:xlink="http://www.w3.org/1999/xlink" x="0px" y="0px"
	 viewBox="0 0 71.7 72" enable-background="new 0 0 71.7 72" xml:space="preserve">
<g>
	<path fill="#FFFFFF" d="M35.9,7.6C20.2,7.6,7.4,20.4,7.4,36.1c0,15.7,12.8,28.4,28.4,28.4c15.7,0,28.4-12.8,28.4-28.4
		C64.3,20.4,51.5,7.6,35.9,7.6L35.9,7.6z M35.9,67.5c-17.3,0-31.5-14.1-31.5-31.5c0-17.3,14.1-31.5,31.5-31.5
		c17.3,0,31.5,14.1,31.5,31.5C67.3,53.4,53.2,67.5,35.9,67.5L35.9,67.5z"/>
	<path fill="#FFFFFF" d="M40.3,29.4C40.3,29.4,40.3,29.4,40.3,29.4c0.5-0.5,1.1-1,1.8-1.4l0.5-0.3c0.4-0.2,0.8-0.5,1.3-0.7l0.5-0.2
		c0.4-0.2,0.8-0.4,1.3-0.5c0.4-0.1,0.7-0.2,1.1-0.4l0.5-0.1c0.9-0.3,2-0.6,3.1-0.8c-2.2-2.2-9.4-2.6-12.5,1.3
		c0.4-1.2,0.9-2.2,1.5-3.1l0.3-0.4c0.2-0.3,0.4-0.7,0.7-1.1l0.2-0.4c1-1.6,2.2-3.4,2.2-3.4s-1.4-1-5.8,2.2c-1.8,1.3-2.6,3.5-2.8,5.7
		c-3.7-3.3-10.8-1.8-12.6,0.7c1.2,0.1,2.2,0.2,3.2,0.3l0.5,0.1c0.4,0.1,0.8,0.1,1.1,0.2c0.1,0,0.2,0,0.3,0.1l0.5,0.1
		c0.2,0,0.4,0.1,0.6,0.1l0.5,0.1c0.5,0.1,0.9,0.3,1.4,0.4l0.5,0.2c0.6,0.2,1.1,0.5,1.6,0.8c-5,0.3-8.8,6.3-8.2,9.3
		c0.9-0.8,1.7-1.4,2.5-2l0.4-0.3c0.3-0.2,0.6-0.5,0.9-0.7c0.1-0.1,0.2-0.1,0.3-0.2l0.4-0.3c0.2-0.1,0.3-0.2,0.5-0.3l0.5-0.3
		c1.4-0.8,2.6-1.2,4-1.5c0.1,0,0.3-0.1,0.5-0.2c0,0.4,0.2,0.7,0.2,0.7s-0.1,0.5,0.2,1.2c0.1,0.3,0.5,0.4,0.9,0.5
		c0,4.3,0,10.3,0,12.3c0,3.2-1.1,4.1-1.1,4.1c-0.4,0.3-1.1,1.2-1.3,1.4c-0.6,0.6-0.3,1.4,0.1,1.5c1.3,0.2,5.3,0,5.3,0
		c2.3,0,2.6,0,3.1-0.2c0.3-0.1,0.2-1.2-0.1-1.5c-0.3-0.4-2.1-1.3-2.3-1.9c-0.4-1.9-0.4-3.4-0.4-3.4s-0.1-7.2-0.1-12.2
		c0.4,0,0.7-0.2,0.8-0.5c0.3-0.8,0.1-1.2,0.1-1.2s0.1-0.1,0.1-0.3c0.4,0.1,0.7,0.1,1,0.2c0.7,0.1,1.5,0.2,2.2,0.5l0.5,0.2
		c0.4,0.2,0.9,0.3,1.3,0.6l0.5,0.2c0.4,0.2,0.8,0.4,1.2,0.7c0.3,0.2,0.6,0.4,1,0.6l0.4,0.3c0.8,0.5,1.7,1.2,2.6,1.9
		C49.9,34.9,45.4,28.9,40.3,29.4L40.3,29.4z"/>
</g>
</svg>
