<?xml version="1.0" encoding="utf-8"?>
<!-- Generator: Adobe Illustrator 19.2.1, SVG Export Plug-In . SVG Version: 6.00 Build 0)  -->
<svg version="1.1" id="Layer_1" xmlns="http://www.w3.org/2000/svg" xmlns:xlink="http://www.w3.org/1999/xlink" x="0px" y="0px"
	 viewBox="0 0 71.7 72" enable-background="new 0 0 71.7 72" xml:space="preserve">
<path fill="#FFFFFF" d="M35.9,4.3C18.5,4.3,4.3,18.4,4.3,35.9c0,17.4,14.2,31.6,31.6,31.6s31.6-14.2,31.6-31.6
	C67.4,18.4,53.3,4.3,35.9,4.3z M35.8,13.6c0,0-0.3,4.3,1.8,10.3c0,0.1,0,0.2,0.1,0.3c-1.3-0.2-2.6-0.2-3.9,0.1l-0.9,0.2
	c-0.2,0.1-0.7,0.2-1,0.2c-0.9,0.3-1.4,0.6-2.1,1C30.4,19.9,35.8,13.6,35.8,13.6z M14.5,29.1c0,0,4,1.6,10.3,1.5c0.1,0,0.2,0,0.3,0
	c-0.6,1.1-0.9,2.4-1.1,3.7l-0.1,0.9c0,0.2-0.1,0.7-0.1,1c0,0.9,0.1,1.5,0.3,2.3C18.9,36.3,14.5,29.1,14.5,29.1z M22.8,54.2
	c0,0,2.8-3.3,4.6-9.3c0-0.1,0.1-0.2,0.1-0.3c0.9,0.9,2,1.6,3.2,2.2l0.8,0.4c0.2,0.1,0.7,0.3,0.9,0.4c0.9,0.3,1.5,0.4,2.3,0.4
	C30.9,52.2,22.8,54.2,22.8,54.2z M26.4,36c0-5.2,4.2-9.5,9.5-9.5c5.2,0,9.4,4.2,9.4,9.5c0,5.2-4.2,9.4-9.4,9.4
	C30.7,45.4,26.4,41.2,26.4,36z M49.2,54c0,0-2.3-3.7-7.5-7.3c-0.1-0.1-0.1-0.1-0.2-0.2c1.1-0.6,2.2-1.4,3.1-2.3l0.6-0.7
	c0.2-0.2,0.5-0.6,0.6-0.8c0.5-0.7,0.8-1.3,1.1-2.1C49.8,45.7,49.2,54,49.2,54z M48,33.8c-0.1,0.1-0.2,0.1-0.3,0.2
	c-0.2-1.3-0.6-2.5-1.3-3.7L46,29.5c-0.1-0.2-0.4-0.6-0.5-0.8c-0.5-0.7-1-1.2-1.6-1.7c5.6-1.2,13.3,2,13.3,2S53,30,48,33.8z"/>
</svg>
