<?xml version="1.0" encoding="utf-8"?>
<!-- Generator: Adobe Illustrator 19.2.1, SVG Export Plug-In . SVG Version: 6.00 Build 0)  -->
<svg version="1.1" id="Layer_1" xmlns="http://www.w3.org/2000/svg" xmlns:xlink="http://www.w3.org/1999/xlink" x="0px" y="0px"
	 viewBox="0 0 71.7 72" enable-background="new 0 0 71.7 72" xml:space="preserve">
<g>
	<path fill-rule="evenodd" clip-rule="evenodd" fill="#FFFFFF" d="M35.9,4.5C18.5,4.5,4.3,18.6,4.3,36c0,17.4,14.1,31.5,31.5,31.5
		c17.4,0,31.5-14.1,31.5-31.5C67.4,18.6,53.2,4.5,35.9,4.5z M35.9,65.5C19.6,65.5,6.3,52.3,6.3,36c0-16.3,13.2-29.5,29.5-29.5
		c16.3,0,29.5,13.2,29.5,29.5C65.4,52.3,52.1,65.5,35.9,65.5z"/>
	<circle fill-rule="evenodd" clip-rule="evenodd" fill="#FFFFFF" cx="35.9" cy="36" r="5.5"/>
	<path fill-rule="evenodd" clip-rule="evenodd" fill="#FFFFFF" d="M35.9,9.6C21.3,9.6,9.5,21.4,9.5,36c0,14.6,11.8,26.4,26.4,26.4
		c14.6,0,26.4-11.8,26.4-26.4C62.2,21.4,50.4,9.6,35.9,9.6z M53.4,29.7c0,0.6-0.1,2.5-0.9,4.6l-0.7,1.9c-0.8,1.7-2.4,2.1-3.3,2.3
		c-0.4,0.1-0.9,0.2-1.4,0.2l1.3,1.2c0,0,2.4,1.6,1.9,4.3L49.8,46c-0.3,1.2-1,2.6-2.2,4.2c0.3,1,0.1,1.1,0.1,1.1s-0.5,0.2-1.3-0.4
		c-0.6,0.2-1.9,0.6-4.1,0.4L40,51.2c-1.5-0.2-2.3-1.2-2.7-2c-0.4,0.9-1.2,2.5-3.1,3l-2,0.3c-1.3,0.2-2.7,0.2-4.7-0.2
		c-0.9,0.7-1,0.6-1,0.6s-0.4-0.4-0.1-1.4c-0.4-0.5-1.4-1.7-2.1-3.8l-0.7-2.2c-0.4-1.8,0.6-3.2,1.3-3.9c0.2-0.4,0.6-0.7,1-1l-1.1,0
		c0,0-2.9,0.4-4.4-1.9l-0.8-1.6c-0.6-1.2-1.2-2.7-1.4-4.7c-0.9-0.6-0.8-0.7-0.8-0.7s0.2-0.5,1.2-0.6c0.3-0.5,1.4-2,3.1-3.4l1.6-1.2
		c1.6-1,3.1-0.5,3.9-0.1c0.6,0.2,1.2,0.4,1.8,0.9c0.1,0.1,0.3,0.2,0.5,0.3l-0.4-1.6c0,0-1.1-2.7,0.8-4.6l1.4-1.1
		c1-0.8,2.3-1.8,4.3-2.4c0.4-1,0.5-0.8,0.5-0.8s0.5,0,0.8,0.9c0.6,0.2,2.2,0.9,4,2.2l1.6,1.2c1.3,1.2,1.2,2.7,1,3.6
		c0.8-0.5,2.5-1.2,4.2-0.4l1.7,1c1.1,0.6,2.4,1.4,3.7,3c1.1,0,1.1,0.3,1.1,0.3S54.2,29.1,53.4,29.7z"/>
</g>
</svg>
