<?xml version="1.0" encoding="utf-8"?>
<!-- Generator: Adobe Illustrator 19.2.1, SVG Export Plug-In . SVG Version: 6.00 Build 0)  -->
<svg version="1.1" id="Layer_1" xmlns="http://www.w3.org/2000/svg" xmlns:xlink="http://www.w3.org/1999/xlink" x="0px" y="0px"
	 viewBox="0 0 71.7 72" enable-background="new 0 0 71.7 72" xml:space="preserve">
<g>
	<path fill="#FFFFFF" d="M53.3,29.5c-1.3-1.6-2.6-2.4-3.7-3l-1.7-1c-1.8-0.8-3.4-0.1-4.3,0.4c0.2-0.9,0.2-2.4-1.1-3.6L41,21
		c-1.7-1.3-3.4-2-4-2.2c-0.3-0.9-0.9-0.9-0.9-0.9s-0.1-0.1-0.5,0.8c-2,0.7-3.3,1.6-4.3,2.5l-1.4,1.1c-2,1.9-0.9,4.6-0.9,4.6l0.4,1.6
		c-0.2-0.1-0.4-0.2-0.5-0.3c-0.6-0.4-1.2-0.7-1.8-0.9c-0.8-0.4-2.4-0.9-4,0.1l-1.6,1.2c-1.7,1.4-2.8,2.9-3.1,3.4
		c-1,0.1-1.2,0.6-1.2,0.6s-0.1,0.1,0.8,0.7c0.2,2.1,0.8,3.6,1.4,4.8l0.8,1.6c1.5,2.4,4.4,1.9,4.4,1.9l1.1,0c-0.4,0.3-0.7,0.7-1,1
		c-0.7,0.7-1.7,2.1-1.3,3.9l0.7,2.2c0.7,2.1,1.7,3.4,2.1,3.9c-0.3,1,0.1,1.4,0.1,1.4s0.1,0.1,1-0.6c2,0.5,3.5,0.4,4.8,0.2l2.1-0.3
		c1.9-0.5,2.8-2,3.2-3c0.4,0.8,1.2,1.8,2.7,2l2.4,0.1c2.2,0.1,3.5-0.3,4.1-0.4c0.8,0.6,1.3,0.4,1.3,0.4s0.1-0.1-0.1-1.1
		c1.2-1.7,1.9-3,2.2-4.3l0.5-1.9c0.5-2.7-1.9-4.3-1.9-4.3l-1.3-1.2c0.5,0,1-0.1,1.4-0.2c0.9-0.1,2.5-0.6,3.3-2.3l0.7-1.9
		c0.7-2.1,0.9-4,0.9-4.7c0.8-0.6,0.7-1,0.7-1S54.4,29.5,53.3,29.5z M36,42.7c-3.1,0-5.5-2.5-5.5-5.5c0-3.1,2.5-5.5,5.5-5.5
		c3.1,0,5.5,2.5,5.5,5.5C41.6,40.2,39.1,42.7,36,42.7z"/>
	<path fill="#FFFFFF" d="M35.9,5.1C18.8,5.1,4.9,18.9,4.9,36c0,17.1,13.9,30.9,30.9,30.9c17.1,0,30.9-13.9,30.9-30.9
		C66.8,18.9,52.9,5.1,35.9,5.1z M35.9,64c-15.4,0-28-12.5-28-28c0-15.4,12.5-28,28-28c15.4,0,28,12.5,28,28
		C63.8,51.4,51.3,64,35.9,64z"/>
</g>
</svg>
