<?xml version="1.0" encoding="utf-8"?>
<!-- Generator: Adobe Illustrator 19.2.1, SVG Export Plug-In . SVG Version: 6.00 Build 0)  -->
<svg version="1.1" id="Layer_1" xmlns="http://www.w3.org/2000/svg" xmlns:xlink="http://www.w3.org/1999/xlink" x="0px" y="0px"
	 viewBox="0 0 63.6 63.8" enable-background="new 0 0 63.6 63.8" xml:space="preserve">
<g>
	<g>
		<path fill="#FFFFFF" d="M31.9,0.4C14.5,0.4,0.4,14.6,0.4,31.9c0,17.4,14.1,31.5,31.5,31.5c17.4,0,31.5-14.1,31.5-31.5
			C63.3,14.6,49.2,0.4,31.9,0.4z M31.9,61.4c-16.3,0-29.5-13.2-29.5-29.5c0-16.3,13.2-29.5,29.5-29.5c16.3,0,29.5,13.2,29.5,29.5
			C61.3,48.2,48.1,61.4,31.9,61.4z"/>
	</g>
	<path fill="#FFFFFF" d="M58.1,29.8C57.1,17,46.8,6.6,34,5.6C17.8,4.4,4.3,17.8,5.6,34c1,12.8,11.4,23.1,24.1,24.1
		C46,59.5,59.4,46,58.1,29.8z M12.4,34.4c-1.1-3.4,1.4-7.8,1.5-7.9c0.1-0.1,0.2-0.2,0.3-0.2c0.1,0,0.2,0,0.3,0.1
		c0.1,0.1,6,8.1,10.5,16.9c0.1,0.1,0,0.3-0.1,0.4c-0.1,0-0.1,0.1-0.2,0.1c-0.1,0-0.2,0-0.2-0.1c0,0-1.5-1.6-5.5-3.1
		C14.5,39.1,13.4,37.8,12.4,34.4z M29.1,48.3c-0.6,0.4-1.8,0.8-3.1,1c-0.9,0.1-1.7,0.1-2.5-0.1c-0.1,0-0.1-0.1-0.2-0.1
		c-1.9-3-1.2-4.6-1.2-4.6c0-0.1,0.1-0.1,0.1-0.1c0.1-0.1,0.9-0.3,2.8,1.2c2.8,2.4,3.8,2.3,3.8,2.3c0.1,0,0.2,0,0.3,0.2
		C29.3,48.1,29.2,48.2,29.1,48.3z M29.5,46.5c-0.1,0-0.1,0.1-0.2,0.1c0,0-0.1,0-0.1,0c-2.1-1-2.5-2.2-2.5-2.2
		c-6.6-13.7-11.1-19.5-11.1-19.6c-0.1-0.1-0.1-0.2-0.1-0.3c1.2-6.4,5.9-6.7,6-6.7c0.2,0,0.3,0.1,0.3,0.2c0,0,6.8,24.5,7.8,28.1
		C29.6,46.3,29.6,46.5,29.5,46.5z M33,47c-0.1,0.2-0.5,0.5-1.1,0.5c-0.7,0-1.1-0.4-1.1-0.5c0,0,0-0.1-0.1-0.1l-6.6-29.5
		c0,0,0-0.1,0-0.1c0-0.1,0.3-2.9,7.7-2.9c7.4,0,7.7,2.8,7.7,2.9c0,0,0,0.1,0,0.1L33,46.9C33,47,33,47,33,47z M34.5,46.6
		c-0.1,0-0.1,0-0.2-0.1c-0.1-0.1-0.1-0.2-0.1-0.3c1-3.6,7.8-28.1,7.8-28.1c0-0.1,0.2-0.3,0.3-0.2c0,0,4.8,0.3,6,6.7
		c0,0.1,0,0.2-0.1,0.3c0,0.1-4.6,5.9-11.1,19.6c0,0-0.4,1.2-2.5,2.2C34.6,46.6,34.5,46.6,34.5,46.6z M40.5,49c0,0.1-0.1,0.1-0.2,0.1
		c-0.7,0.2-1.6,0.2-2.5,0.1c-1.3-0.1-2.6-0.5-3.1-1c-0.1-0.1-0.1-0.2-0.1-0.3c0-0.1,0.2-0.2,0.3-0.2c0,0,1,0,3.8-2.3
		c1.9-1.6,2.7-1.3,2.8-1.2c0.1,0,0.1,0.1,0.1,0.1C41.8,44.5,42.4,46,40.5,49z M51.4,34.4c-1.1,3.3-2.1,4.6-6.5,6.3
		c-4,1.5-5.5,3.1-5.5,3.1c-0.1,0.1-0.2,0.1-0.2,0.1c-0.1,0-0.1,0-0.2-0.1c-0.1-0.1-0.2-0.3-0.1-0.4c4.5-8.9,10.4-16.9,10.5-16.9
		c0.1-0.1,0.2-0.1,0.3-0.1c0.1,0,0.2,0.1,0.3,0.2C49.9,26.7,52.5,31,51.4,34.4z"/>
</g>
</svg>
