<?xml version="1.0" encoding="utf-8"?>
<!-- Generator: Adobe Illustrator 19.2.1, SVG Export Plug-In . SVG Version: 6.00 Build 0)  -->
<svg version="1.1" id="Layer_1" xmlns="http://www.w3.org/2000/svg" xmlns:xlink="http://www.w3.org/1999/xlink" x="0px" y="0px"
	 viewBox="0 0 63 63" enable-background="new 0 0 63 63" xml:space="preserve">
<g>
	<path fill="#FFFFFF" d="M38.3,26c-2.2,0.4-3.1-0.1-3.2-2.6C38,23.4,38.3,26,38.3,26z M57.9,31.5c0,14.6-11.8,26.4-26.4,26.4
		c-14.6,0-26.4-11.8-26.4-26.4c0-14.6,11.8-26.4,26.4-26.4C46.1,5.1,57.9,16.9,57.9,31.5z M48.4,32.6c0-0.1-0.3-0.3-0.6-0.6
		c-3.2-3-6.4-7-8.8-11.9c0.5-1.4,1.2-2.4,1.2-2.4c-0.8-0.2-1.6-0.2-2.3-0.1c-0.3-0.9-0.5-1.8-0.6-2.7c0-0.3-0.1-0.6-0.1-1
		c0,0-0.8,0.1-1.7,0.5c-1,0.4-2.1,1.1-2.9,2.3c-1.6,0.1-3,0.3-4.2,0.7l-0.6-2c-1.6,0.5-3,1.1-4.2,2l1.2,1.7
		c-0.6,0.4-1.1,0.9-1.6,1.5l-1.5-1.4c-1,1.1-1.8,2.4-2.4,3.9l1.9,0.8c-0.3,0.7-0.5,1.4-0.7,2.1l-2-0.5c-0.3,1.3-0.6,2.6-0.7,4.2
		l2,0.2c-0.1,0.7-0.1,1.5-0.2,2.2l-2.1-0.1c0,0.9-0.1,1.9-0.1,3c0,0.4,0,0.7,0,1.1l2.1,0c0,0.7,0,1.5,0,2.2l-2.1,0l0,0.1
		c0,1,0,1.9,0,2.8c0,0.3,0,0.6,0,0.9c0,0,0,0,0,0l0,0l2,0c0,0.8-0.1,1.5-0.1,2.1c0.7,0.7,1.5,1.3,2.3,1.8c1.2-8.6-3.3-26,10.6-27.1
		c0.1,0,0.1,0.1,0,0.1c-12.2,3.4-4.5,20.1-6.5,29.1c1.8,0.6,3.7,1,5.8,1c3.7,0,7.2-1.2,10-3.2c-0.2-0.7-0.4-1.5-0.6-2.2
		c-1.5-4.1-4.7-7.3-8.8-9c-3.4-1.4-3.7-4.5-3.7-4.5c0.8,1.2,1.8,1.9,2.9,2.3c2.7,1.1,5.3,2.5,7.7,4.2c0.1,0.1,0.2,0.1,0.3,0.1
		c1.1,0.5,2.8,0.4,4-0.4l-0.7-1.3l0.6,0.3c2.2,0.9,3.6-0.2,4.8-2.2C48.3,33,48.4,32.6,48.4,32.6z"/>
	<g>
		<path fill="#FFFFFF" d="M31.5,0C14.1,0,0,14.1,0,31.5C0,48.9,14.1,63,31.5,63C48.9,63,63,48.9,63,31.5C63,14.1,48.9,0,31.5,0
			L31.5,0L31.5,0z M31.5,2C47.8,2,61,15.2,61,31.5C61,47.8,47.8,61,31.5,61C15.2,61,2,47.8,2,31.5C2,15.2,15.2,2,31.5,2"/>
	</g>
</g>
</svg>
