<?xml version="1.0" encoding="utf-8"?>
<!-- Generator: Adobe Illustrator 19.2.1, SVG Export Plug-In . SVG Version: 6.00 Build 0)  -->
<svg version="1.1" id="Layer_1" xmlns="http://www.w3.org/2000/svg" xmlns:xlink="http://www.w3.org/1999/xlink" x="0px" y="0px"
	 viewBox="0 0 71.7 72" enable-background="new 0 0 71.7 72" xml:space="preserve">
<path fill-rule="evenodd" clip-rule="evenodd" fill="#FFFFFF" d="M35.9,4.5C18.5,4.5,4.3,18.6,4.3,36c0,17.4,14.1,31.5,31.5,31.5
	c17.4,0,31.5-14.1,31.5-31.5C67.4,18.6,53.2,4.5,35.9,4.5z M50.1,29.5c-3,6.7-3.6,13.1-11.7,15.2c1.5,1.6,7,3.1,13,2.2
	c-5.8,4.1-17,7-23.5,2.9c-4.6-2.9-5.7-7-7.6-11.7c-0.5-1.2-1.4-2.9-2.4-3.4c-1.1-0.6-2-0.6-2.7-0.5c0.7-1.8,2.4-3.6,4.2-3.8
	c2.6-0.3,4.6,1.4,6.4,3.1c1.6,1.5,2.4,1.9,3.9,0.2c4.4-5,6.8-7,13-8.8c4.2-1.2,8.1-1.4,11.5-0.7C52.4,24.8,51.2,27.1,50.1,29.5z"/>
</svg>
