<?xml version="1.0" encoding="utf-8"?>
<!-- Generator: Adobe Illustrator 19.2.1, SVG Export Plug-In . SVG Version: 6.00 Build 0)  -->
<svg version="1.1" id="Layer_2" xmlns="http://www.w3.org/2000/svg" xmlns:xlink="http://www.w3.org/1999/xlink" x="0px" y="0px"
	 viewBox="0 0 71.7 72" enable-background="new 0 0 71.7 72" xml:space="preserve">
<g>
	<polygon fill="#FFFFFF" points="36.4,46.5 42,42.7 41.8,42.2 36.3,45.1 36.2,31.6 42.4,28.9 42.4,28.4 36.1,30.4 35.6,19.2 
		34.7,19.5 34.7,31.8 28.5,29.1 28.5,29.8 34.6,33.4 34.8,48.1 28.6,44 28.6,44.5 34.6,50 35,54.8 36.5,54.8 	"/>
	<path fill="#FFFFFF" d="M35.8,6.2C19.3,6.2,6,19.6,6,36c0,16.4,13.3,29.8,29.8,29.8c16.4,0,29.8-13.3,29.8-29.8
		C65.5,19.6,52.2,6.2,35.8,6.2z M42.1,38.7c1.8,0.2,3,0.8,3.8,1.9c1.3,1.8,0.7,4.3,0.7,4.3c-3.2,7.6-7.7,9.5-9.9,10v3h-2v-3.1
		c-6.1-2.3-9.4-9.3-9.5-9.4c-1-2-1.1-3.6-0.4-4.8c1.1-1.7,3.6-1.9,3.7-1.9l0.3,0l-0.2-0.2c-3.6-2.9-4.2-8.1-4.2-8.1
		c0-1.8,0.4-3.2,1.4-4.2c1.4-1.4,3.3-1.5,4.1-1.5c0.2,0,0.3,0,0.3,0l0.1,0l0-0.1c-0.7-2.9-0.4-5.1,0.7-6.6c1.5-1.9,4-2,4.5-2
		c0.1,0,0.1,0,0.1,0c2,0.1,3.5,0.9,4.5,2.2c1.8,2.5,0.9,6.4,0.9,6.4l0,0.1h0.1c1.8,0,3.3,0.5,4.3,1.6c1.3,1.3,1.7,3.2,1.6,4.5
		c0,3.7-5,7.8-5,7.8l-0.2,0.2L42.1,38.7z"/>
	<path fill="#FFFFFF" d="M35.8,0.4C16.2,0.4,0.2,16.4,0.2,36c0,19.6,16,35.6,35.6,35.6c19.6,0,35.6-16,35.6-35.6
		C71.3,16.4,55.4,0.4,35.8,0.4z M35.8,69.3C17.4,69.3,2.5,54.4,2.5,36c0-18.4,14.9-33.3,33.3-33.3c18.4,0,33.3,14.9,33.3,33.3
		C69.1,54.4,54.1,69.3,35.8,69.3z"/>
	<path fill="#FFFFFF" d="M35.7,55.2c0,0,0.2,0,0.7-0.1h-0.9C35.5,55.2,35.6,55.2,35.7,55.2z"/>
	<path fill="#FFFFFF" d="M35,54.8h-0.2v0c0.1,0,0.1,0.1,0.2,0.1L35,54.8z"/>
	<path fill="#FFFFFF" d="M36.5,54.8l0,0.2c0.1,0,0.2,0,0.2-0.1v-0.2H36.5z"/>
</g>
</svg>
