<?xml version="1.0" encoding="utf-8"?>
<!-- Generator: Adobe Illustrator 19.2.1, SVG Export Plug-In . SVG Version: 6.00 Build 0)  -->
<svg version="1.1" id="Layer_1" xmlns="http://www.w3.org/2000/svg" xmlns:xlink="http://www.w3.org/1999/xlink" x="0px" y="0px"
	 viewBox="0 0 72 72" enable-background="new 0 0 72 72" xml:space="preserve">
<path fill="#FFFFFF" d="M36,0C16.1,0,0,16.1,0,36c0,19.9,16.1,36,36,36c19.9,0,36-16.1,36-36C72,16.1,55.9,0,36,0z M62.9,34.4
	c0,0.8-0.7,1.5-1.5,1.5c0,0,0,0,0,0h-9.8c0.2-1,0.3-1.9,0.4-2.9h9.5c0,0,0,0,0,0C62.2,32.9,62.9,33.5,62.9,34.4z M54.3,14.4
	c0.6-0.5,1.5-0.5,2,0c0.6,0.6,0.6,1.5,0,2l0,0l-7,7c-0.6-0.8-1.2-1.6-1.9-2.3C47.4,21.2,54.3,14.4,54.3,14.4z M34.4,6.7
	c0-0.9,0.8-1.6,1.7-1.6c0.9,0,1.6,0.7,1.7,1.6v10.1c-1.6-0.2-3.3,0-3.3,0V6.7z M36.1,19.5c7.1,0,12.8,5.7,12.8,12.8
	c0,3-1.1,5.8-2.8,8l-6-4.9l-6,5.7L29,39.7L26.7,41c-2.1-2.3-3.4-5.3-3.4-8.7C23.3,25.2,29,19.5,36.1,19.5z M16.8,14.2
	c0.4,0,0.8,0.2,1,0.4l0,0c0,0,0,0,0,0l6.8,6.7c-0.7,0.7-1.3,1.5-1.8,2.3l-7-6.9l0,0c-0.3-0.3-0.4-0.6-0.4-1.1
	C15.3,14.9,16,14.2,16.8,14.2z M10.8,32.9C10.8,32.9,10.8,32.9,10.8,32.9l9.4,0c0,1,0.2,2,0.4,2.9h-9.8c0,0,0,0,0,0
	c-0.8,0-1.5-0.7-1.5-1.5C9.3,33.5,10,32.9,10.8,32.9z M36.1,66c-3.8,0-7.5-0.8-10.9-2.1H47C43.6,65.3,40,66,36.1,66z M52.3,61.3
	H19.9c-1.1-0.7-2.1-1.4-3.1-2.2h38.5C54.4,59.8,53.4,60.6,52.3,61.3z M58.2,56.3H14.1c-0.7-0.7-1.3-1.5-1.9-2.2H60
	C59.4,54.9,58.8,55.6,58.2,56.3z M10.4,51.4c-0.4-0.7-0.8-1.5-1.2-2.2h9l10.6-7l5.8,1.6l5.5-5.4l13.4,10.8l9.5,0
	c-0.4,0.8-0.8,1.5-1.2,2.2H10.4z"/>
</svg>
