<?xml version="1.0" encoding="utf-8"?>
<!-- Generator: Adobe Illustrator 19.2.1, SVG Export Plug-In . SVG Version: 6.00 Build 0)  -->
<svg version="1.1" id="Layer_1" xmlns="http://www.w3.org/2000/svg" xmlns:xlink="http://www.w3.org/1999/xlink" x="0px" y="0px"
	 viewBox="0 0 71.7 72" enable-background="new 0 0 71.7 72" xml:space="preserve">
<g>
	<path fill="#FFFFFF" d="M35.9,4.5C18.5,4.5,4.4,18.6,4.4,36c0,17.4,14.1,31.5,31.5,31.5c17.4,0,31.5-14.1,31.5-31.5
		C67.3,18.6,53.2,4.5,35.9,4.5z M45.2,54.1c-9.3,3.5-22.2,0.4-25.7-5.3c0,0-7.1-13.1-0.2-23.3c0,0,0,0,0,0c0,0,0,0,0,0
		c3.2-5.3,15.4-13.7,26.4-6.2c4.5,2.7,6.8,7.5,7.8,9.6c0,0,2,4.5,1.9,9.8C55.4,44.1,53.3,50.4,45.2,54.1z"/>
	<path fill="#FFFFFF" d="M36.8,24.6c0.3,0,0.5-0.2,0.7-0.6c0.2-0.4,0.3-1.1,0.3-2.1c0.1-2,0-3-0.7-3.1c-0.3,0-0.5,0.2-0.7,0.7
		c-0.2,0.5-0.3,1.2-0.3,2.2C36,23.7,36.2,24.5,36.8,24.6z"/>
	<path fill="#FFFFFF" d="M48.5,31.1c-1.4,0.5-2.1,0.8-2.3,1.2c-0.1,0.1-0.1,0.2,0,0.4c0.2,0.6,1,0.6,2.9-0.1
		c1.8-0.6,2.7-1.1,2.5-1.7C51.4,30.4,50.4,30.5,48.5,31.1z"/>
	<path fill="#FFFFFF" d="M42.6,45.7c-0.1,0.1-0.2,0.2-0.2,0.3c-0.1,0.5,0.3,1.2,1.2,2.4c1.2,1.6,2,2.3,2.5,2
		c0.1-0.1,0.2-0.2,0.2-0.4c0-0.5-0.4-1.4-1.3-2.6C43.7,45.9,43.1,45.4,42.6,45.7z"/>
	<path fill="#FFFFFF" d="M27.2,44.3c-0.5-0.4-1.2,0-2.5,1.5c-0.6,0.7-1.1,1.3-1.3,1.8c-0.2,0.4-0.2,0.8,0,1c0.5,0.4,1.3-0.2,2.6-1.6
		c0.6-0.7,1.1-1.2,1.3-1.7C27.4,44.8,27.4,44.5,27.2,44.3z"/>
	<path fill="#FFFFFF" d="M23.1,30.6c1.8,0.9,2.6,1.1,2.9,0.6c0.2-0.5-0.4-1.1-2.1-2c-1.8-0.9-2.8-1.2-3.1-0.7
		C20.5,29,21.3,29.6,23.1,30.6z"/>
	<path fill="#FFFFFF" d="M38.1,37.2C38.2,37.2,38.2,37.2,38.1,37.2C38.2,37.2,38.2,37.2,38.1,37.2c2.2-0.8,3.3-1.3,4.8-2
		c0.3-0.2,0.5-0.3,0.6-0.5c0.2-0.5-0.5-0.9-0.8-1c-0.3-0.1-1.2-0.2-2.6,0c-0.7,0.1-1.4,0.5-2.9,0.6c0.3-1.7-0.1-3-0.1-3.5
		c0-0.4,0.1-0.9,0-1.7c-0.3-1.6-1.2-0.6-1.4,0c0,0.1-0.1,0.2-0.1,0.2c0,0.3-0.1,0.7-0.2,1c-0.1,0.4-0.2,0.7-0.4,1
		c0,0.1-0.1,0.1-0.1,0.2c0,0.1-0.1,0.3-0.1,0.5c-0.1,0.8-0.2,2-0.2,2c0,0,0,0,0,0c0,0,0,0,0,0c-1-0.5-3.4-1.2-5.1-1.5
		c-0.6-0.1-0.9,0-1,0.2c-0.1,0.3,0.2,0.8,0.2,0.8s1.2,0.9,1.8,1.3c0.6,0.4,1.8,1.2,3.1,1.7c0,0,0,0,0,0c0,0,0,0,0,0
		c-0.3,0.4-0.4,0.4-0.9,1c-0.4,0.6-1.6,3.2-1.9,3.9c-0.2,0.6,0.2,1.4,1,0.7c0.8-0.7,3.2-3.3,3.8-3.9c0.4,0.8,1.5,2.3,1.7,2.7
		c0.2,0.4,0.7,0.4,1.4,1.6c0.4,0.5,0.9,0.3,1.1-0.4c0-0.2,0-0.5-0.1-0.8C39.9,41.1,38.7,38.7,38.1,37.2z"/>
</g>
</svg>
