<?xml version="1.0" encoding="utf-8"?>
<!-- Generator: Adobe Illustrator 19.2.1, SVG Export Plug-In . SVG Version: 6.00 Build 0)  -->
<svg version="1.1" id="Layer_1" xmlns="http://www.w3.org/2000/svg" xmlns:xlink="http://www.w3.org/1999/xlink" x="0px" y="0px"
	 viewBox="0 0 432 432" enable-background="new 0 0 432 432" xml:space="preserve">
<g>
	<path fill="#FFFFFF" d="M229.1,13.4C117.3,6.2,20.7,91,13.4,202.9C6.2,314.7,91,411.3,202.9,418.6
		c111.9,7.3,208.4-77.6,215.7-189.4C425.8,117.3,341,20.7,229.1,13.4z M301.1,157.4c-4.2,15.3-31,24.7-31,24.7
		c6.3,6.3,21,5.7,21,5.7c-6.2,17-20,40.6-36.5,59.8c-8.9,10.4-52.7,18-52.7,18c15.7,8.6,40.3,6.5,40.3,6.5
		c-22.5,30.7-82.5,37.7-82.5,37.7c-19.2,17.9-33.7,28.1-35.2,29.1c-0.4-7.7,2.9-15.2,9-20c1.5-1.2,3.2-2.6,5-4
		c11.7-8.8,37.8-28.7,61.6-54.3c47.7-51.3,72.6-116.4,72.6-116.4c0.1-0.2,0-0.4-0.2-0.6c-0.2-0.2-0.5-0.1-0.7,0.1l-0.1,0.1
		c0,0-33.4,56-78.7,110.2c-15.2,18.2-30.2,33.3-41.3,44.6c-4.1-21-0.3-53,6.6-62.9c0,0,0.6,26.9,9.2,38c0,0,1.9-47.8,12-65.2
		c0,0,4.5,26,13.6,35.5c0,0-0.8-44.5,10.2-62.8c26.2-43.6,61-102.2,90.1-84.7C308.2,105.2,307.9,132.3,301.1,157.4z"/>
</g>
</svg>
