<?xml version="1.0" encoding="utf-8"?>
<!-- Generator: Adobe Illustrator 19.2.1, SVG Export Plug-In . SVG Version: 6.00 Build 0)  -->
<svg version="1.1" id="Layer_1" xmlns="http://www.w3.org/2000/svg" xmlns:xlink="http://www.w3.org/1999/xlink" x="0px" y="0px"
	 viewBox="0 0 71.7 72" enable-background="new 0 0 71.7 72" xml:space="preserve">
<path fill="#FFFFFF" d="M35.9,0.5C16.3,0.5,0.4,16.4,0.4,36c0,19.6,15.9,35.5,35.5,35.5c19.6,0,35.5-15.9,35.5-35.5
	C71.4,16.4,55.4,0.5,35.9,0.5z M54,26.7c-2.5,1.9-7.6,1.9-9,2.1c-0.3,0-0.7,0.8-0.9,1.1c1.2,1.5,1.9,3.2,2.3,4.1c0,0,1.5,3.7,1,7.8
	l2.7,2.9c0,0,1.3,0.8,1,2.3c-0.3,1.5-0.5,5.9-0.5,5.9s0,0.9-0.4,1.3c-0.4,0.4,0,0.4-0.4,0.4c-0.4,0-2.4-2.2-2.6-2.9
	c-0.2-0.7-0.9-2.2,0.5-5c0,0-0.2-0.3-0.8-0.9c-0.2-0.2-0.3-0.4-0.5-0.6c-0.9,1.8-2.4,3.5-4.8,4.8c-5.4,2.3-12.8,0.2-14.9-3.4
	c0,0-0.2-0.5-0.6-1.4c-0.1,0.3-0.3,0.6-0.6,0.9c-0.6,0.5-0.7,1-0.7,1c1.7,2.6,1.1,4.2,0.9,4.9c-0.2,0.7-2,3.1-2.4,3.1
	c-0.4,0,0,0-0.5-0.4c-0.4-0.4-0.5-1.3-0.5-1.3s-0.6-4.4-1-5.9c-0.4-1.5,0.8-2.4,0.8-2.4l2.8-3.4l0.1-0.1c-0.6-3-0.7-6.6,1.4-10
	c0.2-0.4,0.5-0.9,0.9-1.3c-0.2-0.3-1.3-1.3-3.1-1.2c-2.2,0.1-4,0.9-7.1-1.5c-1.1-1.1-3.2-3.2-0.8-3.4c2.3-0.2,7.2,0.1,13.2,4
	c1.1-0.9,2.2-1.6,3.7-2l0.1-0.1v-2.4c0,0-1.2-3,0.5-5.1c1.7-2.2,1.7-2.5,2.1-2.6c0.3-0.1,1.4-1,2.8,0.2c1.4,1.3,1.3,3.9,1.1,4.8
	c-0.2,0.9-1.1,2.3-1.3,2.7c0.1,0.7,0.1,2.1,0.1,2.3c1.1,0.3,2.1,0.8,3.2,1.6c0.2,0.1,0.4,0.3,0.6,0.4c3.9-6,11-4.6,13-3.9
	C57.5,25,55.4,25.8,54,26.7z"/>
</svg>
