<?xml version="1.0" encoding="utf-8"?>
<!-- Generator: Adobe Illustrator 19.2.1, SVG Export Plug-In . SVG Version: 6.00 Build 0)  -->
<svg version="1.1" id="Layer_1" xmlns="http://www.w3.org/2000/svg" xmlns:xlink="http://www.w3.org/1999/xlink" x="0px" y="0px"
	 viewBox="0 0 26.7 26.7" enable-background="new 0 0 26.7 26.7" xml:space="preserve">
<g>
	<path fill="#FFFFFF" d="M13.9,4.3c-5-0.3-9.3,3.5-9.6,8.4c-0.3,5,3.5,9.3,8.4,9.6c5,0.3,9.3-3.5,9.6-8.4
		C22.7,8.9,18.9,4.6,13.9,4.3z M18.4,12.9c0,0-0.6-0.4-1-0.5c-0.3-0.1-1.3-1-1.3-1l-0.3-0.2c1.1,1.4,0.8,2.5,0.8,2.5
		c-0.4,1.6-1.7,2.2-2.3,2.5l0.9,3.2c-0.1,0-0.3,0.1-0.4,0.1l-1.1-3.1c-0.2,0.1-0.4,0.1-0.6,0.2L13,19.7c0,0-0.1,0-0.1,0
		c-0.1,0-0.2,0-0.3,0l-0.1-2.9C12,16.9,11.5,17,11,17c2.2-2.3,3.1-2.3,3.2-2.3c-1.4-0.2-4.4,2.5-4.4,2.5c-0.6,0.6-1.6,0.5-1.6,0.5
		c-0.1-0.6,0.4-1.5,0.4-1.5C8,16,7.9,15.7,7.9,15.7c0.9-0.7,1.3-1.2,1.3-1.2c2.8-3.5,5-2.2,5-2.2s0.6,0.3,0.7-0.4
		C15,11,13.8,10,13.2,9.6c-0.4-0.3-0.7-0.9-0.5-1.4c0-0.1,0.1-0.2,0.1-0.2l-0.3,0.2c0-0.3,0.2-0.5,0.2-0.5c-0.1,0-0.3-0.1-0.3-0.1
		c0.1-0.4,0.5-0.3,0.5-0.3c-0.1-0.1-0.3-0.3-0.3-0.3c2.3-0.5,2.5,1.3,2.5,1.3h0c0,0.1,0,0.1,0,0.1c0,0.2,0,0.3,0.1,0.5
		c0.1,0.2,0.6,0.8,0.6,0.8c1.3,1.6,2.9,3.2,2.9,3.2C18.6,13,18.4,12.9,18.4,12.9z"/>
	<path fill="#FFFFFF" d="M13.3,2.6C7.4,2.6,2.6,7.4,2.6,13.3c0,5.9,4.8,10.7,10.7,10.7c5.9,0,10.7-4.8,10.7-10.7
		C24.1,7.4,19.2,2.6,13.3,2.6z M13.3,23.4c-5.5,0-10-4.5-10-10c0-5.5,4.5-10,10-10c5.5,0,10,4.5,10,10
		C23.4,18.9,18.9,23.4,13.3,23.4z"/>
</g>
</svg>
