<?xml version="1.0" encoding="UTF-8" standalone="no"?>
<svg width="40px" height="45px" viewBox="0 0 40 45" version="1.1" xmlns="http://www.w3.org/2000/svg" xmlns:xlink="http://www.w3.org/1999/xlink" xmlns:sketch="http://www.bohemiancoding.com/sketch/ns">
    <!-- Generator: Sketch 3.4.4 (17249) - http://www.bohemiancoding.com/sketch -->
    <title>arrow</title>
    <desc>Created with Sketch.</desc>
    <defs></defs>
    <g id="Page-1" stroke="none" stroke-width="1" fill="none" fill-rule="evenodd" sketch:type="MSPage">
        <g id="Artboard-3" sketch:type="MSArtboardGroup" transform="translate(-1210.000000, -150.000000)" fill="#FFFFFF">
            <g id="arrow" sketch:type="MSLayerGroup" transform="translate(1210.000000, 150.000000)">
                <path d="M23.9545125,3.7045125 C23.9545125,3.7045125 36.2246062,15.9746063 39.4997625,19.2497625 C39.9390981,19.6891014 39.9390981,20.4014081 39.4997626,20.8407488 C38.441312,21.8991994 36.5807308,23.7597806 35.5222801,24.8182313 C35.0829412,25.2575668 34.3706345,25.2575668 33.9312939,24.818231 L23.9545126,14.8414498 L23.9545126,43.6420123 C23.9545083,44.2633273 23.4508327,44.767001 22.8295183,44.7670067 C21.3326439,44.7670067 18.7013814,44.7670067 17.2045183,44.7670067 C16.5832033,44.7670041 16.0795295,44.2633301 16.0795239,43.6420123 L16.0795239,14.8414498 L6.10274264,24.818231 C5.6634037,25.2575666 4.95109702,25.2575666 4.51175639,24.8182312 L0.534273891,20.8407487 C0.0949383289,20.4014098 0.0949383289,19.6891031 0.534274092,19.2497624 L15.5170241,4.26701244 C15.5170241,4.26701244 17.9281972,1.85489432 19.2199166,0.562663066 C19.6591695,0.123236941 20.3714778,0.123096316 20.8109085,0.562349128 L23.9543047,3.7045135 L23.9545258,3.7045135 L23.9545125,3.7045125 Z" id="Shape" sketch:type="MSShapeGroup"></path>
            </g>
        </g>
    </g>
</svg>