<?xml version="1.0" encoding="UTF-8" standalone="no"?>
<svg width="38px" height="56px" viewBox="0 0 38 56" version="1.1" xmlns="http://www.w3.org/2000/svg" xmlns:xlink="http://www.w3.org/1999/xlink" xmlns:sketch="http://www.bohemiancoding.com/sketch/ns">
    <!-- Generator: Sketch 3.4.4 (17249) - http://www.bohemiancoding.com/sketch -->
    <title>backpack</title>
    <desc>Created with Sketch.</desc>
    <defs></defs>
    <g id="Page-1" stroke="none" stroke-width="1" fill="none" fill-rule="evenodd" sketch:type="MSPage">
        <g id="Artboard-3" sketch:type="MSArtboardGroup" transform="translate(-1311.000000, -79.000000)" stroke="#FFFFFF" fill="#FFFFFF">
            <g id="backpack" sketch:type="MSLayerGroup" transform="translate(1311.000000, 80.000000)">
                <path d="M36.7416667,42.6141667 C36.7316667,39.7066667 35.0975,33.6391667 34.8925,32.8908333 C34.8858333,32.7733333 34.87,32.6366667 34.8433333,32.4866667 L34.85,32.4866667 C35.3025,31.4291667 34.9775,29.6225 34.8958333,29.2216667 C34.8825,26.54 34.0983333,21.4941667 34.04,21.1133333 C33.8966667,19.7166667 33.0141667,16.3933333 32.9,15.9633333 C32.5683333,13.2391667 29.5833333,10.5075 29.4533333,10.3941667 L29.44,10.3808333 C28.3983333,9.49833333 26.6958333,8.9225 25.3091667,8.57083333 C25.3975,7.93 25.1433333,7.21666667 25.1433333,7.21666667 C24.7658333,6.83916667 24.6683333,5.03916667 24.6683333,5.03916667 C24.7625,4.375 24.0041667,2.6725 24.0041667,2.6725 C23.1541667,-0.358333333 20.0258333,0.4 20.0258333,0.4 C19.2675,0.495 17.7541667,2.48333333 17.7541667,2.48333333 L17.09,4.28416667 C16.595,5.48833333 16.8941667,7.3825 17.0766667,8.26166667 L16.7125,8.26166667 L16.6891667,8.26166667 C13.2816667,8.38833333 12.2883333,9.28083333 12.0016667,9.74 C9.25416667,11.9925 5.75833333,17.1975 5.33833333,17.8316667 C3.71083333,19.7883333 2.65333333,22.5 2.24583333,25.8233333 C1.8325,29.18 2.21333333,31.9466667 2.23,32.0641667 L2.28166667,32.0575 C0.9275,33.975 0.8075,36.52 0.804166667,36.65 L0.804166667,36.6666667 L1.09083333,49.6808333 L1.11,49.7491667 C1.40666667,50.84 2.44166667,51.465 3.94833333,51.465 C4.18,51.465 4.34916667,51.4483333 4.4075,51.4416667 C4.55083333,51.4325 4.71,51.4291667 4.87916667,51.4291667 C6.89416667,51.4291667 10.0875,52.0641667 10.4558333,52.1383333 C13.8116667,53.2783333 24.6191667,53.5641667 25.0783333,53.5775 L25.0908333,53.5775 C26.1391667,53.5775 27.0116667,53.3525 27.695,52.9133333 L28.7108333,53.2516667 C29.7425,53.7466667 30.6641667,53.9941667 31.465,53.9941667 C32.0016667,53.9941667 32.4866667,53.8833333 32.9166667,53.6591667 C33.9416667,53.1316667 34.3066667,52.1325 34.4141667,51.7183333 C37.0866667,48.75 36.7675,43.07 36.7416667,42.6141667 L36.7416667,42.6141667 Z M18.9841667,5.23083333 C18.7008333,3.62 18.9841667,2.01166667 18.9841667,2.01166667 C19.9316667,0.305833333 22.8675,3.2425 22.8675,3.2425 C24.4791667,4.37833333 24.0983333,4.75583333 24.0983333,4.75583333 C23.4208333,5.635 23.1316667,7.2625 23.0241667,8.12166667 L22.9716667,8.115 L22.9066667,8.12166667 C22.2525,8.18666667 20.8366667,8.2225 19.5216667,8.23916667 C19.4925,7.1325 18.9841667,5.23083333 18.9841667,5.23083333 L18.9841667,5.23083333 Z M12.8058333,10.55 L12.9458333,10.5141667 L12.9783333,10.3316667 C13.0891667,10.1983333 13.805,9.505 16.7216667,9.3975 C17.0316667,9.3975 21.4616667,9.39416667 22.9458333,9.26083333 C23.4666667,9.33583333 27.1025,9.90916667 28.6916667,11.2466667 C28.8408333,11.3833333 31.5166667,13.8766667 31.7675,16.1391667 L31.7841667,16.2241667 C31.7933333,16.26 32.7666667,19.8891667 32.9033333,21.2466667 L32.9066667,21.2791667 C32.9166667,21.3283333 33.6525,26.0225 33.7433333,28.7691667 C33.35,27.6466667 32.9816667,26.6858333 32.8741667,26.4091667 C32.1291667,23.6458333 28.5908333,19.3883333 28.3725,19.1241667 C26.7383333,17.0541667 22.6566667,15.2083333 22.4833333,15.13 L22.4316667,15.1075 C20.7258333,14.5375 15.9208333,13.9941667 15.5175,13.9483333 C13.6391667,13.6133333 10.0491667,14.9058333 8.32,15.5958333 C9.63833333,13.8283333 11.3675,11.7025 12.8058333,10.55 L12.8058333,10.55 Z M3.88666667,31.95 C4.1275,31.9175 4.6775,31.8558333 5.4425,31.8558333 C6.58833333,31.8558333 7.7575,31.9891667 8.91583333,32.2525 L8.96833333,32.2625 C9.29333333,32.305 16.9758333,33.3041667 19.9125,33.3041667 C20.2833333,33.3041667 20.5633333,33.2875 20.7683333,33.255 C20.775,33.255 21.53,33.1475 22.5516667,33.1475 C25.0908333,33.1475 28.1383333,33.7366667 28.2191667,36.5433333 L28.2191667,36.5591667 C28.2358333,36.8616667 28.255,37.2166667 28.2716667,37.6141667 C28.2425,37.6891667 28.1966667,37.76 28.1316667,37.8316667 C26.4325,39.7166667 15.8591667,38.9908333 9.59666667,38.0925 L9.53416667,38.0858333 C7.12916667,38.0041667 2.95583333,36.9241667 1.94333333,36.6533333 C1.9625,36.315 2.1875,33.4241667 3.88666667,31.95 L3.88666667,31.95 Z M25.1008333,52.435 C24.7625,52.425 13.9066667,52.1291667 10.7908333,51.045 L10.7191667,51.025 C10.5733333,50.9958333 7.12583333,50.2866667 4.87916667,50.2866667 C4.6775,50.2866667 4.48916667,50.2933333 4.31666667,50.3025 L4.28416667,50.3058333 C4.28416667,50.3058333 4.1475,50.3225 3.945,50.3225 C3.39833333,50.3225 2.46083333,50.215 2.22,49.5016667 L1.9625,37.8383333 C3.3725,38.21 7.1125,39.1375 9.4625,39.2216667 C9.85333333,39.2775 13.835,39.8275 18.05,40.055 C19.2875,40.1233333 20.4333333,40.1566667 21.475,40.1566667 C22.6266667,40.1566667 23.6591667,40.1175 24.5575,40.0358333 C26.2858333,39.8766667 27.5325,39.57 28.3333333,39.0983333 C28.4733333,42.5716667 28.5808333,47.4608333 28.2425,48.5741667 L28.2033333,48.7041667 L28.2258333,48.8375 C28.2291667,48.8541667 28.47,50.475 27.5941667,51.5075 C27.0733333,52.1225 26.2333333,52.435 25.1008333,52.435 L25.1008333,52.435 Z M33.4866667,51.0516667 L33.3658333,51.1783333 L33.34,51.3508333 C33.3366667,51.3575 33.1708333,52.2491667 32.3958333,52.65 C31.6633333,53.0275 30.55,52.8775 29.1733333,52.21 L28.6266667,52.025 C29.5083333,50.7975 29.4141667,49.2416667 29.3583333,48.7825 C29.7916667,47.0083333 29.5441667,40.5341667 29.4108333,37.7216667 C29.4566667,37.4641667 29.45,37.1941667 29.3816667,36.9108333 L29.3716667,36.9141667 C29.3616667,36.7316667 29.3558333,36.5916667 29.3491667,36.5041667 C29.2608333,33.6066667 26.8458333,32.0116667 22.5458333,32.0116667 C21.4391667,32.0116667 20.6383333,32.1225 20.5991667,32.1291667 C20.4983333,32.145 20.2933333,32.165 19.9091667,32.165 C17.1291667,32.165 9.63833333,31.2008333 9.1375,31.1358333 C7.90333333,30.8591667 6.66,30.7191667 5.43916667,30.7191667 C4.2775,30.7191667 3.5675,30.85 3.53833333,30.8558333 L3.39833333,30.8825 L3.2875,30.97 L3.265,30.99 C3.09583333,28.6525 2.99166667,22.37 6.24333333,18.5125 L6.24666667,18.5158333 C6.24666667,18.5125 6.25333333,18.5058333 6.26333333,18.4925 C6.735,17.9391667 7.275,17.4316667 7.8975,16.9983333 C9.43666667,16.3316667 13.6233333,14.7491667 15.3258333,15.0716667 L15.3675,15.0783333 C15.42,15.085 20.3841667,15.6416667 22.0408333,16.1783333 C22.3825,16.335 26.0875,18.0566667 27.4833333,19.8341667 L27.4966667,19.8466667 C27.5325,19.8891667 31.1133333,24.1833333 31.7841667,26.7283333 L31.8033333,26.79 C32.5583333,28.7308333 33.7533333,32.1225 33.7533333,32.975 L33.7533333,33.05 L33.7725,33.125 C33.7891667,33.19 35.5991667,39.7625 35.5991667,42.6333333 L35.5991667,42.6725 C35.6083333,42.7308333 35.9833333,48.4208333 33.4866667,51.0516667 L33.4866667,51.0516667 Z" id="Fill-1" sketch:type="MSShapeGroup"></path>
                <path d="M24.7366667,47.2041667 L19.5508333,46.8425 C19.0625,46.81 18.6291667,47.37 18.5775,48.0891667 C18.525,48.8116667 18.88,49.4266667 19.3683333,49.46 L24.5541667,49.8208333 C25.0425,49.8533333 25.475,49.2933333 25.5275,48.5708333 C25.5758333,47.8516667 25.2216667,47.24 24.7366667,47.2041667 L24.7366667,47.2041667 Z" id="Fill-2" sketch:type="MSShapeGroup"></path>
            </g>
        </g>
    </g>
</svg>