<?xml version="1.0" encoding="UTF-8" standalone="no"?>
<svg width="54px" height="45px" viewBox="0 0 54 45" version="1.1" xmlns="http://www.w3.org/2000/svg" xmlns:xlink="http://www.w3.org/1999/xlink" xmlns:sketch="http://www.bohemiancoding.com/sketch/ns">
    <!-- Generator: Sketch 3.4.4 (17249) - http://www.bohemiancoding.com/sketch -->
    <title>briefcase-medicine</title>
    <desc>Created with Sketch.</desc>
    <defs></defs>
    <g id="Page-1" stroke="none" stroke-width="1" fill="none" fill-rule="evenodd" sketch:type="MSPage">
        <g id="Artboard-3" sketch:type="MSArtboardGroup" transform="translate(-484.000000, -150.000000)" fill="#FFFFFF">
            <g id="briefcase-medicine" sketch:type="MSLayerGroup" transform="translate(484.000000, 150.000000)">
                <path d="M34.1275794,19.2953051 L31.8017461,16.9694718 L26.6382461,22.1318051 L21.4760794,16.9694718 L19.1502461,19.2953051 L24.3127461,24.4578051 L19.1502461,29.6211384 L21.4760794,31.9469718 L26.6382461,26.7836384 L31.8017461,31.9469718 L34.1275794,29.6211384 L28.9640794,24.4578051 L34.1275794,19.2953051 Z" id="Shape" sketch:type="MSShapeGroup" transform="translate(26.638913, 24.458222) rotate(-315.000000) translate(-26.638913, -24.458222) "></path>
                <path d="M51.8873684,44.1800003 L1.40210526,44.1800003 C0.628223684,44.1800003 0,43.5518346 0,42.7780245 L0,6.95896282 C0,6.18396858 0.628223684,5.55639494 1.40210526,5.55639494 L3.85697368,5.55639494 L3.85697368,5.4202233 C3.85697368,4.64522905 4.48519737,4.01824746 5.25967105,4.01824746 L8.84368421,4.01824746 C9.61875,4.01824746 10.2457895,4.6458211 10.2457895,5.4202233 L10.2457895,5.55639494 L19.2428289,5.55639494 L19.2428289,1.40256789 C19.2428289,0.627573642 19.8710526,0 20.6449342,0 L32.6415789,0 C33.4160526,0 34.0436842,0.628165693 34.0436842,1.40256789 L34.0436842,5.55639494 L43.0425,5.55639494 L43.0425,5.4202233 C43.0425,4.64522905 43.6707237,4.01824746 44.4451974,4.01824746 L48.0292105,4.01824746 C48.8042763,4.01824746 49.4319079,4.6458211 49.4319079,5.4202233 L49.4319079,5.55639494 L51.8867763,5.55639494 C52.66125,5.55639494 53.2888816,6.18456063 53.2888816,6.95896282 L53.2888816,42.7780245 C53.2894737,43.5518346 52.66125,44.1800003 51.8873684,44.1800003 L51.8873684,44.1800003 Z M2.80480263,41.3754566 L50.4840789,41.3754566 L50.4840789,8.3603466 L2.80480263,8.3603466 L2.80480263,41.3754566 L2.80480263,41.3754566 Z M22.0476316,5.55639494 L31.2382895,5.55639494 L31.2382895,2.80454372 L22.0476316,2.80454372 L22.0476316,5.55639494 L22.0476316,5.55639494 Z" id="Shape" sketch:type="MSShapeGroup"></path>
            </g>
        </g>
    </g>
</svg>