<?xml version="1.0" encoding="UTF-8" standalone="no"?>
<svg width="45px" height="45px" viewBox="0 0 45 45" version="1.1" xmlns="http://www.w3.org/2000/svg" xmlns:xlink="http://www.w3.org/1999/xlink" xmlns:sketch="http://www.bohemiancoding.com/sketch/ns">
    <!-- Generator: Sketch 3.4.4 (17249) - http://www.bohemiancoding.com/sketch -->
    <title>calendar-time</title>
    <desc>Created with Sketch.</desc>
    <defs></defs>
    <g id="Page-1" stroke="none" stroke-width="1" fill="none" fill-rule="evenodd" sketch:type="MSPage">
        <g id="Artboard-3" sketch:type="MSArtboardGroup" transform="translate(-1166.000000, -80.000000)" fill="#FFFFFF">
            <g id="calendar-time" sketch:type="MSLayerGroup" transform="translate(1166.000000, 80.000000)">
                <path d="M5.625,7.03125 L5.625,1.40625 C5.625,0.628945313 6.25394531,0 7.03125,0 C7.80855469,0 8.4375,0.628945312 8.4375,1.40625 L8.4375,7.03125 C8.4375,7.80855469 7.80855469,8.4375 7.03125,8.4375 C6.25394531,8.4375 5.625,7.80855469 5.625,7.03125 L5.625,7.03125 Z M29.53125,8.4375 C30.3085547,8.4375 30.9375,7.80855469 30.9375,7.03125 L30.9375,1.40625 C30.9375,0.628945313 30.3085547,0 29.53125,0 C28.7539453,0 28.125,0.628945312 28.125,1.40625 L28.125,7.03125 C28.125,7.80855469 28.7539453,8.4375 29.53125,8.4375 L29.53125,8.4375 Z M45,33.75 C45,39.9628125 39.9627246,45 33.75,45 C27.5372754,45 22.5,39.9627246 22.5,33.75 C22.5,27.5372754 27.5372754,22.5 33.75,22.5 C39.9627246,22.5 45,27.5372754 45,33.75 L45,33.75 Z M42.1875,33.75 C42.1875,29.0972461 38.402666,25.3125 33.75,25.3125 C29.097334,25.3125 25.3125,29.097334 25.3125,33.75 C25.3125,38.402666 29.097334,42.1875 33.75,42.1875 C38.402666,42.1875 42.1875,38.4027539 42.1875,33.75 L42.1875,33.75 Z M11.25,16.875 L5.625,16.875 L5.625,22.5 L11.25,22.5 L11.25,16.875 L11.25,16.875 Z M5.625,30.9375 L11.25,30.9375 L11.25,25.3125 L5.625,25.3125 L5.625,30.9375 L5.625,30.9375 Z M14.0625,22.5 L19.6875,22.5 L19.6875,16.875 L14.0625,16.875 L14.0625,22.5 L14.0625,22.5 Z M14.0625,30.9375 L19.6875,30.9375 L19.6875,25.3125 L14.0625,25.3125 L14.0625,30.9375 L14.0625,30.9375 Z M2.8125,33.4698926 L2.8125,14.0625 L33.75,14.0625 L33.75,19.6875 L36.5625,19.6875 L36.5625,8.71769531 C36.5625,7.00927734 35.2001953,5.625 33.5165625,5.625 L32.34375,5.625 L32.34375,7.03125 C32.34375,8.58032227 31.0830469,9.84375 29.53125,9.84375 C27.9794531,9.84375 26.71875,8.58032227 26.71875,7.03125 L26.71875,5.625 L9.84375,5.625 L9.84375,7.03125 C9.84375,8.58032227 8.58304688,9.84375 7.03125,9.84375 C5.47945312,9.84375 4.21875,8.58032227 4.21875,7.03125 L4.21875,5.625 L3.04734375,5.625 C1.36371094,5.625 0,7.00927734 0,8.71769531 L0,33.4698926 C0,35.1727734 1.36371094,36.5625 3.04734375,36.5625 L19.6875,36.5625 L19.6875,33.75 L3.04734375,33.75 C2.91963867,33.75 2.8125,33.6181641 2.8125,33.4698926 L2.8125,33.4698926 Z M28.125,22.5 L28.125,16.875 L22.5,16.875 L22.5,22.5 L28.125,22.5 L28.125,22.5 Z M37.96875,33.75 L33.75,33.75 L33.75,29.53125 C33.75,28.7539453 33.1210547,28.125 32.34375,28.125 C31.5664453,28.125 30.9375,28.7539453 30.9375,29.53125 L30.9375,35.15625 C30.9375,35.9335547 31.5664453,36.5625 32.34375,36.5625 L37.96875,36.5625 C38.7460547,36.5625 39.375,35.9335547 39.375,35.15625 C39.375,34.3789453 38.7460547,33.75 37.96875,33.75 L37.96875,33.75 Z" id="Shape" sketch:type="MSShapeGroup"></path>
            </g>
        </g>
    </g>
</svg>