<?xml version="1.0" encoding="UTF-8" standalone="no"?>
<svg width="42px" height="45px" viewBox="0 0 42 45" version="1.1" xmlns="http://www.w3.org/2000/svg" xmlns:xlink="http://www.w3.org/1999/xlink" xmlns:sketch="http://www.bohemiancoding.com/sketch/ns">
    <!-- Generator: Sketch 3.4.4 (17249) - http://www.bohemiancoding.com/sketch -->
    <title>calendar</title>
    <desc>Created with Sketch.</desc>
    <defs></defs>
    <g id="Page-1" stroke="none" stroke-width="1" fill="none" fill-rule="evenodd" sketch:type="MSPage">
        <g id="SVG" sketch:type="MSArtboardGroup" transform="translate(-540.000000, -750.000000)" fill="#FFFFFF">
            <g id="calendar" sketch:type="MSLayerGroup" transform="translate(540.000000, 750.000000)">
                <path d="M0.784384615,19.647 L0.784384615,40.8406154 C0.784384615,42.8877692 2.42307692,44.5486154 4.446,44.5486154 L37.4358462,44.5486154 C39.456,44.5486154 41.1002308,42.8877692 41.1002308,40.8406154 L41.1002308,19.647 L0.784384615,19.647 Z M13.8544615,41.7738462 L3.77515385,41.7738462 L3.77515385,33.3526154 L13.8544615,33.3526154 L13.8544615,41.7738462 Z M13.8544615,30.9696923 L3.77515385,30.9696923 L3.77515385,22.5456923 L13.8544615,22.5456923 L13.8544615,30.9696923 Z M25.9234615,41.7738462 L15.8476154,41.7738462 L15.8476154,33.3526154 L25.9234615,33.3526154 L25.9234615,41.7738462 Z M25.9234615,30.9696923 L15.8476154,30.9696923 L15.8476154,22.5456923 L25.9234615,22.5456923 L25.9234615,30.9696923 Z M37.9959231,41.7738462 L27.9166154,41.7738462 L27.9166154,33.3526154 L37.9959231,33.3526154 L37.9959231,41.7738462 Z M37.9959231,30.9696923 L27.9166154,30.9696923 L27.9166154,22.5456923 L37.9959231,22.5456923 L37.9959231,30.9696923 Z" id="Fill-1" sketch:type="MSShapeGroup"></path>
                <path d="M40.9839231,17.1775385 L40.9839231,9.01384615 C40.9839231,6.966 39.3452308,5.30584615 37.3223077,5.30584615 L31.7111538,5.30584615 L31.7000769,2.15238462 C31.6973077,1.10907692 30.8506154,0.267923077 29.8100769,0.270692308 C28.7716154,0.270692308 27.9304615,1.11669231 27.9304615,2.15792308 L27.9408462,5.30584615 L27.9408462,5.31415385 L12.9537692,5.30584615 L12.9426923,2.15238462 C12.9399231,1.10907692 12.0939231,0.267923077 11.0554615,0.270692308 C10.0142308,0.270692308 9.17307692,1.11669231 9.17307692,2.15792308 L9.18692308,5.31138462 L4.32969231,5.30307692 C2.304,5.30307692 0.668076923,6.96392308 0.668076923,9.01107692 L0.668076923,17.6351538 L40.9811538,17.6351538 L40.9811538,17.1775385 L40.9839231,17.1775385 Z M11.088,14.1057692 C9.01107692,14.1085385 7.31769231,12.4234615 7.31215385,10.3416923 C7.31007692,8.94876923 8.06676923,7.73446154 9.189,7.07746154 L9.19730769,10.3389231 C9.19730769,11.3801538 10.0467692,12.2206154 11.0824615,12.2178462 C12.1236923,12.2178462 12.9669231,11.3718462 12.9648462,10.3306154 L12.9565385,7.06915385 C14.0815385,7.71784615 14.8416923,8.93215385 14.8465385,10.3250769 C14.8520769,12.4103077 13.1725385,14.1002308 11.088,14.1057692 L11.088,14.1057692 Z M29.8419231,14.1057692 C27.765,14.1085385 26.0695385,12.4234615 26.0667692,10.3416923 C26.0619231,8.94876923 26.8213846,7.73446154 27.9463846,7.07746154 L27.9519231,10.3389231 C27.9546923,11.3801538 28.8013846,12.2206154 29.8370769,12.2178462 C30.8803846,12.2178462 31.7187692,11.3718462 31.7187692,10.3306154 L31.7139231,7.06915385 C32.8437692,7.71784615 33.5983846,8.93215385 33.6039231,10.3250769 C33.6066923,12.4103077 31.9243846,14.1002308 29.8419231,14.1057692 L29.8419231,14.1057692 Z" id="Fill-2" sketch:type="MSShapeGroup"></path>
            </g>
        </g>
    </g>
</svg>