<?xml version="1.0" encoding="UTF-8" standalone="no"?>
<svg width="51px" height="45px" viewBox="0 0 51 45" version="1.1" xmlns="http://www.w3.org/2000/svg" xmlns:xlink="http://www.w3.org/1999/xlink" xmlns:sketch="http://www.bohemiancoding.com/sketch/ns">
    <!-- Generator: Sketch 3.4.4 (17249) - http://www.bohemiancoding.com/sketch -->
    <title>caution</title>
    <desc>Created with Sketch.</desc>
    <defs></defs>
    <g id="Page-1" stroke="none" stroke-width="1" fill="none" fill-rule="evenodd" sketch:type="MSPage">
        <g id="Artboard-3" sketch:type="MSArtboardGroup" transform="translate(-58.000000, -150.000000)" fill="#FFFFFF">
            <g id="caution" sketch:type="MSLayerGroup" transform="translate(58.000000, 150.000000)">
                <path d="M49.7743902,39.8414634 L27.9329268,2.0304878 C26.7256098,-0.0548780488 23.7073171,-0.0548780488 22.5,2.0304878 L0.658536585,39.8414634 C-0.548780488,41.9268293 0.932926829,44.5609756 3.34756098,44.5609756 L47.0304878,44.5609756 C49.5,44.5609756 50.9817073,41.9268293 49.7743902,39.8414634 L49.7743902,39.8414634 Z M24.5304878,13.6097561 C25.847561,13.2804878 27.1646341,13.9390244 27.7682927,15.1463415 C27.9878049,15.5853659 28.0426829,16.0792683 27.9878049,16.5182927 C27.8780488,17.8902439 27.8231707,19.2621951 27.7682927,20.6890244 C27.6585366,22.8292683 27.4939024,25.0243902 27.3841463,27.1646341 C27.3292683,27.8231707 27.3292683,28.4817073 27.2743902,29.195122 C27.2195122,30.347561 26.3414634,31.2256098 25.1890244,31.2256098 C24.0914634,31.2256098 23.1585366,30.347561 23.1036585,29.25 C22.9390244,25.902439 22.7195122,22.554878 22.554878,19.2073171 C22.5,18.3292683 22.445122,17.3963415 22.3902439,16.5182927 C22.3902439,15.2012195 23.2682927,13.9390244 24.5304878,13.6097561 L24.5304878,13.6097561 Z M25.2439024,38.7439024 C23.7073171,38.7439024 22.5,37.4817073 22.5,35.945122 C22.5,34.4085366 23.7621951,33.1463415 25.2987805,33.1463415 C26.8353659,33.1463415 28.0426829,34.4085366 28.0426829,36 C27.9878049,37.4817073 26.7256098,38.7439024 25.2439024,38.7439024 L25.2439024,38.7439024 Z" id="Shape" sketch:type="MSShapeGroup"></path>
            </g>
        </g>
    </g>
</svg>