<?xml version="1.0" encoding="UTF-8" standalone="no"?>
<svg width="44px" height="45px" viewBox="0 0 44 45" version="1.1" xmlns="http://www.w3.org/2000/svg" xmlns:xlink="http://www.w3.org/1999/xlink" xmlns:sketch="http://www.bohemiancoding.com/sketch/ns">
    <!-- Generator: Sketch 3.4.4 (17249) - http://www.bohemiancoding.com/sketch -->
    <title>chemistry</title>
    <desc>Created with Sketch.</desc>
    <defs></defs>
    <g id="Page-1" stroke="none" stroke-width="1" fill="none" fill-rule="evenodd" sketch:type="MSPage">
        <g id="Artboard-3" sketch:type="MSArtboardGroup" transform="translate(-447.000000, -80.000000)" fill="#FFFFFF">
            <g id="chemistry" sketch:type="MSLayerGroup" transform="translate(447.000000, 80.000000)">
                <path d="M43.1328261,36.6593478 L28.8717391,15.8791304 L28.8717391,5.94065217 L32.1880435,5.94065217 L32.1880435,0.496956522 L11.9478261,0.496956522 L11.9478261,5.94065217 L15.2876087,5.94065217 L15.2876087,15.8791304 L1.00369565,36.6593478 C-0.0815217391,38.238913 -0.165652174,40.248913 0.781956522,41.9073913 C1.72956522,43.5632609 3.55630435,44.5923913 5.54869565,44.5923913 L38.5852174,44.5923913 C40.575,44.5923913 42.4017391,43.5632609 43.3519565,41.9073913 C44.3047826,40.2515217 44.2206522,38.2415217 43.1328261,36.6593478 L43.1328261,36.6593478 Z M41.3797826,40.8932609 C40.8247826,41.8636957 39.7545652,42.4676087 38.5878261,42.4676087 L5.55130435,42.4676087 C4.38456522,42.4676087 3.31695652,41.8636957 2.75869565,40.8958696 C2.20369565,39.9254348 2.25195652,38.7482609 2.88652174,37.8234783 L17.5323913,16.5130435 L17.5323913,5.94065217 L26.6217391,5.94065217 L26.6217391,16.5104348 L41.25,37.8182609 C41.8845652,38.7456522 41.9354348,39.9228261 41.3797826,40.8932609 L41.3797826,40.8932609 Z" id="Fill-1" sketch:type="MSShapeGroup"></path>
                <path d="M28.0767391,23.1952174 L16.0623913,23.1952174 L5.0876087,39.1708696 C4.97543478,39.333913 4.9676087,39.5380435 5.06478261,39.708913 C5.16130435,39.8771739 5.34978261,39.9841304 5.55130435,39.9841304 L38.5878261,39.9841304 C38.7913043,39.9841304 38.9778261,39.8791304 39.0743478,39.708913 C39.1708696,39.5380435 39.1636957,39.333913 39.0515217,39.1708696 L28.0767391,23.1952174 Z" id="Fill-2" sketch:type="MSShapeGroup"></path>
            </g>
        </g>
    </g>
</svg>