<?xml version="1.0" encoding="UTF-8" standalone="no"?>
<svg width="32px" height="45px" viewBox="0 0 32 45" version="1.1" xmlns="http://www.w3.org/2000/svg" xmlns:xlink="http://www.w3.org/1999/xlink" xmlns:sketch="http://www.bohemiancoding.com/sketch/ns">
    <!-- Generator: Sketch 3.4.4 (17249) - http://www.bohemiancoding.com/sketch -->
    <title>clipboard-check-x</title>
    <desc>Created with Sketch.</desc>
    <defs></defs>
    <g id="Page-1" stroke="none" stroke-width="1" fill="none" fill-rule="evenodd" sketch:type="MSPage">
        <g id="Artboard-3" sketch:type="MSArtboardGroup" transform="translate(-318.000000, -80.000000)" fill="#FFFFFF">
            <g id="clipboard-check-x" sketch:type="MSLayerGroup" transform="translate(318.000000, 80.000000)">
                <path d="M13.8092146,32.8436814 L21.9962922,26.0456999 L24.4374287,28.5354103 L13.7399079,39.2323387 L7.40930233,32.9017332 L10.7644581,29.5370996 L13.8092146,32.8436814 Z" id="Fill-1" sketch:type="MSShapeGroup"></path>
                <path d="M22.0241334,14.0017332 L19.4621545,11.4397543 L14.8600702,16.037692 L10.264502,11.4397543 L7.69837648,14.0017332 L12.2963142,18.601448 L7.69600702,23.2041246 L10.2621325,25.7655112 L14.8600702,21.165204 L19.4621545,25.7655112 L22.0241334,23.2041246 L17.4261957,18.601448 L22.0241334,14.0017332 Z" id="Fill-2" sketch:type="MSShapeGroup"></path>
                <path d="M24.9628565,4.26680562 L24.9628565,3.24201404 L19.8258666,3.24201404 C19.3632295,1.38613427 17.699276,0 15.695305,0 C13.6960728,0 12.0321194,1.38613427 11.5718517,3.24201404 L6.43249232,3.24201404 L6.43249232,4.26680562 L0.0645677929,4.26680562 L0.0645677929,44.4273804 L31.3331505,44.4273804 L31.3331505,4.26680562 L24.9628565,4.26680562 Z M15.7024133,2.06143045 C16.542387,2.06143045 17.2502633,2.54776218 17.6228609,3.24201404 L13.7748574,3.24201404 C14.147455,2.54776218 14.8529618,2.06143045 15.7024133,2.06143045 L15.7024133,2.06143045 Z M27.8897323,41.1302764 L3.50798596,41.1302764 L3.50798596,7.56450197 L6.43249232,7.56450197 L6.43249232,9.59809127 L24.9628565,9.59809127 L24.9628565,7.56450197 L27.8897323,7.56450197 L27.8897323,41.1302764 Z" id="Fill-3" sketch:type="MSShapeGroup"></path>
            </g>
        </g>
    </g>
</svg>