<?xml version="1.0" encoding="UTF-8" standalone="no"?>
<svg width="39px" height="45px" viewBox="0 0 39 45" version="1.1" xmlns="http://www.w3.org/2000/svg" xmlns:xlink="http://www.w3.org/1999/xlink" xmlns:sketch="http://www.bohemiancoding.com/sketch/ns">
    <!-- Generator: Sketch 3.4.4 (17249) - http://www.bohemiancoding.com/sketch -->
    <title>clipboard-person</title>
    <desc>Created with Sketch.</desc>
    <defs></defs>
    <g id="Page-1" stroke="none" stroke-width="1" fill="none" fill-rule="evenodd" sketch:type="MSPage">
        <g id="Artboard-3" sketch:type="MSArtboardGroup" transform="translate(-677.000000, -150.000000)" fill="#FFFFFF">
            <g id="clipboard-person" sketch:type="MSLayerGroup" transform="translate(677.000000, 150.000000)">
                <circle id="Oval" sketch:type="MSShapeGroup" cx="12.8571429" cy="16.875" r="2.94642857"></circle>
                <path d="M18.2967857,25.7142857 L7.4175,25.7142857 L7.4175,22.9944643 C7.4175,21.49875 8.64160714,20.2746429 10.1373214,20.2746429 L15.5769643,20.2746429 C17.0726786,20.2746429 18.2967857,21.49875 18.2967857,22.9944643 L18.2967857,25.7142857 L18.2967857,25.7142857 Z" id="Shape" sketch:type="MSShapeGroup"></path>
                <rect id="Rectangle-path" sketch:type="MSShapeGroup" x="21.9642857" y="12.8571429" width="10.1785714" height="2.67857143"></rect>
                <rect id="Rectangle-path" sketch:type="MSShapeGroup" x="21.9642857" y="18.2142857" width="10.1785714" height="2.67857143"></rect>
                <rect id="Rectangle-path" sketch:type="MSShapeGroup" x="21.9642857" y="23.5714286" width="10.1785714" height="2.67857143"></rect>
                <rect id="Rectangle-path" sketch:type="MSShapeGroup" x="6.42857143" y="28.9285714" width="25.7142857" height="2.67857143"></rect>
                <rect id="Rectangle-path" sketch:type="MSShapeGroup" x="6.42857143" y="34.2857143" width="25.7142857" height="2.67857143"></rect>
                <path d="M35.3571429,2.67857143 L28.9285714,2.67857143 C28.9285714,1.20160714 27.7269643,0 26.25,0 L12.3214286,0 C10.8444643,0 9.64285714,1.20160714 9.64285714,2.67857143 L3.21428571,2.67857143 C1.44160714,2.67857143 0,4.12017857 0,5.89285714 L0,41.7857143 C0,43.5583929 1.44160714,45 3.21428571,45 L35.3571429,45 C37.1298214,45 38.5714286,43.5583929 38.5714286,41.7857143 L38.5714286,5.89285714 C38.5714286,4.12017857 37.1298214,2.67857143 35.3571429,2.67857143 L35.3571429,2.67857143 Z M12.8571429,3.21428571 L25.7142857,3.21428571 L25.7142857,5.35714286 L12.8571429,5.35714286 L12.8571429,3.21428571 L12.8571429,3.21428571 Z M35.3571429,41.7857143 L3.21428571,41.7857143 L3.21428571,5.89285714 L9.64285714,5.89285714 C9.64285714,7.36982143 10.8444643,8.57142857 12.3214286,8.57142857 L26.25,8.57142857 C27.7269643,8.57142857 28.9285714,7.36982143 28.9285714,5.89285714 L35.3571429,5.89285714 L35.3571429,41.7857143 L35.3571429,41.7857143 Z" id="Shape" sketch:type="MSShapeGroup"></path>
            </g>
        </g>
    </g>
</svg>