<?xml version="1.0" encoding="UTF-8" standalone="no"?>
<svg width="35px" height="45px" viewBox="0 0 35 45" version="1.1" xmlns="http://www.w3.org/2000/svg" xmlns:xlink="http://www.w3.org/1999/xlink" xmlns:sketch="http://www.bohemiancoding.com/sketch/ns">
    <!-- Generator: Sketch 3.4.4 (17249) - http://www.bohemiancoding.com/sketch -->
    <title>clipboard-checklist</title>
    <desc>Created with Sketch.</desc>
    <defs></defs>
    <g id="Page-1" stroke="none" stroke-width="1" fill="none" fill-rule="evenodd" sketch:type="MSPage">
        <g id="Artboard-3" sketch:type="MSArtboardGroup" transform="translate(-260.000000, -80.000000)" fill="#FFFFFF">
            <g id="clipboard-checklist" sketch:type="MSLayerGroup" transform="translate(260.000000, 80.000000)">
                <path d="M33.75,3.75 L28.5315,3.75 C28.0155,2.2955 26.6295,1.25 25,1.25 L22.7815,1.25 C22.0775,0.465 21.0665,0 20.0005,0 L15.0005,0 C13.9345,0 12.9235,0.4655 12.219,1.25 L10,1.25 C8.3705,1.25 6.985,2.296 6.4685,3.75 L1.25,3.75 C0.5595,3.75 0,4.3095 0,5 L0,43.75 C0,44.4405 0.5595,45 1.25,45 L33.75,45 C34.4405,45 35,44.4405 35,43.75 L35,5 C35,4.3095 34.4405,3.75 33.75,3.75 L33.75,3.75 Z M8.75,5 C8.75,4.311 9.3105,3.75 10,3.75 L12.847,3.75 C13.292,3.75 13.7035,3.5135 13.9275,3.1285 C14.1565,2.735 14.5575,2.5 15.0005,2.5 L20.0005,2.5 C20.4435,2.5 20.8445,2.735 21.0735,3.1285 C21.2975,3.5135 21.709,3.75 22.154,3.75 L25,3.75 C25.6895,3.75 26.25,4.311 26.25,5 C26.25,5.689 25.6895,6.25 25,6.25 L10,6.25 C9.3105,6.25 8.75,5.689 8.75,5 L8.75,5 L8.75,5 Z M32.5,42.5 L2.5,42.5 L2.5,6.25 L6.469,6.25 C6.9855,7.704 8.3715,8.75 10.0005,8.75 L25.0005,8.75 C26.6295,8.75 28.015,7.704 28.532,6.25 L32.5,6.25 L32.5,42.5 L32.5,42.5 Z" id="Shape" sketch:type="MSShapeGroup"></path>
                <path d="M13.75,13.75 C13.75,14.4405 14.3095,15 15,15 L28.75,15 C29.4405,15 30,14.4405 30,13.75 C30,13.0595 29.4405,12.5 28.75,12.5 L15,12.5 C14.3095,12.5 13.75,13.0595 13.75,13.75 L13.75,13.75 Z" id="Shape" sketch:type="MSShapeGroup"></path>
                <path d="M15,20 L26.25,20 C26.9405,20 27.5,19.4405 27.5,18.75 C27.5,18.0595 26.9405,17.5 26.25,17.5 L15,17.5 C14.3095,17.5 13.75,18.0595 13.75,18.75 C13.75,19.4405 14.3095,20 15,20 L15,20 Z" id="Shape" sketch:type="MSShapeGroup"></path>
                <path d="M28.75,22.5 L15,22.5 C14.3095,22.5 13.75,23.0595 13.75,23.75 C13.75,24.4405 14.3095,25 15,25 L28.75,25 C29.4405,25 30,24.4405 30,23.75 C30,23.0595 29.4405,22.5 28.75,22.5 L28.75,22.5 Z" id="Shape" sketch:type="MSShapeGroup"></path>
                <path d="M15,30 L26.25,30 C26.9405,30 27.5,29.4405 27.5,28.75 C27.5,28.0595 26.9405,27.5 26.25,27.5 L15,27.5 C14.3095,27.5 13.75,28.0595 13.75,28.75 C13.75,29.4405 14.3095,30 15,30 L15,30 Z" id="Shape" sketch:type="MSShapeGroup"></path>
                <path d="M28.75,32.5 L15,32.5 C14.3095,32.5 13.75,33.0595 13.75,33.75 C13.75,34.4405 14.3095,35 15,35 L28.75,35 C29.4405,35 30,34.4405 30,33.75 C30,33.0595 29.4405,32.5 28.75,32.5 L28.75,32.5 Z" id="Shape" sketch:type="MSShapeGroup"></path>
                <path d="M26.25,37.5 L15,37.5 C14.3095,37.5 13.75,38.0595 13.75,38.75 C13.75,39.4405 14.3095,40 15,40 L26.25,40 C26.9405,40 27.5,39.4405 27.5,38.75 C27.5,38.0595 26.9405,37.5 26.25,37.5 L26.25,37.5 Z" id="Shape" sketch:type="MSShapeGroup"></path>
                <path d="M10.366,12.866 L7.5,15.732 L5.884,14.116 C5.3955,13.6275 4.6045,13.6275 4.1165,14.116 C3.628,14.604 3.628,15.3955 4.1165,15.8835 L6.6165,18.3835 C6.8605,18.628 7.18,18.75 7.5,18.75 C7.82,18.75 8.1395,18.628 8.384,18.384 L12.134,14.634 C12.6225,14.146 12.6225,13.3545 12.134,12.8665 C11.6455,12.378 10.8545,12.378 10.366,12.866 L10.366,12.866 Z" id="Shape" sketch:type="MSShapeGroup"></path>
                <path d="M10.366,32.866 L7.5,35.7325 L5.884,34.1165 C5.3955,33.628 4.6045,33.628 4.1165,34.1165 C3.6285,34.605 3.628,35.396 4.1165,35.884 L6.6165,38.384 C6.8605,38.628 7.18,38.75 7.5,38.75 C7.82,38.75 8.1395,38.628 8.384,38.384 L12.134,34.634 C12.6225,34.1455 12.6225,33.3545 12.134,32.8665 C11.6455,32.3785 10.8545,32.378 10.366,32.866 L10.366,32.866 Z" id="Shape" sketch:type="MSShapeGroup"></path>
                <path d="M4.616,29.634 C4.8605,29.878 5.18,30 5.5,30 C5.82,30 6.1395,29.878 6.384,29.634 L8,28.0175 L9.616,29.6335 C9.8605,29.878 10.18,30 10.5,30 C10.82,30 11.1395,29.878 11.384,29.634 C11.8725,29.1455 11.8725,28.3545 11.384,27.8665 L9.7675,26.25 L11.3835,24.634 C11.872,24.1455 11.872,23.3545 11.3835,22.8665 C10.895,22.3785 10.104,22.378 9.616,22.8665 L8,24.4825 L6.384,22.8665 C5.8955,22.378 5.1045,22.378 4.6165,22.8665 C4.1285,23.355 4.128,24.146 4.6165,24.634 L6.2325,26.25 L4.6165,27.866 C4.128,28.3545 4.128,29.1455 4.616,29.634 L4.616,29.634 Z" id="Shape" sketch:type="MSShapeGroup"></path>
            </g>
        </g>
    </g>
</svg>