<?xml version="1.0" encoding="UTF-8" standalone="no"?>
<svg width="45px" height="45px" viewBox="0 0 45 45" version="1.1" xmlns="http://www.w3.org/2000/svg" xmlns:xlink="http://www.w3.org/1999/xlink" xmlns:sketch="http://www.bohemiancoding.com/sketch/ns">
    <!-- Generator: Sketch 3.4.4 (17249) - http://www.bohemiancoding.com/sketch -->
    <title>enlarge</title>
    <desc>Created with Sketch.</desc>
    <defs></defs>
    <g id="Page-1" stroke="none" stroke-width="1" fill="none" fill-rule="evenodd" sketch:type="MSPage">
        <g id="SVG" sketch:type="MSArtboardGroup" transform="translate(-58.000000, -885.000000)" fill="#FFFFFF">
            <g id="enlarge" sketch:type="MSLayerGroup" transform="translate(57.000000, 885.000000)">
                <path d="M33.5622193,28.3369417 C39.3041873,20.259756 37.4081978,9.06054393 29.3340428,3.31752748 C21.2574878,-2.42008857 10.0591501,-0.52875142 4.31898208,7.54843428 C-1.42058596,15.6232198 0.470603508,26.8224319 8.54955852,32.5630482 C14.7721239,36.9883691 23.1132774,36.9883691 29.3364428,32.5630482 L40.8953784,44.1228864 C42.0629719,45.2923712 43.9565614,45.2923712 45.1211549,44.1228864 C46.2929484,42.9558018 46.2929484,41.0644646 45.1211549,39.89678 L33.5622193,28.3369417 Z M19.003348,31 C11.8213406,31 6,25.1761607 6,18.0021306 C6,10.8207956 11.8237758,5 19.003348,5 C26.1786586,5 31.9999992,10.8207956 31.9999992,18.0021306 C32.0024344,25.1785957 26.180485,31 19.003348,31 L19.003348,31 Z" id="Fill-1" sketch:type="MSShapeGroup"></path>
                <path d="M20.761733,9 L16.2400361,9 L16.2400361,15.2404914 L10,15.2404914 L10,19.7618684 L16.2400361,19.7618684 L16.2400361,26 L20.761733,26 L20.761733,19.7618684 L27,19.7618684 L27,15.2404914 L20.761733,15.2404914 L20.761733,9 Z" id="Fill-2" sketch:type="MSShapeGroup"></path>
            </g>
        </g>
    </g>
</svg>