<?xml version="1.0" encoding="UTF-8" standalone="no"?>
<svg width="44px" height="45px" viewBox="0 0 44 45" version="1.1" xmlns="http://www.w3.org/2000/svg" xmlns:xlink="http://www.w3.org/1999/xlink" xmlns:sketch="http://www.bohemiancoding.com/sketch/ns">
    <!-- Generator: Sketch 3.4.4 (17249) - http://www.bohemiancoding.com/sketch -->
    <title>filter</title>
    <desc>Created with Sketch.</desc>
    <defs></defs>
    <g id="Page-1" stroke="none" stroke-width="1" fill="none" fill-rule="evenodd" sketch:type="MSPage">
        <g id="SVG" sketch:type="MSArtboardGroup" transform="translate(-218.000000, -750.000000)" fill="#FFFFFF">
            <g id="filter" sketch:type="MSLayerGroup" transform="translate(218.000000, 750.000000)">
                <path d="M36.2298462,42.174 L40.0943077,42.174 C41.8250769,42.174 43.2664615,40.7326154 43.2664615,39.0018462 C43.2664615,37.2710769 41.8250769,35.8296923 40.0943077,35.8296923 L36.2298462,35.8296923 C36.8058462,36.7518462 37.152,37.8498462 37.152,39.0018462 C37.152,40.1566154 36.8086154,41.2490769 36.2298462,42.174 L36.2298462,42.174 Z" id="Fill-1" sketch:type="MSShapeGroup"></path>
                <path d="M21.8076923,35.7701538 L3.51830769,35.7701538 C1.78753846,35.7701538 0.346153846,37.2115385 0.346153846,38.9423077 C0.346153846,40.6730769 1.78753846,42.1144615 3.51830769,42.1144615 L21.8076923,42.1144615 C21.2316923,41.1923077 20.8855385,40.0943077 20.8855385,38.9423077 C20.8855385,37.7875385 21.2316923,36.6923077 21.8076923,35.7701538 L21.8076923,35.7701538 Z" id="Fill-2" sketch:type="MSShapeGroup"></path>
                <path d="M23.8846154,35.7701538 C23.3086154,36.6923077 22.9624615,37.7903077 22.9624615,38.9423077 C22.9624615,40.0970769 23.3086154,41.1923077 23.8846154,42.1144615 C24.9230769,43.7884615 26.8269231,44.9404615 28.9606154,44.9404615 C31.0943077,44.9404615 32.9981538,43.7856923 34.0366154,42.1144615 C34.6126154,41.1923077 34.9587692,40.0943077 34.9587692,38.9423077 C34.9587692,37.7875385 34.6126154,36.6923077 34.0366154,35.7701538 C32.9981538,34.0961538 31.0943077,32.9441538 28.9606154,32.9441538 C26.8836923,32.9413846 24.9798462,34.0961538 23.8846154,35.7701538 L23.8846154,35.7701538 Z" id="Fill-3" sketch:type="MSShapeGroup"></path>
                <path d="M23.4816923,25.9615385 L40.0970769,25.9615385 C41.8278462,25.9615385 43.2692308,24.5201538 43.2692308,22.7893846 C43.2692308,21.0586154 41.8278462,19.6172308 40.0970769,19.6172308 L23.4816923,19.6172308 C24.0576923,20.5393846 24.4038462,21.6373846 24.4038462,22.7893846 C24.4038462,23.9441538 24.0576923,25.0393846 23.4816923,25.9615385 L23.4816923,25.9615385 Z" id="Fill-4" sketch:type="MSShapeGroup"></path>
                <path d="M9.05676923,19.6144615 L3.51830769,19.6144615 C1.78753846,19.6144615 0.346153846,21.0558462 0.346153846,22.7866154 C0.346153846,24.5173846 1.78753846,25.9587692 3.51830769,25.9587692 L9.05676923,25.9587692 C8.48076923,25.0366154 8.13461538,23.9386154 8.13461538,22.7866154 C8.13461538,21.6318462 8.424,20.5393846 9.05676923,19.6144615 L9.05676923,19.6144615 Z" id="Fill-5" sketch:type="MSShapeGroup"></path>
                <path d="M11.1336923,19.6144615 C10.5576923,20.5366154 10.2115385,21.6346154 10.2115385,22.7866154 C10.2115385,23.9413846 10.5576923,25.0366154 11.1336923,25.9587692 C12.1721538,27.6327692 14.076,28.7847692 16.2096923,28.7847692 C18.3433846,28.7847692 20.2472308,27.63 21.2856923,25.9587692 C21.8616923,25.0366154 22.2078462,23.9386154 22.2078462,22.7866154 C22.2078462,21.6318462 21.8616923,20.5366154 21.2856923,19.6144615 C20.2472308,17.9404615 18.3433846,16.7884615 16.2096923,16.7884615 C14.076,16.7884615 12.2316923,17.8836923 11.1336923,19.6144615 L11.1336923,19.6144615 Z" id="Fill-6" sketch:type="MSShapeGroup"></path>
                <path d="M17.7701538,2.826 L3.51830769,2.826 C1.78753846,2.826 0.346153846,4.26738462 0.346153846,5.99815385 C0.346153846,7.72892308 1.78753846,9.17030769 3.51830769,9.17030769 L17.7701538,9.17030769 C17.1941538,8.24815385 16.848,7.15015385 16.848,5.99815385 C16.848,4.84338462 17.1913846,3.75092308 17.7701538,2.826 L17.7701538,2.826 Z" id="Fill-7" sketch:type="MSShapeGroup"></path>
                <path d="M32.2490769,9.22984615 L40.1538462,9.22984615 C41.8846154,9.22984615 43.326,7.78846154 43.326,6.05769231 C43.326,4.32692308 41.8846154,2.88553846 40.1538462,2.88553846 L32.2490769,2.88553846 C32.8250769,3.80769231 33.1712308,4.90569231 33.1712308,6.05769231 C33.1712308,7.21246154 32.8278462,8.30769231 32.2490769,9.22984615 L32.2490769,9.22984615 Z" id="Fill-8" sketch:type="MSShapeGroup"></path>
                <path d="M19.9038462,2.826 C19.3278462,3.74815385 18.9816923,4.84615385 18.9816923,5.99815385 C18.9816923,7.15292308 19.3278462,8.24815385 19.9038462,9.17030769 C20.9423077,10.8443077 22.8461538,11.9963077 24.9798462,11.9963077 C27.1135385,11.9963077 29.0173846,10.8415385 30.0558462,9.17030769 C30.6318462,8.24815385 30.978,7.15015385 30.978,5.99815385 C30.978,4.84338462 30.6318462,3.74815385 30.0558462,2.826 C29.0201538,1.15476923 27.1730769,0 24.9798462,0 C22.8461538,0 20.9423077,1.15476923 19.9038462,2.826 L19.9038462,2.826 Z" id="Fill-9" sketch:type="MSShapeGroup"></path>
            </g>
        </g>
    </g>
</svg>