<?xml version="1.0" encoding="UTF-8" standalone="no"?>
<svg width="58px" height="45px" viewBox="0 0 58 45" version="1.1" xmlns="http://www.w3.org/2000/svg" xmlns:xlink="http://www.w3.org/1999/xlink">
    <!-- Generator: Sketch 3.8.3 (29802) - http://www.bohemiancoding.com/sketch -->
    <title>flip-profile</title>
    <desc>Created with Sketch.</desc>
    <defs></defs>
    <g id="Page-1" stroke="none" stroke-width="1" fill="none" fill-rule="evenodd">
        <g id="SVG" transform="translate(-213.000000, -1020.000000)" fill="#FFFFFF">
            <g id="flip-profile" transform="translate(213.000000, 1020.000000)">
                <path d="M39.9222135,22.3455495 C36.4700954,21.4690412 33.6059106,20.1314289 33.6059106,20.1314289 C33.0400569,19.352995 32.9378746,17.7201323 32.9378746,17.7201323 C34.019261,16.5591567 34.4962829,15.1049847 34.699107,13.8752029 C34.7715075,13.9275778 34.8536641,13.9635213 34.9440364,13.9594135 C35.268555,13.9532517 35.7019311,13.4782838 36.1712508,11.679054 C36.7612379,9.41461243 36.2071943,8.96891281 35.6721493,8.97302065 C35.5494279,8.97302065 35.5294022,8.97096673 35.4210582,9.0033159 C35.4190043,8.95299497 37.0056538,3.66159574 33.1889658,1.33502321 C33.1889658,1.33502321 33.8585422,0.791762622 33.8087347,0.00922090181 C33.8087347,0.00922090181 32.0593124,0.207937205 30.3807501,0.212045035 C29.6182341,0.214098951 28.8700954,0.173534124 28.310917,0.0595418261 C28.0860133,0.0133287324 27.8595691,-0.0046430263 27.6346654,0.00100524071 C26.0603393,0.0415700674 24.5496847,1.26673053 24.2852431,2.45235312 C23.7214433,2.45029921 20.5943573,2.68906686 22.0947424,8.97507456 C22.0264497,8.98329022 21.9504549,8.97302065 21.8718926,8.97302065 C21.3347938,8.9668589 20.7771558,9.40845068 21.3686834,11.679054 C21.8421108,13.4921477 22.2790813,13.9594135 22.6041134,13.9594135 C22.7124574,13.9594135 22.8089915,13.9075521 22.8890942,13.8351516 C23.0878105,15.0746895 23.5648323,16.5488871 24.6600826,17.7242402 C24.6020595,17.7201323 24.5116872,19.1645482 24.0305576,19.9845739 C24.0105319,19.9948435 21.0580287,21.4710951 17.6177206,22.3455495 C15.3471173,22.9211593 14.9840877,25.3001067 15.0005191,26.8605688 C14.9984651,27.0649334 15.0046269,27.2595418 15.014383,27.4341246 C15.0123291,27.4341246 15.0102752,27.5085791 15.0123291,27.6369488 C15.0123291,27.752995 15.0123291,28.0379757 15.0246526,28.3912491 C19.1684266,30.3624943 23.8236256,31.4680142 28.7437796,31.4680142 C33.6783111,31.4680142 38.347374,30.3547921 42.5014176,28.3727639 C42.5137411,28.0297601 42.5137411,27.7550489 42.5137411,27.6390027 C42.5317129,27.3581298 42.541469,27.1132004 42.5394151,26.8508127 C42.5537925,25.2898371 42.188709,22.9211593 39.9222135,22.3455495 Z" id="patient"></path>
                <path d="M24.0789474,34.305 L22.4044737,35.9794737 L24.4271053,38.0028947 C12.1318421,37.2442105 2.76315789,33.3584211 2.76315789,28.6736842 C2.76315789,26.1576316 5.46473684,23.8721053 9.86842105,22.1763158 L9.86842105,19.8513158 C4.05552632,22.0192105 0.394736842,25.1676316 0.394736842,28.6736842 C0.394736842,34.6318421 10.9634211,39.5447368 24.7081579,40.3776316 L22.4044737,42.6805263 L24.0789474,44.3526316 L29.1023684,39.3284211 L24.0789474,34.305 Z" id="Fill-3"></path>
                <path d="M47.7631579,19.8481579 L47.7631579,22.1731579 C52.1636842,23.8689474 54.8684211,26.1544737 54.8684211,28.6705263 C54.8684211,33.315 45.6781579,37.1763158 33.5526316,37.9839474 L33.5526316,40.3460526 C46.9918421,39.4057895 57.2368421,34.5363158 57.2368421,28.6705263 C57.2368421,25.1644737 53.5760526,22.0160526 47.7631579,19.8481579 L47.7631579,19.8481579 Z" id="Fill-4"></path>
            </g>
        </g>
    </g>
</svg>