<?xml version="1.0" encoding="UTF-8" standalone="no"?>
<svg width="40px" height="45px" viewBox="0 0 40 45" version="1.1" xmlns="http://www.w3.org/2000/svg" xmlns:xlink="http://www.w3.org/1999/xlink">
    <!-- Generator: Sketch 3.7.2 (28276) - http://www.bohemiancoding.com/sketch -->
    <title>food</title>
    <desc>Created with Sketch.</desc>
    <defs></defs>
    <g id="Page-1" stroke="none" stroke-width="1" fill="none" fill-rule="evenodd">
        <g id="SVG" transform="translate(-1340.000000, -877.000000)" fill="#FFFFFF">
            <g id="food" transform="translate(1340.000000, 877.000000)">
                <path d="M3,42.2219589 C3,43.7567555 4.19348645,45 5.66628742,45 L8.33314371,45 C9.80651355,45 11,43.7567555 11,42.2219589 L11,20 L3,20 L3,42.2219589 Z" id="Fill-1"></path>
                <path d="M26,42.1425088 C26,43.7211996 27.1934865,45 28.6662874,45 L31.3331437,45 C32.8065135,45 34,43.7211996 34,42.1425088 L34,25 L26,25 L26,42.1425088 Z" id="Fill-2"></path>
                <path d="M12.5998208,0 C11.8250629,0 11.2002389,0.635271111 11.2002389,1.41681778 L11.2002389,14.1669689 L8.39988053,14.1669689 L8.39988053,1.41681778 C8.39988053,0.635271111 7.77445919,0 6.99970133,0 C6.22494347,0 5.59952212,0.635271111 5.59952212,1.41681778 L5.59952212,14.1669689 L2.79976106,14.1669689 L2.79976106,1.41681778 C2.79976106,0.635271111 2.17433972,0 1.39958186,0 C0.624823996,0 -1.69309011e-14,0.635271111 -1.69309011e-14,1.41681778 L-1.69309011e-14,15.5831822 C-1.69309011e-14,16.3695644 0.622434612,17 1.39958186,17 L12.5998208,17 C13.3721893,17 14,16.3695644 14,15.5831822 L14,1.41681778 C14,0.635271111 13.3745787,0 12.5998208,0 L12.5998208,0 Z" id="Fill-3"></path>
                <path d="M30,0 C24.4764111,0 20,5.79538667 20,12.9376533 C20,17.0322667 21.9645252,21.2029333 25.7143728,23 L34.2862367,23 C37.9025966,21.42864 40,17.0322667 40,12.9376533 C40,5.79538667 35.5241985,0 30,0 L30,0 Z" id="Fill-4"></path>
            </g>
        </g>
    </g>
</svg>