<?xml version="1.0" encoding="UTF-8" standalone="no"?>
<svg width="50px" height="45px" viewBox="0 0 50 45" version="1.1" xmlns="http://www.w3.org/2000/svg" xmlns:xlink="http://www.w3.org/1999/xlink" xmlns:sketch="http://www.bohemiancoding.com/sketch/ns">
    <!-- Generator: Sketch 3.4.4 (17249) - http://www.bohemiancoding.com/sketch -->
    <title>group</title>
    <desc>Created with Sketch.</desc>
    <defs></defs>
    <g id="Page-1" stroke="none" stroke-width="1" fill="none" fill-rule="evenodd" sketch:type="MSPage">
        <g id="Artboard-3" sketch:type="MSArtboardGroup" transform="translate(-1028.000000, -150.000000)" fill="#FFFFFF">
            <g id="group" sketch:type="MSLayerGroup" transform="translate(1028.000000, 150.000000)">
                <path d="M37.1777174,38.5166357 L37.1777174,38.6156548 C37.1788043,38.780289 37.1782609,39.1715933 37.1619565,39.6583378 C31.6163043,42.4744168 25.3836957,44.0563362 18.7951087,44.0563362 C12.2266304,44.0563362 6.01141304,42.4845573 0.47826087,39.6839873 C0.460869565,39.1817338 0.460869565,38.7773065 0.461413043,38.6120758 C0.460869565,38.4319327 0.461956522,38.3251591 0.461956522,38.3251591 L0.46576087,38.3263521 C0.452717391,38.0764183 0.445108696,37.8014316 0.44673913,37.5097428 C0.423913043,35.2919539 0.908695652,31.9127784 3.94021739,31.0937831 C8.5326087,29.851869 12.4722826,27.7551697 12.5,27.7402572 C12.8755435,27.0602466 13.0722826,26.0795997 13.1711957,25.3799046 C11.9994565,23.6935976 11.4548913,21.6708643 11.2130435,19.9338547 C10.7815217,19.8956787 10.211413,19.2216331 9.59945652,16.820122 C8.81358696,13.7374072 9.54782609,13.1188362 10.263587,13.1194327 C10.3108696,13.1194327 10.3581522,13.1224152 10.4048913,13.1271872 C9.85108696,11.4009146 9.83967391,9.70267762 10.2108696,8.13149523 C10.601087,6.28115058 11.5016304,4.80003977 12.5119565,3.65356575 C13.15,2.89958908 13.8733696,2.24045599 14.6402174,1.70062301 C15.2641304,1.21924708 15.9543478,0.807065217 16.7081522,0.524323966 L16.7092391,0.523727466 L16.7092391,0.523727466 C17.2978261,0.302425769 17.925,0.160458643 18.5891304,0.125265111 C18.8673913,0.0984225875 19.136413,0.0858960764 19.3967391,0.0858960764 C21.0538043,0.0858960764 22.3451087,0.597693531 23.3103261,1.2323701 C24.976087,2.2529825 25.6086957,3.6034597 25.6086957,3.6034597 C25.6086957,3.6034597 29.801087,3.93034199 27.9657609,13.6855117 L27.9657609,13.6855117 C28.5298913,13.9020414 28.9277174,14.7615986 28.273913,17.3247614 C27.6429348,19.8008351 27.0565217,20.4408802 26.6206522,20.4408802 C26.501087,20.4408802 26.3929348,20.3925636 26.2983696,20.3215801 C26.0396739,21.9345175 25.5119565,23.7448966 24.4711957,25.287447 C24.5755435,26.0634942 24.8048913,27.2481442 25.2831522,27.9490323 C25.2831522,27.9490323 29.1065217,29.8488865 33.7152174,31.0949761 C36.7396739,31.9127784 37.2293478,35.2776379 37.2092391,37.4948303 C37.2103261,37.8676432 37.1978261,38.21421 37.1777174,38.5166357 L37.1777174,38.5166357 Z M38.9173913,36.4431999 C41.8201087,36.1676166 47.4695652,35.3038839 49.5543478,32.681071 L49.5543478,29.6395148 C49.5543478,29.6395148 49.4663043,27.7617312 47.7923913,26.8974019 C46.1184783,26.0330726 45.2673913,25.860684 45.2086957,25.826087 C45.1581522,25.7962619 42.3548913,24.9880037 41.0690217,24.2203075 C40.7668478,24.0079533 40.5771739,23.8486877 40.5771739,23.8486877 L40.5771739,22.3824894 C44.9358696,22.4248409 46.2195652,20.3746686 46.2195652,20.3746686 C46.2195652,20.3746686 43.7288043,20.3323171 43.8831522,13.1170467 C44.0375,5.90177625 41.0065217,4.71056469 39.8771739,4.23873277 C36.5875,2.86558855 34.9342391,5.04937699 34.9342391,5.04937699 C31.1211957,4.66224814 30.0684783,9.23442471 30.5369565,14.4418743 C30.926087,18.7700822 29.1913043,20.0603128 28.5945652,20.3728791 C28.5576087,20.4337222 28.5206522,20.4921792 28.4836957,20.5482503 C30.3054348,22.461824 33.9646739,22.3407344 33.9646739,22.3407344 L33.9646739,23.652439 L33.963587,23.652439 L33.963587,23.8677757 C33.963587,23.8677757 33.773913,24.0264449 33.4717391,24.2393955 C32.1858696,25.0070917 29.3826087,25.8153499 29.3320652,25.845175 C29.2793478,25.876193 28.5853261,26.0205461 27.2336957,26.6743107 C28.7255435,27.3716198 31.313587,28.4823038 34.1298913,29.244035 C36.973913,30.0111347 38.6836957,32.6100875 38.9173913,36.4431999 L38.9173913,36.4431999 Z" id="Shape" sketch:type="MSShapeGroup"></path>
            </g>
        </g>
    </g>
</svg>