<?xml version="1.0" encoding="UTF-8" standalone="no"?>
<svg width="51px" height="45px" viewBox="0 0 51 45" version="1.1" xmlns="http://www.w3.org/2000/svg" xmlns:xlink="http://www.w3.org/1999/xlink" xmlns:sketch="http://www.bohemiancoding.com/sketch/ns">
    <!-- Generator: Sketch 3.4.4 (17249) - http://www.bohemiancoding.com/sketch -->
    <title>heart-monitor</title>
    <desc>Created with Sketch.</desc>
    <defs></defs>
    <g id="Page-1" stroke="none" stroke-width="1" fill="none" fill-rule="evenodd" sketch:type="MSPage">
        <g id="Artboard-3" sketch:type="MSArtboardGroup" transform="translate(-373.000000, -80.000000)" fill="#FFFFFF">
            <g id="heart-monitor" sketch:type="MSLayerGroup" transform="translate(373.000000, 80.000000)">
                <path d="M34.9893443,22.2432787 C37.3581148,17.9092623 46.9711475,11.9559836 46.9711475,6.16647541 C46.9711475,2.91614754 44.2881148,0.279590164 40.9802459,0.279590164 C37.6686885,0.279590164 34.9893443,2.91909836 34.9893443,6.16942623 C34.9893443,2.91909836 32.3063115,0.282540984 28.9984426,0.282540984 C25.6898361,0.282540984 23.0097541,2.91909836 23.0097541,6.16942623 C23.0097541,11.9559836 32.6235246,17.9092623 34.9893443,22.2432787 L34.9893443,22.2432787 Z" id="Fill-1" sketch:type="MSShapeGroup"></path>
                <path d="M23.5084426,26.2866393 C22.8231148,26.2866393 22.2292623,26.7477049 22.0647541,27.4020492 L19.8892623,36.1792623 L15.8606557,11.7258197 C15.7485246,11.0397541 15.157623,10.5270492 14.4516393,10.5004918 C13.762623,10.4805738 13.1171311,10.9386885 12.9504098,11.6129508 L9.31352459,26.2836885 L0.714836066,26.2836885 L0.714836066,29.1998361 L10.4835246,29.1998361 C11.1695902,29.1998361 11.7656557,28.7417213 11.9272131,28.087377 L14.1027049,19.3072131 L18.1313115,43.7606557 C18.2434426,44.4467213 18.8343443,44.9564754 19.5403279,44.9881967 L19.6008197,44.9881967 C20.2839344,44.9881967 20.8807377,44.5271311 21.0445082,43.8735246 L24.6813934,29.1998361 L50.2996721,29.1998361 L50.2996721,26.2836885 L23.5084426,26.2836885 L23.5084426,26.2866393 Z" id="Fill-2" sketch:type="MSShapeGroup"></path>
            </g>
        </g>
    </g>
</svg>