<?xml version="1.0" encoding="UTF-8" standalone="no"?>
<svg width="45px" height="45px" viewBox="0 0 45 45" version="1.1" xmlns="http://www.w3.org/2000/svg" xmlns:xlink="http://www.w3.org/1999/xlink" xmlns:sketch="http://www.bohemiancoding.com/sketch/ns">
    <!-- Generator: Sketch 3.4.4 (17249) - http://www.bohemiancoding.com/sketch -->
    <title>heart-monitor-note</title>
    <desc>Created with Sketch.</desc>
    <defs></defs>
    <g id="Page-1" stroke="none" stroke-width="1" fill="none" fill-rule="evenodd" sketch:type="MSPage">
        <g id="Artboard-3" sketch:type="MSArtboardGroup" transform="translate(-868.000000, -80.000000)" fill="#FFFFFF">
            <g id="heart-monitor-note" sketch:type="MSLayerGroup" transform="translate(868.000000, 80.000000)">
                <path d="M44.5314,10.6872 L44.5314,3.5628 C44.5314,1.875 43.125,0.4686 41.4372,0.4686 L3.5628,0.4686 C1.875,0.4686 0.4686,1.875 0.4686,3.5628 L0.4686,10.5936 C0.4686,10.875 0.6564,11.0628 0.9372,11.0628 L44.0628,11.0628 C44.3436,11.0628 44.5314,10.875 44.5314,10.6872 L44.5314,10.6872 Z M32.5314,4.4064 L38.625,4.4064 C39.375,4.4064 40.0314,5.0628 40.0314,5.8128 C40.0314,6.5628 39.375,7.2186 38.625,7.2186 L32.5314,7.2186 C31.7814,7.2186 31.125,6.5628 31.125,5.8128 C31.125,5.0628 31.7814,4.4064 32.5314,4.4064 L32.5314,4.4064 Z M6.375,4.4064 L17.5314,4.4064 C18.2814,4.4064 18.9372,5.0628 18.9372,5.8128 C18.9372,6.5628 18.2814,7.2186 17.5314,7.2186 L6.375,7.2186 C5.5314,7.2186 4.9686,6.5628 4.9686,5.8128 C4.9686,5.0628 5.5314,4.4064 6.375,4.4064 L6.375,4.4064 Z" id="Fill-1" sketch:type="MSShapeGroup"></path>
                <path d="M0.4686,14.3436 L0.4686,41.4372 C0.4686,43.125 1.875,44.5314 3.5628,44.5314 L41.3436,44.5314 C43.0314,44.5314 44.4372,43.125 44.4372,41.4372 L44.4372,13.875 L0.9372,13.875 C0.6564,13.875 0.4686,14.0628 0.4686,14.3436 L0.4686,14.3436 Z M38.625,32.0628 L30.0936,32.0628 C29.4372,32.0628 28.9686,31.6872 28.7814,31.0314 L28.5936,30.375 C28.5,30 27.9372,30 27.75,30.375 L25.3128,37.4064 C25.125,37.9686 24.5628,38.3436 24,38.3436 L23.9064,38.3436 C23.25,38.3436 22.7814,37.875 22.5936,37.2186 L19.7814,24.9372 C19.6872,24.5628 19.125,24.4686 18.9372,24.8436 L15.1872,33 C15,33.4686 14.5314,33.75 14.0628,33.8436 C13.5936,33.9372 13.125,33.6564 12.75,33.2814 L10.4064,30 C10.3128,29.9064 10.2186,29.8128 10.0314,29.8128 L6.375,29.8128 C5.625,29.8128 4.9686,29.1564 4.9686,28.4064 C4.9686,27.6564 5.625,27 6.375,27 L10.9686,27 C11.4372,27 11.8128,27.1872 12.0936,27.5628 L13.2186,29.0628 C13.4064,29.3436 13.7814,29.25 13.9686,28.9686 L18.6564,18.75 C18.9372,18.1872 19.5,17.9064 20.0628,17.9064 C20.625,18 21.1872,18.375 21.2814,19.0314 L23.9064,30.375 C24,30.75 24.5628,30.8436 24.75,30.375 L27,24 C27.1872,23.4372 27.75,23.0628 28.4064,23.0628 C29.0628,23.0628 29.5314,23.4372 29.7186,24.0936 L31.125,28.875 C31.2186,29.0628 31.3128,29.1564 31.5,29.1564 L38.625,29.1564 C39.375,29.1564 40.0314,29.8128 40.0314,30.5628 C40.0314,31.3128 39.4686,32.0628 38.625,32.0628 L38.625,32.0628 Z" id="Fill-2" sketch:type="MSShapeGroup"></path>
            </g>
        </g>
    </g>
</svg>