<?xml version="1.0" encoding="UTF-8" standalone="no"?>
<svg width="30px" height="48px" viewBox="0 0 30 48" version="1.1" xmlns="http://www.w3.org/2000/svg" xmlns:xlink="http://www.w3.org/1999/xlink" xmlns:sketch="http://www.bohemiancoding.com/sketch/ns">
    <!-- Generator: Sketch 3.4.4 (17249) - http://www.bohemiancoding.com/sketch -->
    <title>map</title>
    <desc>Created with Sketch.</desc>
    <defs></defs>
    <g id="Page-1" stroke="none" stroke-width="1" fill="none" fill-rule="evenodd" sketch:type="MSPage">
        <g id="SVG" sketch:type="MSArtboardGroup" transform="translate(-705.000000, -750.000000)" fill="#FFFFFF">
            <g id="map" sketch:type="MSLayerGroup" transform="translate(705.000000, 750.000000)">
                <path d="M15,0 C6.788,0 0.106,6.681 0.106,14.893 C0.106,22.741 13.557,46.488 14.13,47.495 C14.309,47.807 14.641,48 15,48 C15.359,48 15.691,47.807 15.869,47.494 C16.442,46.487 29.893,22.74 29.893,14.892 C29.894,6.681 23.212,0 15,0 L15,0 Z M15,24.547 C9.677,24.547 5.346,20.216 5.346,14.893 C5.346,9.57 9.677,5.238 15,5.238 C20.323,5.238 24.654,9.569 24.654,14.892 C24.654,20.215 20.323,24.547 15,24.547 L15,24.547 Z" id="Shape" sketch:type="MSShapeGroup"></path>
            </g>
        </g>
    </g>
</svg>