<?xml version="1.0" encoding="UTF-8" standalone="no"?>
<svg width="38px" height="45px" viewBox="0 0 38 45" version="1.1" xmlns="http://www.w3.org/2000/svg" xmlns:xlink="http://www.w3.org/1999/xlink" xmlns:sketch="http://www.bohemiancoding.com/sketch/ns">
    <!-- Generator: Sketch 3.4.4 (17249) - http://www.bohemiancoding.com/sketch -->
    <title>medicine</title>
    <desc>Created with Sketch.</desc>
    <defs></defs>
    <g id="Page-1" stroke="none" stroke-width="1" fill="none" fill-rule="evenodd" sketch:type="MSPage">
        <g id="Artboard-3" sketch:type="MSArtboardGroup" transform="translate(-645.000000, -80.000000)" fill="#FFFFFF">
            <g id="medicine" sketch:type="MSLayerGroup" transform="translate(645.000000, 80.000000)">
                <path d="M10.0758333,38.5790179 C10.0758333,34.0196429 13.5379167,30.3107143 17.7929167,30.3107143 L29.7791667,30.3107143 L29.7791667,19.225 C29.7791667,15.4700893 27.6595833,11.7558036 24.95375,10.7691964 L22.2204167,9.77276786 L22.2204167,7.71741071 L23.1516667,7.71741071 L23.1516667,2.20491071 C23.1516667,0.992410714 22.22625,0 21.0941667,0 L8.74625,0 C7.61416667,0 6.68833333,0.992410714 6.68833333,2.20491071 L6.68833333,7.71741071 L7.55791667,7.71741071 L7.55791667,9.77276786 L4.825,10.7691964 C2.11916667,11.7558036 0,15.4696429 0,19.225 L0,37.4736607 C0,41.4254464 3.00041667,44.6401786 6.68833333,44.6401786 L12.5616667,44.6401786 C11.0375,43.1285714 10.0758333,40.9745536 10.0758333,38.5790179 L10.0758333,38.5790179 Z M3.08666667,23.3352679 L3.08666667,19.2254464 C3.08666667,16.6741071 4.52666667,14.371875 5.81958333,13.9 L9.59833333,12.521875 C9.61458333,12.5160714 9.62833333,12.5058036 9.64458333,12.4991071 C9.69833333,12.4772321 9.74916667,12.4508929 9.80041667,12.4227679 C9.84166667,12.4004464 9.88208333,12.3785714 9.92083333,12.3526786 C9.965,12.3232143 10.005,12.2892857 10.0466667,12.2553571 C10.0845833,12.2232143 10.1229167,12.1910714 10.1591667,12.1553571 C10.1954167,12.1183036 10.2270833,12.0785714 10.2595833,12.0379464 C10.2916667,11.9986607 10.3241667,11.9598214 10.3529167,11.9174107 C10.3820833,11.8723214 10.4075,11.8254464 10.4329167,11.778125 C10.4566667,11.7339286 10.4804167,11.6910714 10.5008333,11.6446429 C10.5220833,11.5950893 10.5379167,11.54375 10.5545833,11.4919643 C10.5704167,11.4415179 10.5870833,11.3910714 10.59875,11.3392857 C10.6091667,11.2901786 10.6158333,11.2397321 10.6225,11.1901786 C10.6304167,11.1299107 10.6375,11.0714286 10.6395833,11.0107143 C10.64,10.9919643 10.6445833,10.975 10.6445833,10.9558036 L10.6445833,7.71696429 L19.13375,7.71696429 L19.13375,10.9558036 C19.13375,11.6825893 19.57375,12.2924107 20.1816667,12.5147321 L20.18,12.5214286 L23.9591667,13.8995536 C25.2520833,14.3714286 26.6925,16.6741071 26.6925,19.225 L26.6925,22.3758929 C24.3308333,21.8084821 19.8766667,21.1825893 15.2783333,22.8883929 C9.64166667,24.9803571 5.10583333,24.0044643 3.08666667,23.3352679 L3.08666667,23.3352679 Z" id="Shape" sketch:type="MSShapeGroup"></path>
                <path d="M31.68375,32.515625 L24.7383333,32.515625 L17.7929167,32.515625 C14.6670833,32.515625 12.13375,35.2303571 12.13375,38.5790179 C12.13375,41.928125 14.6670833,44.6428571 17.7929167,44.6428571 L24.7383333,44.6428571 L31.68375,44.6428571 C34.8095833,44.6428571 37.3433333,41.928125 37.3433333,38.5790179 C37.3433333,35.2303571 34.8095833,32.515625 31.68375,32.515625 L31.68375,32.515625 Z M17.7929167,41.3357143 C16.375,41.3357143 15.2204167,40.0986607 15.2204167,38.5790179 C15.2204167,37.0598214 16.375,35.8227679 17.7929167,35.8227679 L24.7383333,35.8227679 L24.7383333,41.3357143 L17.7929167,41.3357143 L17.7929167,41.3357143 Z" id="Shape" sketch:type="MSShapeGroup"></path>
            </g>
        </g>
    </g>
</svg>