<?xml version="1.0" encoding="UTF-8" standalone="no"?>
<svg width="24px" height="45px" viewBox="0 0 24 45" version="1.1" xmlns="http://www.w3.org/2000/svg" xmlns:xlink="http://www.w3.org/1999/xlink" xmlns:sketch="http://www.bohemiancoding.com/sketch/ns">
    <!-- Generator: Sketch 3.4.4 (17249) - http://www.bohemiancoding.com/sketch -->
    <title>microphone</title>
    <desc>Created with Sketch.</desc>
    <defs></defs>
    <g id="Page-1" stroke="none" stroke-width="1" fill="none" fill-rule="evenodd" sketch:type="MSPage">
        <g id="Artboard-3" sketch:type="MSArtboardGroup" transform="translate(-1167.000000, -150.000000)" fill="#FFFFFF">
            <g id="microphone" sketch:type="MSLayerGroup" transform="translate(1166.000000, 150.000000)">
                <path d="M12.9117647,0 C9.20588235,0 6.29411765,3.04719562 6.29411765,6.9254446 L6.29411765,20.7763338 C6.29411765,24.6545828 9.20588235,27.7017784 12.9117647,27.7017784 C16.6176471,27.7017784 19.5294118,24.6545828 19.5294118,20.7763338 L19.5294118,6.9254446 C19.5294118,3.04719562 16.6176471,0 12.9117647,0 L12.9117647,0 Z M1.99264706,17.1418605 C1.3928236,17.3035918 0.980410988,17.8790513 1,18.5269494 L1,20.779104 C1,27.1560534 5.66676471,32.369528 11.5882353,33.0731532 L11.5882353,41.5582079 L6.29411765,41.5582079 C4.70588235,41.5582079 3.64705882,42.6662791 3.64705882,44.3283858 L22.1764706,44.3283858 C22.1764706,42.6662791 21.1176471,41.5582079 19.5294118,41.5582079 L14.2352941,41.5582079 L14.2352941,33.0731532 C20.1567647,32.369528 24.8235294,27.1560534 24.8235294,20.779104 L24.8235294,18.5269494 C24.8235294,17.7619859 24.2309651,17.1418605 23.5,17.1418605 C22.7690349,17.1418605 22.1764706,17.7619859 22.1764706,18.5269494 L22.1764706,20.779104 C22.1764706,26.1172367 18.0126471,30.4747264 12.9117647,30.4747264 C7.81088235,30.4747264 3.64705882,26.1172367 3.64705882,20.779104 L3.64705882,18.5269494 C3.65010429,18.127263 3.48801355,17.7456846 3.20244008,17.4802707 C2.91686661,17.2148569 2.53565394,17.0914857 2.15676471,17.1418605 C2.10123174,17.1381919 2.04553297,17.1381919 1.99,17.1418605 L1.99264706,17.1418605 Z" id="Shape" sketch:type="MSShapeGroup"></path>
            </g>
        </g>
    </g>
</svg>