<?xml version="1.0" encoding="UTF-8" standalone="no"?>
<svg width="45px" height="45px" viewBox="0 0 45 45" version="1.1" xmlns="http://www.w3.org/2000/svg" xmlns:xlink="http://www.w3.org/1999/xlink">
    <!-- Generator: Sketch 3.7.2 (28276) - http://www.bohemiancoding.com/sketch -->
    <title>nature</title>
    <desc>Created with Sketch.</desc>
    <defs></defs>
    <g id="Page-1" stroke="none" stroke-width="1" fill="none" fill-rule="evenodd">
        <g id="SVG" transform="translate(-58.000000, -1020.000000)" fill="#FFFFFF">
            <g id="nature" transform="translate(58.000000, 1020.000000)">
                <path d="M30.5762727,18.3739091 C30.5762727,18.3739091 31.6726364,6.552 20.3236364,0.0859090909 C20.3236364,0.0859090909 8.64490909,9.837 10.8057273,18.0098182 C10.8057273,18.0098182 16.8619091,19.9300909 18.7797273,25.4470909 C18.8083636,25.5264545 18.8345455,25.6099091 18.8631818,25.6892727 C18.8631818,25.6892727 18.5048182,19.278 21.4265455,11.79 C21.4265455,11.79 19.3074545,25.92 21.0616364,30.4453636 C21.0583636,30.4420909 22.3723636,21.4388182 30.5762727,18.3739091 L30.5762727,18.3739091 Z" id="Fill-1"></path>
                <path d="M8.60972727,24.2255455 C8.60972727,24.2255455 14.6986364,26.946 18.8631818,31.9058182 C19.1380909,32.2347273 19.2019091,18.5530909 0.556363636,16.9101818 C0.556363636,16.9101818 -3.03627273,40.9254545 20.3269091,39.222 C20.3269091,39.222 16.8365455,30.4101818 8.60972727,24.2255455 L8.60972727,24.2255455 Z" id="Fill-2"></path>
                <path d="M43.5199091,16.8619091 C43.5199091,16.8619091 21.2342727,16.3988182 22.1228182,38.2369091 C22.1228182,38.2369091 27.8247273,28.5627273 36.8345455,24.8776364 C36.8345455,24.8776364 22.9663636,33.1044545 23.4621818,44.9165455 C23.4589091,44.9165455 50.3950909,41.4016364 43.5199091,16.8619091 L43.5199091,16.8619091 Z" id="Fill-3"></path>
            </g>
        </g>
    </g>
</svg>