<?xml version="1.0" encoding="UTF-8" standalone="no"?>
<svg width="40px" height="45px" viewBox="0 0 40 45" version="1.1" xmlns="http://www.w3.org/2000/svg" xmlns:xlink="http://www.w3.org/1999/xlink" xmlns:sketch="http://www.bohemiancoding.com/sketch/ns">
    <!-- Generator: Sketch 3.4.4 (17249) - http://www.bohemiancoding.com/sketch -->
    <title>note</title>
    <desc>Created with Sketch.</desc>
    <defs></defs>
    <g id="Page-1" stroke="none" stroke-width="1" fill="none" fill-rule="evenodd" sketch:type="MSPage">
        <g id="Artboard-3" sketch:type="MSArtboardGroup" transform="translate(-582.000000, -80.000000)" fill="#FFFFFF">
            <g id="note" sketch:type="MSLayerGroup" transform="translate(582.000000, 80.000000)">
                <path d="M36.5671438,0 L2.81285722,0 C1.25945682,0 0,1.23078746 0,2.75170815 L0,41.2756222 C0,42.7966289 1.25945682,44.0273304 2.81285722,44.0273304 L28.1285722,44.0273304 L39.3800011,33.0204978 L39.3800011,2.75170815 C39.3800011,1.23078746 38.1219507,0 36.5671438,0 L36.5671438,0 Z M28.1285722,40.1362431 L28.1285722,33.0204978 L35.4024452,33.0204978 L28.1285722,40.1362431 L28.1285722,40.1362431 Z M36.5671438,30.2687896 L28.1285722,30.2687896 C26.5737654,30.2687896 25.315715,31.4995771 25.315715,33.0204978 L25.315715,41.2756222 L2.81285722,41.2756222 L2.81285722,2.75170815 L36.5671438,2.75170815 L36.5671438,30.2687896 L36.5671438,30.2687896 Z M5.62571444,9.63097852 C5.62571444,8.87047518 6.25473963,8.25512445 7.03214305,8.25512445 L32.347858,8.25512445 C33.1252614,8.25512445 33.7542866,8.87047518 33.7542866,9.63097852 C33.7542866,10.3914819 33.1252614,11.0068326 32.347858,11.0068326 L7.03214305,11.0068326 C6.25473963,11.0068326 5.62571444,10.3914819 5.62571444,9.63097852 L5.62571444,9.63097852 Z M5.62571444,17.886103 C5.62571444,17.1255996 6.25473963,16.5102489 7.03214305,16.5102489 L32.347858,16.5102489 C33.1252614,16.5102489 33.7542866,17.1255996 33.7542866,17.886103 C33.7542866,18.6466063 33.1252614,19.261957 32.347858,19.261957 L7.03214305,19.261957 C6.25473963,19.261957 5.62571444,18.6466063 5.62571444,17.886103 L5.62571444,17.886103 Z M5.62571444,26.1412274 C5.62571444,25.3807241 6.25473963,24.7653733 7.03214305,24.7653733 L32.347858,24.7653733 C33.1252614,24.7653733 33.7542866,25.3807241 33.7542866,26.1412274 C33.7542866,26.9017308 33.1252614,27.5170815 32.347858,27.5170815 L7.03214305,27.5170815 C6.25473963,27.5170815 5.62571444,26.9017308 5.62571444,26.1412274 L5.62571444,26.1412274 Z" id="Shape" sketch:type="MSShapeGroup"></path>
            </g>
        </g>
    </g>
</svg>