<?xml version="1.0" encoding="UTF-8" standalone="no"?>
<svg width="36px" height="45px" viewBox="0 0 36 45" version="1.1" xmlns="http://www.w3.org/2000/svg" xmlns:xlink="http://www.w3.org/1999/xlink" xmlns:sketch="http://www.bohemiancoding.com/sketch/ns">
    <!-- Generator: Sketch 3.4.4 (17249) - http://www.bohemiancoding.com/sketch -->
    <title>note-person</title>
    <desc>Created with Sketch.</desc>
    <defs></defs>
    <g id="Page-1" stroke="none" stroke-width="1" fill="none" fill-rule="evenodd" sketch:type="MSPage">
        <g id="Artboard-3" sketch:type="MSArtboardGroup" transform="translate(-429.000000, -150.000000)" fill="#FFFFFF">
            <g id="note-person" sketch:type="MSLayerGroup" transform="translate(429.000000, 150.000000)">
                <path d="M8.81336406,10.2131336 C8.55414747,9.27995392 8.81336406,9.12442396 9.07258065,9.17626728 C8.91705069,8.70967742 8.91705069,8.19124424 9.02073733,7.7764977 C9.12442396,7.25806452 9.43548387,6.84331797 9.74654378,6.48041475 C9.95391705,6.27304147 10.1612903,6.0656682 10.4205069,5.91013825 C10.6278802,5.75460829 10.8352535,5.65092166 11.09447,5.59907834 L11.09447,5.59907834 C11.3018433,5.54723502 11.4573733,5.49539171 11.6647465,5.49539171 C12.2868664,5.44354839 12.8052995,5.59907834 13.1682028,5.80645161 C13.6866359,6.11751152 13.8940092,6.48041475 13.8940092,6.48041475 C13.8940092,6.48041475 15.2419355,6.58410138 14.6198157,9.33179724 C14.7753456,9.38364055 14.9308756,9.64285714 14.7235023,10.3686636 C14.4642857,11.25 14.2569124,11.3018433 14.1013825,11.1981567 C13.9458525,12.1831797 13.4274194,13.4274194 11.7165899,13.4792627 C10.0057604,13.3237327 9.48732719,12.0794931 9.33179724,11.09447 C9.17626728,11.09447 9.02073733,10.8870968 8.81336406,10.2131336 L8.81336406,10.2131336 Z M11.7684332,18.6635945 L17.4711982,18.6635945 C17.4193548,16.2788018 17.5230415,15.0345622 15.9677419,14.4642857 C14.5679724,13.9458525 13.7384793,13.375576 13.7384793,13.375576 L12.6497696,16.797235 L12.4942396,17.2638249 L12.0276498,15.9158986 C13.1163594,14.3605991 11.9239631,14.3087558 11.7165899,14.3087558 L11.7165899,14.3087558 L11.7165899,14.3087558 L11.7165899,14.3087558 L11.7165899,14.3087558 L11.7165899,14.3087558 L11.7165899,14.3087558 C11.5092166,14.3087558 10.3168203,14.3605991 11.40553,15.9158986 L10.9389401,17.2638249 L10.7834101,16.797235 L9.69470046,13.375576 C9.69470046,13.375576 8.86520737,13.9458525 7.46543779,14.4642857 C5.91013825,15.0345622 6.01382488,16.2788018 5.96198157,18.6635945 L11.7684332,18.6635945 L11.7684332,18.6635945 L11.7684332,18.6635945 Z M35.8237327,11.5610599 L35.8237327,39.0380184 C35.8237327,42.0967742 33.3870968,44.5334101 30.328341,44.5334101 L5.96198157,44.5334101 C2.90322581,44.5334101 0.466589862,42.0967742 0.466589862,39.0380184 L0.466589862,5.54723502 C0.466589862,2.48847926 2.90322581,0.051843318 5.96198157,0.051843318 L23.9516129,0.051843318 C24.2626728,0.051843318 24.5737327,0.103686636 24.8847926,0.207373272 L24.8847926,0.207373272 C25.1958525,0.311059908 25.4550691,0.51843318 25.6624424,0.725806452 L35.0460829,9.74654378 C35.3052995,9.95391705 35.4608295,10.264977 35.6163594,10.5760369 L35.6163594,10.5760369 C35.7718894,10.8870968 35.8237327,11.25 35.8237327,11.5610599 L35.8237327,11.5610599 Z M33.2315668,12.3387097 L28.6175115,12.3387097 C25.6105991,12.3387097 23.1221198,9.85023041 23.1221198,6.84331797 L23.1221198,2.64400922 L5.96198157,2.64400922 C4.35483871,2.64400922 3.05875576,3.94009217 3.05875576,5.54723502 L3.05875576,39.0380184 C3.05875576,40.6451613 4.35483871,41.9412442 5.96198157,41.9412442 L30.328341,41.9412442 C31.9354839,41.9412442 33.2315668,40.6451613 33.2315668,39.0380184 L33.2315668,12.3387097 L33.2315668,12.3387097 Z M6.0656682,22.2926267 L6.0656682,22.2926267 C6.0656682,23.0184332 6.6359447,23.5887097 7.36175115,23.5887097 L29.187788,23.5887097 C29.9135945,23.5887097 30.483871,23.0184332 30.483871,22.2926267 L30.483871,22.2926267 C30.483871,21.5668203 29.9135945,20.9965438 29.187788,20.9965438 L7.36175115,20.9965438 C6.6359447,20.9965438 6.0656682,21.5668203 6.0656682,22.2926267 L6.0656682,22.2926267 Z M29.187788,26.1808756 L7.36175115,26.1808756 C6.6359447,26.1808756 6.0656682,26.7511521 6.0656682,27.4769585 L6.0656682,27.4769585 C6.0656682,28.202765 6.6359447,28.7730415 7.36175115,28.7730415 L29.187788,28.7730415 C29.9135945,28.7730415 30.483871,28.202765 30.483871,27.4769585 L30.483871,27.4769585 C30.483871,26.7511521 29.8617512,26.1808756 29.187788,26.1808756 L29.187788,26.1808756 Z M29.187788,31.3652074 L7.36175115,31.3652074 C6.6359447,31.3652074 6.0656682,31.9354839 6.0656682,32.6612903 L6.0656682,32.6612903 C6.0656682,33.3870968 6.6359447,33.9573733 7.36175115,33.9573733 L29.187788,33.9573733 C29.9135945,33.9573733 30.483871,33.3870968 30.483871,32.6612903 L30.483871,32.6612903 C30.483871,31.9354839 29.8617512,31.3652074 29.187788,31.3652074 L29.187788,31.3652074 Z M19.3894009,36.5495392 L7.2062212,36.5495392 C6.48041475,36.5495392 5.91013825,37.1198157 5.91013825,37.8456221 C5.91013825,38.5714286 6.48041475,39.1417051 7.2062212,39.1417051 L19.3894009,39.1417051 C20.1152074,39.1417051 20.6854839,38.5714286 20.6854839,37.8456221 C20.6854839,37.1198157 20.1152074,36.5495392 19.3894009,36.5495392 L19.3894009,36.5495392 Z" id="Shape" sketch:type="MSShapeGroup"></path>
            </g>
        </g>
    </g>
</svg>