<?xml version="1.0" encoding="UTF-8" standalone="no"?>
<svg width="64px" height="42px" viewBox="0 0 64 42" version="1.1" xmlns="http://www.w3.org/2000/svg" xmlns:xlink="http://www.w3.org/1999/xlink" xmlns:sketch="http://www.bohemiancoding.com/sketch/ns">
    <!-- Generator: Sketch 3.4.4 (17249) - http://www.bohemiancoding.com/sketch -->
    <title>nurse</title>
    <desc>Created with Sketch.</desc>
    <defs></defs>
    <g id="Page-1" stroke="none" stroke-width="1" fill="none" fill-rule="evenodd" sketch:type="MSPage">
        <g id="Artboard-3" sketch:type="MSArtboardGroup" transform="translate(-706.000000, -80.000000)" fill="#FFFFFF">
            <g id="nurse" sketch:type="MSLayerGroup" transform="translate(706.000000, 80.000000)">
                <path d="M55.6276875,12.786375 C42.1535625,-3.948 23.1223125,-4.496625 9.2439375,12.9609375 C24.2248125,5.2198125 38.073,3.9834375 55.6276875,12.786375 L55.6276875,12.786375 Z" id="Fill-1" sketch:type="MSShapeGroup"></path>
                <path d="M0.8308125,20.5183125 L9.2544375,40.117875 C21.7021875,46.244625 36.9705,31.5564375 54.5251875,40.348875 L63.4921875,20.5183125 C47.8603125,5.9731875 15.857625,6.99825 0.8308125,20.5183125 L0.8308125,20.5183125 Z M40.4053125,27.573 L35.196,27.573 L35.196,32.7665625 L29.6743125,32.7665625 L29.6743125,27.573 L24.4755,27.573 L24.4755,22.0513125 L29.6690625,22.0513125 L29.6690625,16.8525 L35.19075,16.8525 L35.19075,22.0460625 L40.3948125,22.0460625 L40.3948125,27.573 L40.4053125,27.573 Z" id="Fill-2" sketch:type="MSShapeGroup"></path>
            </g>
        </g>
    </g>
</svg>