<?xml version="1.0" encoding="UTF-8" standalone="no"?>
<svg width="36px" height="41px" viewBox="0 0 36 41" version="1.1" xmlns="http://www.w3.org/2000/svg" xmlns:xlink="http://www.w3.org/1999/xlink" xmlns:sketch="http://www.bohemiancoding.com/sketch/ns">
    <!-- Generator: Sketch 3.4.4 (17249) - http://www.bohemiancoding.com/sketch -->
    <title>client</title>
    <desc>Created with Sketch.</desc>
    <defs></defs>
    <g id="Page-1" stroke="none" stroke-width="1" fill="none" fill-rule="evenodd" sketch:type="MSPage">
        <g id="SVG" sketch:type="MSArtboardGroup" transform="translate(-1179.000000, -750.000000)" fill="#FFFFFF">
            <path d="M1214.75534,784.861305 C1214.77401,782.834638 1214.30001,779.759305 1211.35734,779.011972 C1206.87534,777.873972 1203.15667,776.137305 1203.15667,776.137305 C1202.42201,775.126638 1202.28934,773.006638 1202.28934,773.006638 C1203.69334,771.499305 1204.31267,769.611305 1204.57601,768.014638 C1204.67001,768.082638 1204.77667,768.129305 1204.89401,768.123972 C1205.31534,768.115972 1205.87801,767.499305 1206.48734,765.163305 C1207.25334,762.223305 1206.53401,761.644638 1205.83934,761.649972 C1205.68001,761.649972 1205.65401,761.647305 1205.51334,761.689305 L1205.51067,761.623972 C1205.51067,761.623972 1207.57067,754.753972 1202.61534,751.733305 C1202.61534,751.733305 1203.48467,751.027972 1203.42001,750.011972 C1203.42001,750.011972 1201.14867,750.269972 1198.96934,750.275305 C1197.97934,750.277972 1197.00801,750.225305 1196.28201,750.077305 C1195.99001,750.017305 1195.69601,749.993972 1195.40401,750.001305 C1193.36001,750.053972 1191.39867,751.644638 1191.05534,753.183972 C1191.05534,753.183972 1191.02401,753.181305 1190.96934,753.181305 C1190.32334,753.181305 1186.26334,753.491305 1188.21134,761.652638 C1188.21134,761.652638 1188.21401,761.663305 1188.21667,761.683972 C1188.12267,761.663305 1188.02401,761.649972 1187.92201,761.649972 C1187.22467,761.641972 1186.50067,762.215305 1187.26867,765.163305 C1187.88334,767.517305 1188.45067,768.123972 1188.87267,768.123972 C1189.01334,768.123972 1189.13867,768.056638 1189.24267,767.962638 C1189.50067,769.571972 1190.12001,771.485972 1191.54201,773.011972 L1191.46667,773.006638 C1191.46667,773.006638 1191.34934,774.881972 1190.72467,775.946638 C1190.69867,775.959972 1186.86534,777.876638 1182.39867,779.011972 C1179.45067,779.759305 1178.97934,782.847972 1179.00067,784.873972 C1178.99801,785.139305 1179.00601,785.391972 1179.01867,785.618638 L1179.01601,785.618638 C1179.01601,785.618638 1179.01334,785.715305 1179.01601,785.881972 C1179.01601,786.032638 1179.01601,786.402638 1179.03201,786.861305 C1184.41201,789.420638 1190.45601,790.855972 1196.84401,790.855972 C1203.25067,790.855972 1209.31267,789.410638 1214.70601,786.837305 C1214.72201,786.391972 1214.72201,786.035305 1214.72201,785.884638 L1214.72201,785.793305 C1214.74534,785.519972 1214.75801,785.201972 1214.75534,784.861305 L1214.75534,784.861305 Z" id="client" sketch:type="MSShapeGroup"></path>
        </g>
    </g>
</svg>