<?xml version="1.0" encoding="UTF-8" standalone="no"?>
<svg width="50px" height="45px" viewBox="0 0 50 45" version="1.1" xmlns="http://www.w3.org/2000/svg" xmlns:xlink="http://www.w3.org/1999/xlink" xmlns:sketch="http://www.bohemiancoding.com/sketch/ns">
    <!-- Generator: Sketch 3.4.4 (17249) - http://www.bohemiancoding.com/sketch -->
    <title>person-time</title>
    <desc>Created with Sketch.</desc>
    <defs></defs>
    <g id="Page-1" stroke="none" stroke-width="1" fill="none" fill-rule="evenodd" sketch:type="MSPage">
        <g id="Artboard-3" sketch:type="MSArtboardGroup" transform="translate(-1097.000000, -150.000000)" fill="#FFFFFF">
            <g id="person-time" sketch:type="MSLayerGroup" transform="translate(1097.000000, 150.000000)">
                <path d="M22.5,1.09375 C24.1666667,2.03125 24.7916667,3.22916667 24.7916667,3.22916667 C24.7916667,3.22916667 28.9583333,3.54166667 27.1354167,12.2916667 C27.7083333,12.5 28.0729167,13.28125 27.4479167,15.5729167 C26.6666667,18.3854167 25.9375,18.5416667 25.46875,18.28125 C24.9479167,21.3541667 23.28125,25.2604167 18.0208333,25.46875 C12.65625,25 10.9375,20.9375 10.46875,17.8645833 C10.0520833,17.8125 9.47916667,17.2395833 8.85416667,15.0520833 C8.02083333,12.0833333 8.90625,11.6666667 9.63541667,11.71875 C9.0625,10.15625 9.0625,8.64583333 9.42708333,7.23958333 C9.79166667,5.57291667 10.7291667,4.27083333 11.71875,3.22916667 C12.34375,2.55208333 13.0729167,1.97916667 13.8541667,1.45833333 C14.4791667,1.04166667 15.15625,0.677083333 15.9375,0.416666667 L15.9375,0.416666667 C16.5104167,0.208333333 17.1354167,0.104166667 17.8125,0.0520833333 C19.84375,-0.104166667 21.40625,0.416666667 22.5,1.09375 L22.5,1.09375 Z M21.7708333,33.3333333 L21.25,35.0520833 L21.25,35.0520833 L20.78125,36.4583333 L19.2708333,32.1875 C23.0729167,26.875 18.28125,27.0833333 18.28125,27.0833333 C18.28125,27.0833333 13.4375,26.875 17.2916667,32.1875 L15.78125,36.5104167 L15.3125,35.0520833 L11.9270833,24.2708333 C11.9270833,24.2708333 8.22916667,26.875 3.75,28.0208333 C0.364583333,28.8541667 0.208333333,32.7604167 0.364583333,34.6875 L0.364583333,34.6875 C0.364583333,34.6875 0.3125,37.34375 0.78125,38.4375 C0.78125,38.4375 7.34375,42.7083333 18.3854167,42.7083333 L18.3854167,42.4479167 L18.3854167,42.7083333 C22.9166667,42.7083333 26.71875,41.9791667 29.5833333,41.1458333 C28.3854167,39.2708333 27.65625,37.03125 27.65625,34.6354167 C27.65625,31.8229167 28.6458333,29.21875 30.2604167,27.1354167 C27.0833333,25.8854167 24.7916667,24.2708333 24.7916667,24.2708333 L21.7708333,33.3333333 L21.7708333,33.3333333 Z M38.3854167,34.84375 C38.3854167,35.15625 38.4895833,35.46875 38.75,35.7291667 C38.8020833,35.78125 38.8541667,35.8333333 38.90625,35.8854167 L41.875,38.3854167 L41.875,38.3854167 C42.2395833,38.6979167 42.7083333,38.6458333 43.0729167,38.3333333 C43.3854167,38.0208333 43.3854167,37.5520833 43.1770833,37.1875 L43.1770833,37.1875 L43.1770833,37.1875 C43.1770833,37.1875 43.1770833,37.1875 43.125,37.1354167 L40.9895833,34.5833333 C40.8854167,34.4791667 40.8333333,34.3229167 40.8333333,34.21875 L40.5208333,29.4270833 L40.5208333,29.4270833 C40.46875,28.9583333 40.1041667,28.6458333 39.6354167,28.6458333 C39.1666667,28.6458333 38.8020833,28.9583333 38.75,29.4270833 L38.75,29.4270833 L38.75,29.4270833 L38.75,29.4791667 L38.3854167,34.7916667 L38.3854167,34.8958333 L38.3854167,34.84375 L38.3854167,34.84375 C38.3854167,34.7916667 38.3854167,34.7916667 38.3854167,34.84375 C38.3854167,34.7916667 38.3854167,34.7916667 38.3854167,34.84375 L38.3854167,34.84375 Z M29.5833333,34.6354167 C29.5833333,29.0625 34.1145833,24.53125 39.6875,24.53125 C45.2604167,24.53125 49.7916667,29.0625 49.7916667,34.6354167 C49.7916667,40.2083333 45.2604167,44.7395833 39.6875,44.7395833 C34.1145833,44.7395833 29.5833333,40.2083333 29.5833333,34.6354167 L29.5833333,34.6354167 Z M32.1875,34.6354167 C32.1875,38.75 35.5729167,42.1354167 39.6875,42.1354167 C43.8020833,42.1354167 47.1875,38.75 47.1875,34.6354167 C47.1875,30.5208333 43.8020833,27.1354167 39.6875,27.1354167 C35.5729167,27.1354167 32.1875,30.46875 32.1875,34.6354167 L32.1875,34.6354167 Z" id="Shape" sketch:type="MSShapeGroup"></path>
            </g>
        </g>
    </g>
</svg>