<?xml version="1.0" encoding="UTF-8" standalone="no"?>
<svg width="44px" height="45px" viewBox="0 0 44 45" version="1.1" xmlns="http://www.w3.org/2000/svg" xmlns:xlink="http://www.w3.org/1999/xlink" xmlns:sketch="http://www.bohemiancoding.com/sketch/ns">
    <!-- Generator: Sketch 3.4.4 (17249) - http://www.bohemiancoding.com/sketch -->
    <title>person-add</title>
    <desc>Created with Sketch.</desc>
    <defs></defs>
    <g id="Page-1" stroke="none" stroke-width="1" fill="none" fill-rule="evenodd" sketch:type="MSPage">
        <g id="Artboard-3" sketch:type="MSArtboardGroup" transform="translate(-936.000000, -80.000000)" fill="#FFFFFF">
            <g id="person-add" sketch:type="MSLayerGroup" transform="translate(936.000000, 80.000000)">
                <path d="M25.0340571,33.072669 C25.6269526,31.054588 27.8006056,28.6399907 30.168056,27.4639098 C29.8309164,27.3498316 29.5090645,27.2376811 29.2046896,27.1290937 C27.3004743,26.4497544 26.0803033,25.9098723 26.0803033,25.9098723 C25.5814982,25.2573657 25.3424069,24.1566153 25.2341391,23.4347602 C26.3193946,21.9992456 26.8704002,20.3172284 27.1397807,18.8174088 C27.2383817,18.8836052 27.3511607,18.9283665 27.4774731,18.9283665 C27.9330999,18.9283665 28.5446839,18.3319691 29.2013795,16.0295979 C29.8838531,13.6458997 29.4681822,12.8477611 28.879154,12.64602 C30.7951068,3.57586247 26.419929,3.27072893 26.419929,3.27072893 C26.419929,3.27072893 25.7606556,2.01489006 24.0206379,1.0667065 C23.0140054,0.477874427 21.6671028,0 19.9373964,0 C19.6660825,0 19.3863908,0.0126088239 19.0944544,0.0371960306 C18.4023141,0.0693485316 17.7475519,0.202371624 17.1333901,0.406634572 C16.3478043,0.670158992 15.6279525,1.05157592 14.9757681,1.49981961 C14.17536,2.00228124 13.4226412,2.61570052 12.7556344,3.31485981 C11.7006681,4.38093587 10.761703,5.75781945 10.3537655,7.47955436 C9.96645047,8.93965617 9.97869504,10.5208027 10.5554787,12.1240147 C10.5077893,12.1189711 10.4568777,12.1164494 10.4066105,12.1164494 C9.65904734,12.1164494 8.89408401,12.6901508 9.71447013,15.556767 C10.3537655,17.7904201 10.9479493,18.4158178 11.3984206,18.4530138 C11.6504009,20.0682042 12.2194512,21.9500711 13.4426192,23.5160871 C13.339507,24.1660719 13.1358605,25.0795812 12.7427454,25.7100224 C12.7124562,25.725153 8.60408106,27.6732163 3.81387677,28.8281846 C0.652200156,29.5891271 0.145661669,32.731246 0.168861905,34.7927888 C0.166284101,35.063248 0.173373062,35.3198376 0.188839886,35.5512095 C0.183684278,35.5512095 0.181106474,35.6495583 0.183684278,35.8172557 C0.183684278,35.9698225 0.183684278,36.3468263 0.201084455,36.8146137 C5.97343207,39.4177054 12.4585425,40.8803289 19.31099,40.8803289 C22.6692242,40.8803289 24.2341384,40.7855562 25.5070288,40.2422598 C24.1399531,36.9106591 24.4411616,35.09075 25.0340571,33.072669 Z" id="Fill-1" sketch:type="MSShapeGroup"></path>
                <path d="M34.9877391,27.5827032 C30.1402609,27.5827032 26.1956522,31.4415595 26.1956522,36.1836578 C26.1956522,40.9267769 30.1402609,44.7846125 34.9877391,44.7846125 C39.8362609,44.7846125 43.7798261,40.9257561 43.7798261,36.1836578 C43.7808696,31.4415595 39.8362609,27.5827032 34.9877391,27.5827032 L34.9877391,27.5827032 Z M34.9877391,42.9305955 C31.1847826,42.9305955 28.0911304,39.9039414 28.0911304,36.1836578 C28.0911304,32.4633743 31.1847826,29.4369754 34.9877391,29.4369754 C38.7906957,29.4369754 41.8846087,32.4633743 41.8846087,36.1836578 C41.8846087,39.9039414 38.7906957,42.9305955 34.9877391,42.9305955 L34.9877391,42.9305955 Z" id="Fill-1" sketch:type="MSShapeGroup"></path>
                <path d="M36.1026957,32.176276 L33.8730435,32.176276 L33.8730435,35.0931947 L30.8913043,35.0931947 L30.8913043,37.2743762 L33.8730435,37.2743762 L33.8730435,40.1920605 L36.1026957,40.1920605 L36.1026957,37.2743762 L39.0852174,37.2743762 L39.0852174,35.0931947 L36.1026957,35.0931947 L36.1026957,32.176276 Z" id="Fill-2" sketch:type="MSShapeGroup"></path>
            </g>
        </g>
    </g>
</svg>