<?xml version="1.0" encoding="UTF-8" standalone="no"?>
<svg width="49px" height="45px" viewBox="0 0 49 45" version="1.1" xmlns="http://www.w3.org/2000/svg" xmlns:xlink="http://www.w3.org/1999/xlink" xmlns:sketch="http://www.bohemiancoding.com/sketch/ns">
    <!-- Generator: Sketch 3.5 (25232) - http://www.bohemiancoding.com/sketch -->
    <title>physicians</title>
    <desc>Created with Sketch.</desc>
    <defs></defs>
    <g id="Page-1" stroke="none" stroke-width="1" fill="none" fill-rule="evenodd" sketch:type="MSPage">
        <g id="SVG" sketch:type="MSArtboardGroup" transform="translate(-856.000000, -750.000000)" fill="#FFFFFF">
            <g id="physicians" sketch:type="MSLayerGroup" transform="translate(856.000000, 750.000000)">
                <path d="M35.8695652,21.8882609 C35.4619565,21.8882609 35.0543478,21.8882609 34.545,21.7865217 C33.423913,21.6847826 32.4052174,21.378913 31.3858696,21.0730435 C29.9595652,20.666087 28.6343478,20.3602174 27.513913,20.5636957 C26.3928261,20.7678261 25.3734783,20.0543478 25.17,19.0356522 C24.9658696,17.9145652 25.6793478,16.8952174 26.6986957,16.6917391 C28.736087,16.2841304 30.6723913,16.7934783 32.4052174,17.3028261 C33.3221739,17.5069565 34.1373913,17.8121739 34.9526087,17.9145652 C37.0923913,18.1180435 39.2321739,17.4052174 41.3726087,16.3858696 C38.5186957,15.0613043 35.8695652,12.9208696 33.7297826,10.0682609 C33.423913,9.66 33.1180435,9.25304348 32.8121739,8.84478261 C31.9969565,7.72434783 31.2841304,6.705 30.3665217,6.09391304 C29.4495652,6.09391304 26.6986957,7.41847826 26.2904348,8.43782609 C25.8834783,9.45652174 24.66,9.86413043 23.6413043,9.45652174 C22.6226087,9.04891304 22.2143478,7.82608696 22.6226087,6.8073913 C23.5395652,4.76869565 26.2904348,3.03652174 28.5326087,2.42543478 C30.5706522,1.81369565 31.7934783,2.22130435 32.5069565,2.73130435 C34.0356522,3.75 35.0543478,5.17695652 36.0730435,6.60326087 C36.378913,6.90913043 36.6847826,7.21434783 36.9906522,7.6226087 C39.6397826,11.0869565 43.1047826,13.3291304 46.6708696,13.8384783 C47.486087,13.9402174 48.1995652,14.5513043 48.3013043,15.3665217 C48.5054348,16.1817391 48.0978261,16.9969565 47.3843478,17.5069565 C44.2252174,19.4426087 40.1491304,21.8882609 35.8695652,21.8882609 L35.8695652,21.8882609 Z" id="Fill-1" sketch:type="MSShapeGroup"></path>
                <path d="M13.0434783,21.8882609 C8.66152174,21.8882609 4.68782609,19.4426087 1.42695652,17.4052174 C0.713478261,16.9969565 0.305869565,16.08 0.509347826,15.2647826 C0.713478261,14.4495652 1.32456522,13.8384783 2.13978261,13.736087 C5.80826087,13.2267391 9.17086957,10.9852174 11.8206522,7.52021739 C12.2282609,7.21434783 12.5341304,6.90913043 12.7376087,6.50152174 C13.7569565,5.07456522 14.7756522,3.64826087 16.3043478,2.62891304 C17.3230435,1.91608696 18.75,1.81369565 20.3804348,2.32304348 C22.7243478,2.93478261 25.4752174,4.66695652 26.3928261,6.705 C26.8004348,7.72434783 26.3928261,8.84478261 25.3734783,9.35478261 C24.3547826,9.7623913 23.2336957,9.35478261 22.7243478,8.33543478 C22.3167391,7.41847826 19.4634783,5.88978261 18.3423913,5.99217391 C17.5271739,6.60326087 16.7119565,7.6226087 15.8967391,8.74304348 C15.5908696,9.15065217 15.2856522,9.55826087 14.9797826,9.96586957 C12.84,12.8191304 10.1902174,14.9595652 7.33695652,16.2841304 C9.47673913,17.3028261 11.6165217,18.1180435 13.7569565,17.8121739 C14.5721739,17.7104348 15.3873913,17.5069565 16.3043478,17.201087 C18.0365217,16.6917391 19.9728261,16.1817391 22.0108696,16.59 C23.1319565,16.7934783 23.8447826,17.8121739 23.5395652,18.9332609 C23.3354348,20.0543478 22.3167391,20.7678261 21.1956522,20.4619565 C20.0745652,20.2578261 18.75,20.5636957 17.3230435,20.9713043 C16.3043478,21.2771739 15.2856522,21.4813043 14.1645652,21.6847826 C13.9604348,21.8882609 13.5528261,21.8882609 13.0434783,21.8882609 L13.0434783,21.8882609 Z" id="Fill-2" sketch:type="MSShapeGroup"></path>
                <path d="M24.5582609,38.906087 C18.2406522,38.906087 13.451087,36.1552174 13.451087,32.486087 C13.451087,28.8182609 18.2406522,26.0667391 24.5582609,26.0667391 C30.8765217,26.0667391 35.666087,28.8182609 35.666087,32.486087 C35.666087,36.1552174 30.9782609,38.906087 24.5582609,38.906087 L24.5582609,38.906087 Z M24.5582609,30.0404348 C19.871087,30.0404348 17.4254348,31.875 17.4254348,32.486087 C17.4254348,33.0978261 19.871087,34.9317391 24.5582609,34.9317391 C29.246087,34.9317391 31.6917391,33.0978261 31.6917391,32.486087 C31.6917391,31.875 29.246087,30.0404348 24.5582609,30.0404348 L24.5582609,30.0404348 Z" id="Fill-3" sketch:type="MSShapeGroup"></path>
                <path d="M24.5582609,30.0404348 C18.0365217,30.0404348 10.9036957,28.0030435 10.9036957,23.621087 C10.9036957,19.2391304 17.9347826,17.201087 24.5582609,17.201087 C31.1817391,17.201087 38.2134783,19.2391304 38.2134783,23.621087 C38.2134783,28.1047826 31.1817391,30.0404348 24.5582609,30.0404348 L24.5582609,30.0404348 Z M14.9797826,23.621087 C15.3873913,24.333913 18.6482609,26.0667391 24.5582609,26.0667391 C30.468913,26.0667391 33.7297826,24.4363043 34.1373913,23.621087 C33.7297826,22.9076087 30.468913,21.1754348 24.5582609,21.1754348 C18.6482609,21.1754348 15.3873913,22.9076087 14.9797826,23.621087 L14.9797826,23.621087 Z" id="Fill-4" sketch:type="MSShapeGroup"></path>
                <path d="M24.5582609,44.8167391 C23.4378261,44.8167391 22.5202174,43.8991304 22.5202174,42.7786957 L22.5202174,2.11956522 C22.5202174,0.998478261 23.4378261,0.0815217391 24.5582609,0.0815217391 C25.6793478,0.0815217391 26.5963043,0.998478261 26.5963043,2.11956522 L26.5963043,42.8804348 C26.5963043,43.8991304 25.6793478,44.8167391 24.5582609,44.8167391 L24.5582609,44.8167391 Z" id="Fill-5" sketch:type="MSShapeGroup"></path>
            </g>
        </g>
    </g>
</svg>