<?xml version="1.0" encoding="UTF-8" standalone="no"?>
<svg width="45px" height="45px" viewBox="0 0 45 45" version="1.1" xmlns="http://www.w3.org/2000/svg" xmlns:xlink="http://www.w3.org/1999/xlink" xmlns:sketch="http://www.bohemiancoding.com/sketch/ns">
    <!-- Generator: Sketch 3.4.4 (17249) - http://www.bohemiancoding.com/sketch -->
    <title>plane</title>
    <desc>Created with Sketch.</desc>
    <defs></defs>
    <g id="Page-1" stroke="none" stroke-width="1" fill="none" fill-rule="evenodd" sketch:type="MSPage">
        <g id="Artboard-3" sketch:type="MSArtboardGroup" transform="translate(-58.000000, -80.000000)" fill="#FFFFFF">
            <g id="plane" sketch:type="MSLayerGroup" transform="translate(58.000000, 80.000000)">
                <path d="M22.91175,0.40005 C22.6935,0.14625 22.3758,0 22.041,0 C21.7062,0 21.38805,0.14625 21.1698,0.40005 C19.9539,1.81575 19.2852,3.6198 19.2852,5.48595 L19.2852,15.6123 L0,30.76515 L0,35.35695 L19.28565,28.01025 L19.28565,34.89795 C19.28565,35.53875 19.4436,36.16965 19.7451,36.73485 L12.8574,41.32665 L12.8574,45 L22.041,41.32665 L31.2246,45 L31.2246,41.32665 L24.3369,36.73485 C24.6384,36.16965 24.79635,35.53875 24.79635,34.89795 L24.79635,28.01025 L44.082,35.35695 L44.082,30.76515 L24.79635,15.6123 L24.79635,5.48595 C24.79635,3.6198 24.12765,1.81575 22.91175,0.40005" id="Shape" sketch:type="MSShapeGroup"></path>
            </g>
        </g>
    </g>
</svg>