<?xml version="1.0" encoding="UTF-8" standalone="no"?>
<svg width="52px" height="45px" viewBox="0 0 52 45" version="1.1" xmlns="http://www.w3.org/2000/svg" xmlns:xlink="http://www.w3.org/1999/xlink" xmlns:sketch="http://www.bohemiancoding.com/sketch/ns">
    <!-- Generator: Sketch 3.4.4 (17249) - http://www.bohemiancoding.com/sketch -->
    <title>print</title>
    <desc>Created with Sketch.</desc>
    <defs></defs>
    <g id="Page-1" stroke="none" stroke-width="1" fill="none" fill-rule="evenodd" sketch:type="MSPage">
        <g id="SVG" sketch:type="MSArtboardGroup" transform="translate(-375.000000, -885.000000)" fill="#FFFFFF">
            <g id="print" sketch:type="MSLayerGroup" transform="translate(375.000000, 885.000000)">
                <path d="M48.8571429,30.8571429 L48.8571429,15.4285714 L48.8571429,30.8571429 Z M48.8571429,30.8571429 L48.8571429,15.4285714 L48.8571429,30.8571429 Z M0,30.8571429 L0,15.4285714 L0,30.8571429 Z M51.4285714,30.8571429 L51.4285714,15.4285714 L51.4285714,30.8571429 Z M34.0714286,30.2142857 L17.3571429,30.2142857 C16.6508571,30.2142857 16.0714286,30.7937143 16.0714286,31.5 C16.0714286,32.2062857 16.6508571,32.7857143 17.3571429,32.7857143 L34.0714286,32.7857143 C34.7777143,32.7857143 35.3571429,32.2062857 35.3571429,31.5 C35.3571429,30.7937143 34.7777143,30.2142857 34.0714286,30.2142857 L34.0714286,30.2142857 Z M34.0714286,36.6428571 L17.3571429,36.6428571 C16.6508571,36.6428571 16.0714286,37.2222857 16.0714286,37.9285714 C16.0714286,38.6348571 16.6508571,39.2142857 17.3571429,39.2142857 L34.0714286,39.2142857 C34.7777143,39.2142857 35.3571429,38.6348571 35.3571429,37.9285714 C35.3571429,37.2222857 34.7777143,36.6428571 34.0714286,36.6428571 L34.0714286,36.6428571 Z M34.0714286,30.2142857 L17.3571429,30.2142857 C16.6508571,30.2142857 16.0714286,30.7937143 16.0714286,31.5 C16.0714286,32.2062857 16.6508571,32.7857143 17.3571429,32.7857143 L34.0714286,32.7857143 C34.7777143,32.7857143 35.3571429,32.2062857 35.3571429,31.5 C35.3571429,30.7937143 34.7777143,30.2142857 34.0714286,30.2142857 L34.0714286,30.2142857 Z M34.0714286,36.6428571 L17.3571429,36.6428571 C16.6508571,36.6428571 16.0714286,37.2222857 16.0714286,37.9285714 C16.0714286,38.6348571 16.6508571,39.2142857 17.3571429,39.2142857 L34.0714286,39.2142857 C34.7777143,39.2142857 35.3571429,38.6348571 35.3571429,37.9285714 C35.3571429,37.2222857 34.7777143,36.6428571 34.0714286,36.6428571 L34.0714286,36.6428571 Z M34.0714286,36.6428571 L17.3571429,36.6428571 C16.6508571,36.6428571 16.0714286,37.2222857 16.0714286,37.9285714 C16.0714286,38.6348571 16.6508571,39.2142857 17.3571429,39.2142857 L34.0714286,39.2142857 C34.7777143,39.2142857 35.3571429,38.6348571 35.3571429,37.9285714 C35.3571429,37.2222857 34.7777143,36.6428571 34.0714286,36.6428571 L34.0714286,36.6428571 Z M34.0714286,30.2142857 L17.3571429,30.2142857 C16.6508571,30.2142857 16.0714286,30.7937143 16.0714286,31.5 C16.0714286,32.2062857 16.6508571,32.7857143 17.3571429,32.7857143 L34.0714286,32.7857143 C34.7777143,32.7857143 35.3571429,32.2062857 35.3571429,31.5 C35.3571429,30.7937143 34.7777143,30.2142857 34.0714286,30.2142857 L34.0714286,30.2142857 Z M17.3571429,32.7857143 L34.0714286,32.7857143 C34.7777143,32.7857143 35.3571429,32.2062857 35.3571429,31.5 C35.3571429,30.7937143 34.7777143,30.2142857 34.0714286,30.2142857 L17.3571429,30.2142857 C16.6508571,30.2142857 16.0714286,30.7937143 16.0714286,31.5 C16.0714286,32.2062857 16.6508571,32.7857143 17.3571429,32.7857143 L17.3571429,32.7857143 Z M34.0714286,36.6428571 L17.3571429,36.6428571 C16.6508571,36.6428571 16.0714286,37.2222857 16.0714286,37.9285714 C16.0714286,38.6348571 16.6508571,39.2142857 17.3571429,39.2142857 L34.0714286,39.2142857 C34.7777143,39.2142857 35.3571429,38.6348571 35.3571429,37.9285714 C35.3571429,37.2222857 34.7777143,36.6428571 34.0714286,36.6428571 L34.0714286,36.6428571 Z M46.2857143,10.2857143 L41.7857143,10.2857143 L41.7857143,1.28571429 C41.7857143,0.579428571 41.2062857,0 40.5,0 L10.9285714,0 C10.2222857,0 9.64285714,0.579428571 9.64285714,1.28571429 L9.64285714,10.2857143 L5.14285714,10.2857143 C2.31342857,10.2857143 0,12.5991429 0,15.4285714 L0,30.8571429 C0,33.6865714 2.31342857,36 5.14285714,36 L9.64285714,36 L9.64285714,43.7142857 C9.64285714,44.4205714 10.2222857,45 10.9285714,45 L40.5,45 C41.2062857,45 41.7857143,44.4205714 41.7857143,43.7142857 L41.7857143,36 L46.2857143,36 C49.1151429,36 51.4285714,33.6865714 51.4285714,30.8571429 L51.4285714,15.4285714 C51.4285714,12.5991429 49.1151429,10.2857143 46.2857143,10.2857143 L46.2857143,10.2857143 Z M12.2142857,2.57142857 L39.2142857,2.57142857 L39.2142857,10.2857143 L12.2142857,10.2857143 L12.2142857,2.57142857 Z M39.2142857,42.4285714 L12.2142857,42.4285714 L12.2142857,27 L39.2142857,27 L39.2142857,42.4285714 Z M48.8571429,30.8571429 C48.8571429,32.2697143 47.6982857,33.4285714 46.2857143,33.4285714 L41.7857143,33.4285714 L41.7857143,25.7142857 C41.7857143,25.008 41.2062857,24.4285714 40.5,24.4285714 L10.9285714,24.4285714 C10.2222857,24.4285714 9.64285714,25.008 9.64285714,25.7142857 L9.64285714,33.4285714 L5.14285714,33.4285714 C3.73028571,33.4285714 2.57142857,32.2697143 2.57142857,30.8571429 L2.57142857,15.4285714 C2.57142857,14.016 3.73028571,12.8571429 5.14285714,12.8571429 L46.2857143,12.8571429 C47.6982857,12.8571429 48.8571429,14.016 48.8571429,15.4285714 L48.8571429,30.8571429 Z M17.3571429,32.7857143 L34.0714286,32.7857143 C34.7777143,32.7857143 35.3571429,32.2062857 35.3571429,31.5 C35.3571429,30.7937143 34.7777143,30.2142857 34.0714286,30.2142857 L17.3571429,30.2142857 C16.6508571,30.2142857 16.0714286,30.7937143 16.0714286,31.5 C16.0714286,32.2062857 16.6508571,32.7857143 17.3571429,32.7857143 L17.3571429,32.7857143 Z M17.3571429,39.2142857 L34.0714286,39.2142857 C34.7777143,39.2142857 35.3571429,38.6348571 35.3571429,37.9285714 C35.3571429,37.2222857 34.7777143,36.6428571 34.0714286,36.6428571 L17.3571429,36.6428571 C16.6508571,36.6428571 16.0714286,37.2222857 16.0714286,37.9285714 C16.0714286,38.6348571 16.6508571,39.2142857 17.3571429,39.2142857 L17.3571429,39.2142857 Z M34.0714286,36.6428571 L17.3571429,36.6428571 C16.6508571,36.6428571 16.0714286,37.2222857 16.0714286,37.9285714 C16.0714286,38.6348571 16.6508571,39.2142857 17.3571429,39.2142857 L34.0714286,39.2142857 C34.7777143,39.2142857 35.3571429,38.6348571 35.3571429,37.9285714 C35.3571429,37.2222857 34.7777143,36.6428571 34.0714286,36.6428571 L34.0714286,36.6428571 Z M34.0714286,30.2142857 L17.3571429,30.2142857 C16.6508571,30.2142857 16.0714286,30.7937143 16.0714286,31.5 C16.0714286,32.2062857 16.6508571,32.7857143 17.3571429,32.7857143 L34.0714286,32.7857143 C34.7777143,32.7857143 35.3571429,32.2062857 35.3571429,31.5 C35.3571429,30.7937143 34.7777143,30.2142857 34.0714286,30.2142857 L34.0714286,30.2142857 Z M34.0714286,30.2142857 L17.3571429,30.2142857 C16.6508571,30.2142857 16.0714286,30.7937143 16.0714286,31.5 C16.0714286,32.2062857 16.6508571,32.7857143 17.3571429,32.7857143 L34.0714286,32.7857143 C34.7777143,32.7857143 35.3571429,32.2062857 35.3571429,31.5 C35.3571429,30.7937143 34.7777143,30.2142857 34.0714286,30.2142857 L34.0714286,30.2142857 Z M34.0714286,36.6428571 L17.3571429,36.6428571 C16.6508571,36.6428571 16.0714286,37.2222857 16.0714286,37.9285714 C16.0714286,38.6348571 16.6508571,39.2142857 17.3571429,39.2142857 L34.0714286,39.2142857 C34.7777143,39.2142857 35.3571429,38.6348571 35.3571429,37.9285714 C35.3571429,37.2222857 34.7777143,36.6428571 34.0714286,36.6428571 L34.0714286,36.6428571 Z" sketch:type="MSShapeGroup"></path>
            </g>
        </g>
    </g>
</svg>