<?xml version="1.0" encoding="UTF-8" standalone="no"?>
<svg width="39px" height="41px" viewBox="0 0 39 41" version="1.1" xmlns="http://www.w3.org/2000/svg" xmlns:xlink="http://www.w3.org/1999/xlink" xmlns:sketch="http://www.bohemiancoding.com/sketch/ns">
    <!-- Generator: Sketch 3.5 (25232) - http://www.bohemiancoding.com/sketch -->
    <title>psychology</title>
    <desc>Created with Sketch.</desc>
    <defs></defs>
    <g id="Page-1" stroke="none" stroke-width="1" fill="none" fill-rule="evenodd" sketch:type="MSPage">
        <g id="SVG" sketch:type="MSArtboardGroup" transform="translate(-1018.000000, -750.000000)" fill="#FFFFFF">
            <g id="psychology" sketch:type="MSLayerGroup" transform="translate(1018.000000, 750.000000)">
                <path d="M16.5252882,40.4654741 C16.5252882,40.4654741 15.3558882,36.9542741 15.2202882,35.7848741 C15.0840882,34.6154741 13.2840882,34.7960741 12.8340882,34.7960741 C12.4284882,34.7960741 8.8734882,35.5598741 6.8952882,35.5598741 C4.9590882,35.5598741 3.3840882,34.6598741 3.6090882,33.2654741 C3.8340882,31.8710741 4.4202882,29.7542741 3.6090882,29.3042741 C2.7984882,28.8098741 2.5284882,27.9986741 3.6090882,27.5042741 C3.6090882,27.5042741 2.9340882,27.2792741 2.4396882,26.8736741 C1.9452882,26.4686741 2.3502882,26.0186741 2.8002882,25.3880741 C3.2058882,24.7574741 3.0252882,24.0824741 0.864688205,23.0018741 C-1.2965118,21.9662741 1.2252882,19.9880741 1.6284882,19.6718741 C2.0340882,19.3106741 4.3284882,17.0162741 4.3284882,14.6324741 C4.3284882,12.2468741 3.3396882,7.16307411 9.7734882,3.24687411 C16.2090882,-0.667525891 23.7234882,-1.47812589 31.4622882,3.24687411 C39.2010882,7.97187411 40.6872882,17.9162741 34.2510882,24.6662741 C29.5710882,30.1106741 32.0904882,32.7662741 34.4760882,39.2468741 L16.5252882,40.4654741 Z M27.5502882,27.6848741 C27.5502882,27.6848741 27.2364882,24.8486741 30.1614882,23.2292741 C33.0864882,21.6098741 33.0864882,19.1348741 33.0864882,19.1348741 C33.0864882,19.1348741 35.9226882,16.2098741 33.7170882,13.6904741 C33.7170882,13.6904741 33.9864882,8.24607411 31.0170882,8.24607411 C31.0170882,8.24607411 29.7114882,4.46547411 25.4364882,5.32107411 C25.4364882,5.32107411 21.7476882,2.57607411 19.8114882,5.18487411 C19.8114882,5.18487411 15.8058882,3.34047411 14.3670882,6.30987411 C14.3670882,6.30987411 10.0476882,5.77107411 9.5976882,9.77367411 C9.5976882,9.77367411 7.1226882,10.4042741 6.8976882,14.0042741 C6.6726882,17.6042741 10.3614882,18.4598741 12.1170882,18.3236741 C13.8726882,18.2348741 14.5920882,17.8736741 14.5920882,17.8736741 C14.5920882,17.8736741 16.1226882,19.2686741 19.0476882,18.3236741 C19.0476882,18.3236741 22.8276882,19.4042741 22.8276882,21.5630741 L22.8276882,27.6380741 L24.6276882,27.6380741 C24.6276882,27.6380741 24.5832882,24.1736741 24.5832882,22.3736741 C24.5832882,20.5736741 25.8444882,19.9880741 26.4276882,19.4486741 C26.5638882,19.3130741 27.6420882,18.6380741 28.0476882,16.9736741 C28.4526882,15.3098741 28.4976882,13.7348741 26.7864882,13.0598741 C25.0752882,12.3848741 23.4114882,12.1598741 22.9170882,12.5654741 C22.4226882,12.9710741 21.6558882,14.2760741 22.7808882,16.2542741 L21.9702882,16.8848741 C21.9702882,16.8848741 21.2502882,15.8486741 21.1590882,14.6348741 C21.1590882,14.6348741 19.5840882,14.3210741 18.6840882,15.3542741 L17.8308882,14.8598741 C17.8308882,14.8598741 18.7752882,13.3292741 21.2952882,13.5542741 C21.2952882,13.5542741 21.4752882,12.6098741 22.2396882,11.8436741 C22.2396882,11.8436741 21.7002882,10.1792741 20.3034882,10.4486741 C18.9090882,10.7186741 19.4928882,10.9436741 17.7396882,11.0792741 C17.7396882,11.0792741 17.3340882,13.2404741 14.8146882,14.1848741 C14.8146882,14.1848741 13.9590882,15.1292741 12.0252882,14.8154741 C10.5864882,14.6792741 10.6308882,15.8510741 10.6308882,15.8510741 L9.5952882,15.5816741 C9.5952882,15.5816741 9.8646882,14.4122741 10.6752882,13.9622741 C11.4864882,13.5122741 12.8808882,14.1428741 13.8252882,13.6478741 C13.8252882,13.6478741 13.2864882,12.1622741 11.8896882,12.0728741 L11.8452882,11.0372741 C11.8452882,11.0372741 13.6896882,10.9478741 14.7702882,13.0622741 C14.7702882,13.0622741 16.2558882,12.6566741 16.7952882,10.7228741 C16.7952882,10.7228741 16.2558882,9.77847411 15.1752882,9.32847411 L15.4896882,8.33967411 C15.4896882,8.33967411 16.8396882,8.74527411 17.5590882,10.0034741 C17.5590882,10.0034741 18.3234882,10.0034741 19.1340882,9.68967411 C19.9452882,9.37527411 20.5734882,9.46467411 20.5734882,9.46467411 C20.5734882,9.46467411 21.1590882,8.65347411 21.2034882,7.66467411 L22.3284882,7.84527411 C22.3284882,7.84527411 22.2840882,8.78967411 21.6984882,9.64527411 C21.6984882,9.64527411 22.8678882,10.1396741 23.1840882,11.3558741 C23.1840882,11.3558741 24.0840882,11.3114741 24.8034882,11.4452741 C24.8034882,11.4452741 24.5784882,9.95907411 25.8840882,9.23967411 L26.4702882,10.1396741 C26.4702882,10.1396741 25.6590882,10.8146741 25.9752882,11.6702741 C25.9752882,11.6702741 28.4058882,12.0752741 29.1252882,13.9202741 C29.1252882,13.9202741 30.1614882,13.9646741 31.1502882,12.7058741 L32.0502882,13.3364741 C32.0502882,13.3364741 31.1502882,14.5970741 29.3502882,15.0470741 C29.3502882,15.0470741 29.4396882,16.5776741 28.8114882,18.1082741 C28.8114882,18.1082741 30.5226882,18.8276741 30.7002882,20.2694741 L29.6646882,20.5832741 C29.1702882,19.2776741 28.2702882,19.1888741 28.2702882,19.1888741 C28.2702882,19.1888741 27.1452882,20.2694741 26.3340882,20.8994741 C25.5234882,21.5300741 25.6146882,22.9244741 25.6146882,22.9244741 L25.5702882,27.6050741 L27.5502882,27.6050741 L27.5502882,27.6848741 Z" id="Page-1" sketch:type="MSShapeGroup"></path>
            </g>
        </g>
    </g>
</svg>