<?xml version="1.0" encoding="UTF-8" standalone="no"?>
<svg width="55px" height="45px" viewBox="0 0 55 45" version="1.1" xmlns="http://www.w3.org/2000/svg" xmlns:xlink="http://www.w3.org/1999/xlink" xmlns:sketch="http://www.bohemiancoding.com/sketch/ns">
    <!-- Generator: Sketch 3.4.4 (17249) - http://www.bohemiancoding.com/sketch -->
    <title>relationships</title>
    <desc>Created with Sketch.</desc>
    <defs></defs>
    <g id="Page-1" stroke="none" stroke-width="1" fill="none" fill-rule="evenodd" sketch:type="MSPage">
        <g id="SVG" sketch:type="MSArtboardGroup" transform="translate(-1332.000000, -750.000000)" fill="#FFFFFF">
            <g id="relationships" sketch:type="MSLayerGroup" transform="translate(1332.000000, 750.000000)">
                <path d="M48.9705882,18.5294118 C46.1991176,18.5294118 43.8767647,20.4247059 43.2114706,22.9861765 L38.2482353,22.8344118 C37.9138235,20.5729412 36.9105882,18.5329412 35.4423529,16.92 L41.715,8.08235294 C42.2947059,8.41323529 42.9626471,8.60294118 43.6764706,8.60294118 C45.8682353,8.60294118 47.6470588,6.82411765 47.6470588,4.63235294 C47.6470588,2.44058824 45.8682353,0.661764706 43.6764706,0.661764706 C41.4847059,0.661764706 39.7058824,2.44058824 39.7058824,4.63235294 C39.7058824,5.625 40.0711765,6.53117647 40.6747059,7.22470588 L33.1570588,14.9929412 C31.4135294,13.8864706 29.3523529,13.2352941 27.1323529,13.2352941 C24.7579412,13.2352941 22.5582353,13.9764706 20.7423529,15.2311765 L15.3652941,10.0605882 C15.6926471,9.42705882 15.8823529,8.70617647 15.8823529,7.94117647 C15.8823529,5.38411765 13.8070588,3.30882353 11.25,3.30882353 C8.69294118,3.30882353 6.61764706,5.38411765 6.61764706,7.94117647 C6.61764706,10.4982353 8.69294118,12.5735294 11.25,12.5735294 C11.9497059,12.5735294 12.6114706,12.4147059 13.2079412,12.1358824 L18.1641176,17.7123529 C16.7373529,19.5979412 15.8823529,21.9379412 15.8823529,24.4852941 C15.8823529,26.1467647 16.2511765,27.7182353 16.8988235,29.1414706 L10.9641176,32.7397059 C9.79852941,31.7232353 8.28264706,31.1029412 6.61764706,31.1029412 C2.96382353,31.1029412 0,34.0667647 0,37.7205882 C0,41.3744118 2.96382353,44.3382353 6.61764706,44.3382353 C10.2714706,44.3382353 13.2352941,41.3744118 13.2352941,37.7205882 C13.2352941,37.0102941 13.1214706,36.3247059 12.9114706,35.6832353 L18.4191176,31.6023529 C20.4838235,34.1223529 23.6205882,35.7352941 27.1323529,35.7352941 C32.7847059,35.7352941 37.4479412,31.5617647 38.2482353,26.1326471 L43.2114706,25.9808824 C43.8767647,28.5458824 46.1991176,30.4411765 48.9705882,30.4411765 C52.2591176,30.4411765 54.9264706,27.7738235 54.9264706,24.4852941 C54.9264706,21.1967647 52.2591176,18.5294118 48.9705882,18.5294118 L48.9705882,18.5294118 Z" id="Fill-19" sketch:type="MSShapeGroup"></path>
            </g>
        </g>
    </g>
</svg>