<?xml version="1.0" encoding="UTF-8" standalone="no"?>
<svg width="43px" height="45px" viewBox="0 0 43 45" version="1.1" xmlns="http://www.w3.org/2000/svg" xmlns:xlink="http://www.w3.org/1999/xlink" xmlns:sketch="http://www.bohemiancoding.com/sketch/ns">
    <!-- Generator: Sketch 3.4.4 (17249) - http://www.bohemiancoding.com/sketch -->
    <title>reports</title>
    <desc>Created with Sketch.</desc>
    <defs></defs>
    <g id="Page-1" stroke="none" stroke-width="1" fill="none" fill-rule="evenodd" sketch:type="MSPage">
        <g id="Artboard-3" sketch:type="MSArtboardGroup" transform="translate(-194.000000, -80.000000)" fill="#FFFFFF">
            <g id="reports" sketch:type="MSLayerGroup" transform="translate(194.000000, 80.000000)">
                <path d="M35.0003476,42.4242304 C35.0003476,43.6763654 36.017428,44.6862959 37.2650943,44.6862959 L40.0978153,44.6862959 C41.3481629,44.6862959 42.3625621,43.6754717 42.3625621,42.4242304 L42.3625621,19.7544191 C42.3625621,18.5036246 41.347716,17.4923535 40.0978153,17.4923535 L37.2650943,17.4923535 C36.017428,17.4923535 35.0003476,18.5036246 35.0003476,19.7544191 L35.0003476,42.4242304 L35.0003476,42.4242304 Z" id="Shape" sketch:type="MSShapeGroup"></path>
                <path d="M24.0439424,33.1896226 L24.0439424,42.4242304 C24.0439424,43.6759186 25.060576,44.6862959 26.3158391,44.6862959 L29.141857,44.6862959 C30.3890765,44.6862959 31.40571,43.6750248 31.40571,42.4242304 L31.40571,33.1896226 C31.40571,31.9379345 30.3890765,30.9213009 29.141857,30.9213009 L26.3158391,30.9213009 C25.0619166,30.920854 24.0439424,31.9388282 24.0439424,33.1896226 L24.0439424,33.1896226 Z" id="Shape" sketch:type="MSShapeGroup"></path>
                <path d="M13.0911122,36.5912115 L13.0911122,42.4251241 C13.0911122,43.6768123 14.1023833,44.6871897 15.3563059,44.6871897 L18.185005,44.6871897 C19.4326713,44.6871897 20.4501986,43.6763654 20.4501986,42.4251241 L20.4501986,36.5912115 C20.4501986,35.3404171 19.4326713,34.3166336 18.185005,34.3166336 L15.3563059,34.3166336 C14.1028302,34.3166336 13.0911122,35.3404171 13.0911122,36.5912115 L13.0911122,36.5912115 Z" id="Shape" sketch:type="MSShapeGroup"></path>
                <path d="M15.2521847,0 C6.82418073,0 0,6.83133069 0,15.2566534 C0,23.6882324 6.82418073,30.5186693 15.2521847,30.5186693 C23.6842105,30.5186693 30.5146475,23.6882324 30.5146475,15.2566534 C30.5159881,6.83133069 23.6842105,0 15.2521847,0 L15.2521847,0 Z M15.2535253,26.6643992 C8.95397219,26.6643992 3.85382324,21.5593347 3.85382324,15.2575472 C3.85382324,8.9602284 8.95441907,3.85427011 15.2535253,3.85427011 L15.2535253,15.2834657 L24.5323734,21.8958292 C22.4629096,24.7835154 19.0787488,26.6643992 15.2535253,26.6643992 L15.2535253,26.6643992 Z" id="Shape" sketch:type="MSShapeGroup"></path>
            </g>
        </g>
    </g>
</svg>