<?xml version="1.0" encoding="UTF-8" standalone="no"?>
<svg width="47px" height="45px" viewBox="0 0 47 45" version="1.1" xmlns="http://www.w3.org/2000/svg" xmlns:xlink="http://www.w3.org/1999/xlink" xmlns:sketch="http://www.bohemiancoding.com/sketch/ns">
    <!-- Generator: Sketch 3.4.4 (17249) - http://www.bohemiancoding.com/sketch -->
    <title>scan</title>
    <desc>Created with Sketch.</desc>
    <defs></defs>
    <g id="Page-1" stroke="none" stroke-width="1" fill="none" fill-rule="evenodd" sketch:type="MSPage">
        <g id="Artboard-3" sketch:type="MSArtboardGroup" transform="translate(-237.000000, -150.000000)" fill="#FFFFFF">
            <g id="scan" sketch:type="MSLayerGroup" transform="translate(237.000000, 150.000000)">
                <path d="M23.0294118,13.995 L25.6462941,13.995 L25.6462941,17.2662353 L26.955,17.2662353 L26.955,8.10635294 L25.6462941,8.10635294 L25.6462941,12.6857647 L23.3301176,12.6857647 L23.3301176,11.3775882 L20.7132353,11.3775882 L20.7132353,12.6862941 L23.0294118,12.6862941 L23.0294118,13.995 L23.0294118,13.995 Z M36.1143529,9.41505882 L30.8800588,9.41505882 L30.8800588,14.6488235 L36.1143529,14.6488235 L36.1143529,9.41505882 L36.1143529,9.41505882 Z M23.0294118,15.9575294 L23.3301176,15.9575294 L23.3301176,14.6488235 L20.7132353,14.6488235 L20.7132353,15.9575294 L20.4125294,15.9575294 L20.4125294,8.10635294 L19.1038235,8.10635294 L19.1038235,17.2657059 L23.0294118,17.2657059 L23.0294118,15.9575294 L23.0294118,15.9575294 Z M24.0734118,9.67658824 L21.4565294,9.67658824 L21.4565294,10.9852941 L24.0734118,10.9852941 L24.0734118,9.67658824 L24.0734118,9.67658824 Z M29.5713529,18.5744118 L29.5713529,19.8825882 L26.955,19.8825882 L26.955,21.1912941 L32.1887647,21.1912941 L32.1887647,18.5744118 L29.5713529,18.5744118 L29.5713529,18.5744118 Z M38.7312353,26.4255882 L38.7312353,25.1168824 L36.1143529,25.1168824 L36.1143529,26.4255882 L38.7312353,26.4255882 L38.7312353,26.4255882 Z M37.4230588,23.8087059 L37.4230588,22.5 L38.7317647,22.5 L38.7317647,19.8831176 L37.4230588,19.8831176 L37.4230588,18.5749412 L33.4974706,18.5749412 L33.4974706,21.1918235 L36.1143529,21.1918235 L36.1143529,22.5 L34.8056471,22.5 L34.8056471,23.8087059 L33.4969412,23.8087059 L33.4969412,21.1918235 L32.1882353,21.1918235 L32.1882353,26.4261176 L34.8051176,26.4261176 L34.8051176,25.1174118 L36.1138235,25.1174118 L36.1138235,23.8087059 L37.4230588,23.8087059 L37.4230588,23.8087059 Z M30.8800588,29.0424706 L33.4969412,29.0424706 L33.4969412,27.7337647 L30.8800588,27.7337647 L30.8800588,29.0424706 L30.8800588,29.0424706 Z M2.09382353,2.61105882 L10.4680588,2.61105882 L10.4680588,0.517764706 L0,0.517764706 L0,10.9852941 L2.09382353,10.9852941 L2.09382353,2.61105882 L2.09382353,2.61105882 Z M38.7312353,6.79817647 L28.2637059,6.79817647 L28.2637059,17.2662353 L38.7312353,17.2662353 L38.7312353,6.79817647 L38.7312353,6.79817647 Z M37.4230588,15.9575294 L29.5718824,15.9575294 L29.5718824,8.10635294 L37.4230588,8.10635294 L37.4230588,15.9575294 L37.4230588,15.9575294 Z M28.2637059,35.5849412 L30.8800588,35.5849412 L30.8800588,34.2762353 L28.2637059,34.2762353 L28.2637059,35.5849412 L28.2637059,35.5849412 Z M9.94447059,14.6488235 L15.1782353,14.6488235 L15.1782353,9.41505882 L9.94447059,9.41505882 L9.94447059,14.6488235 L9.94447059,14.6488235 Z M23.0294118,34.2762353 L20.4125294,34.2762353 L20.4125294,36.8931176 L23.0294118,36.8931176 L23.0294118,38.2018235 L25.6462941,38.2018235 L25.6462941,36.8931176 L26.955,36.8931176 L26.955,38.2018235 L29.5713529,38.2018235 L29.5713529,36.8931176 L28.2631765,36.8931176 L28.2631765,35.5844118 L23.0294118,35.5844118 L23.0294118,34.2762353 L23.0294118,34.2762353 Z M35.5912941,0.517764706 L35.5912941,2.61105882 L43.965,2.61105882 L43.965,10.9852941 L46.0588235,10.9852941 L46.0588235,0.517764706 L35.5912941,0.517764706 L35.5912941,0.517764706 Z M38.7312353,38.2018235 L38.7312353,32.9675294 L36.1143529,32.9675294 L36.1143529,35.5844118 L34.8056471,35.5844118 L34.8056471,34.2757059 L33.4969412,34.2757059 L33.4969412,32.967 L36.1138235,32.967 L36.1138235,30.3511765 L37.4225294,30.3511765 L37.4225294,29.0424706 L38.7312353,29.0424706 L38.7312353,27.7337647 L36.1143529,27.7337647 L36.1143529,29.0424706 L34.8056471,29.0424706 L34.8056471,30.3511765 L32.1887647,30.3511765 L32.1887647,31.6593529 L30.8800588,31.6593529 L30.8800588,30.3511765 L25.6462941,30.3511765 L25.6462941,29.0424706 L26.955,29.0424706 L26.955,27.7337647 L28.2637059,27.7337647 L28.2637059,26.4250588 L29.5718824,26.4250588 L29.5718824,23.8081765 L28.2637059,23.8081765 L28.2637059,22.5 L24.3381176,22.5 L24.3381176,25.1168824 L23.0294118,25.1168824 L23.0294118,30.3511765 L21.7207059,30.3511765 L21.7207059,27.7342941 L19.1038235,27.7342941 L19.1038235,30.3511765 L20.4125294,30.3511765 L20.4125294,32.9675294 L24.3381176,32.9675294 L24.3381176,34.2762353 L28.2637059,34.2762353 L28.2637059,31.6593529 L29.5718824,31.6593529 L29.5718824,32.9680588 L30.8805882,32.9680588 L30.8805882,34.2767647 L32.1892941,34.2767647 L32.1892941,35.5854706 L33.498,35.5854706 L33.498,36.8941765 L34.8067059,36.8941765 L34.8067059,38.2028824 L38.7312353,38.2028824 L38.7312353,38.2018235 Z M24.3381176,26.4255882 L25.6468235,26.4255882 L25.6468235,27.7342941 L24.3381176,27.7342941 L24.3381176,26.4255882 L24.3381176,26.4255882 Z M25.6462941,21.1912941 L25.6462941,18.5744118 L15.1782353,18.5744118 L15.1782353,19.8825882 L13.8695294,19.8825882 L13.8695294,18.5744118 L9.94394118,18.5744118 L9.94394118,21.1912941 L12.5608235,21.1912941 L12.5608235,22.5 L11.2521176,22.5 L11.2521176,23.8087059 L9.94341176,23.8087059 L9.94341176,21.1918235 L7.32652941,21.1918235 L7.32652941,26.4261176 L11.2521176,26.4261176 L11.2521176,25.1174118 L12.5608235,25.1174118 L12.5608235,23.8087059 L13.869,23.8087059 L13.869,22.5 L15.1777059,22.5 L15.1777059,21.1912941 L16.4864118,21.1912941 L16.4864118,19.8825882 L17.7951176,19.8825882 L17.7951176,22.5 L16.4864118,22.5 L16.4864118,23.8087059 L19.1032941,23.8087059 L19.1032941,21.1918235 L20.412,21.1918235 L20.412,25.1174118 L13.8700588,25.1174118 L13.8700588,26.4261176 L21.7212353,26.4261176 L21.7212353,25.1174118 L23.0294118,25.1174118 L23.0294118,21.1918235 L25.6462941,21.1918235 L25.6462941,21.1912941 Z M7.32758824,38.2018235 L17.7956471,38.2018235 L17.7956471,27.7342941 L7.32758824,27.7342941 L7.32758824,38.2018235 L7.32758824,38.2018235 Z M8.63576471,29.0424706 L16.4869412,29.0424706 L16.4869412,36.8931176 L8.63576471,36.8931176 L8.63576471,29.0424706 L8.63576471,29.0424706 Z M7.32758824,17.2662353 L17.7956471,17.2662353 L17.7956471,6.79817647 L7.32758824,6.79817647 L7.32758824,17.2662353 L7.32758824,17.2662353 Z M8.63576471,8.10635294 L16.4869412,8.10635294 L16.4869412,15.9575294 L8.63576471,15.9575294 L8.63576471,8.10635294 L8.63576471,8.10635294 Z M2.09382353,34.0147059 L0,34.0147059 L0,44.4822353 L10.4675294,44.4822353 L10.4675294,42.3889412 L2.09382353,42.3889412 L2.09382353,34.0147059 L2.09382353,34.0147059 Z M9.94447059,35.5849412 L15.1782353,35.5849412 L15.1782353,30.3511765 L9.94447059,30.3511765 L9.94447059,35.5849412 L9.94447059,35.5849412 Z M43.965,42.3889412 L35.5912941,42.3889412 L35.5912941,44.4822353 L46.0588235,44.4822353 L46.0588235,34.0147059 L43.965,34.0147059 L43.965,42.3889412 L43.965,42.3889412 Z" id="Shape" sketch:type="MSShapeGroup"></path>
            </g>
        </g>
    </g>
</svg>