<?xml version="1.0" encoding="UTF-8" standalone="no"?>
<svg width="38px" height="49px" viewBox="0 0 38 49" version="1.1" xmlns="http://www.w3.org/2000/svg" xmlns:xlink="http://www.w3.org/1999/xlink" xmlns:sketch="http://www.bohemiancoding.com/sketch/ns">
    <!-- Generator: Sketch 3.4.4 (17249) - http://www.bohemiancoding.com/sketch -->
    <title>tablet</title>
    <desc>Created with Sketch.</desc>
    <defs></defs>
    <g id="Page-1" stroke="none" stroke-width="1" fill="none" fill-rule="evenodd" sketch:type="MSPage">
        <g id="Artboard-3" sketch:type="MSArtboardGroup" transform="translate(-557.000000, -150.000000)" fill="#FFFFFF">
            <g id="tablet" sketch:type="MSLayerGroup" transform="translate(557.000000, 150.000000)">
                <path d="M35.6505544,0.0649867374 L2.386313,0.0649867374 C1.10971353,0.0649867374 0.0652466844,1.10958355 0.0652466844,2.38618302 L0.0652466844,46.6789337 C0.0652466844,47.9555332 1.10971353,48.99987 2.386313,48.99987 L35.6505544,48.99987 C36.9271538,48.99987 37.9716207,47.9555332 37.9716207,46.6789337 L37.9716207,2.38618302 C37.9716207,1.10958355 36.9271538,0.0649867374 35.6505544,0.0649867374 L35.6505544,0.0649867374 Z M19.0183687,47.9348674 C18.3938462,47.9348674 17.8877294,47.4286207 17.8877294,46.8042281 C17.8877294,46.1798355 18.3939761,45.6733289 19.0183687,45.6733289 C19.6427613,45.6733289 20.1491379,46.1797056 20.1491379,46.8042281 C20.1491379,47.4287507 19.6427613,47.9348674 19.0183687,47.9348674 L19.0183687,47.9348674 Z M33.991313,44.4930398 L4.0454244,44.4930398 L4.0454244,4.60574005 L33.991183,4.60574005 L33.991183,44.4930398 L33.991313,44.4930398 Z" id="Shape" sketch:type="MSShapeGroup"></path>
                <path d="M19.2978117,46.349191 L18.7389257,46.349191 C18.6420955,46.349191 18.5633316,46.4278249 18.5633316,46.5246552 L18.5633316,47.0834111 C18.5633316,47.1802414 18.6420955,47.2591353 18.7389257,47.2591353 L19.2978117,47.2591353 C19.3945119,47.2591353 19.4732759,47.1803714 19.4732759,47.0834111 L19.4732759,46.5246552 C19.4732759,46.4279549 19.3945119,46.349191 19.2978117,46.349191 L19.2978117,46.349191 Z M19.3433024,47.0834111 C19.3433024,47.108626 19.3230265,47.1291618 19.2978117,47.1291618 L18.7389257,47.1291618 C18.7138408,47.1291618 18.693305,47.108756 18.693305,47.0834111 L18.693305,46.5246552 C18.693305,46.4997003 18.7137109,46.4791645 18.7389257,46.4791645 L19.2978117,46.4791645 C19.3228966,46.4791645 19.3433024,46.4995703 19.3433024,46.5246552 L19.3433024,47.0834111 L19.3433024,47.0834111 Z" id="Shape" sketch:type="MSShapeGroup"></path>
            </g>
        </g>
    </g>
</svg>