<?xml version="1.0" encoding="UTF-8" standalone="no"?>
<svg width="73px" height="45px" viewBox="0 0 73 45" version="1.1" xmlns="http://www.w3.org/2000/svg" xmlns:xlink="http://www.w3.org/1999/xlink" xmlns:sketch="http://www.bohemiancoding.com/sketch/ns">
    <!-- Generator: Sketch 3.4.4 (17249) - http://www.bohemiancoding.com/sketch -->
    <title>transportation</title>
    <desc>Created with Sketch.</desc>
    <defs></defs>
    <g id="Page-1" stroke="none" stroke-width="1" fill="none" fill-rule="evenodd" sketch:type="MSPage">
        <g id="Artboard-3" sketch:type="MSArtboardGroup" transform="translate(-735.000000, -150.000000)" fill="#FFFFFF">
            <g id="transportation" sketch:type="MSLayerGroup" transform="translate(735.000000, 150.000000)">
                <path d="M31.0318548,26.0506452 L28.2462097,18.9471774 C27.7047581,17.6066129 26.5623387,16.4540323 24.4154032,16.4387903 L20.4452419,16.4387903 L20.4452419,14.5923387 C20.448871,13.863629 20.0424194,13.4876613 19.4000806,13.4789516 L17.0673387,13.4789516 L14.7687097,13.4789516 C14.1104032,13.4869355 13.7054032,13.8629032 13.6894355,14.5923387 L13.6894355,16.4387903 L9.68225806,16.4387903 C7.54403226,16.4540323 6.4008871,17.6066129 5.88701613,18.9471774 L3.06580645,26.0506452 C1.96040323,26.1827419 -0.00580645161,27.4616129 -1.84884365e-13,29.8829032 L-1.84884365e-13,38.9032258 L2.71669355,38.9032258 L2.71669355,41.7919355 C2.71959677,45.3251613 7.8416129,45.2837903 7.83653226,41.7919355 L7.83653226,38.9032258 L17.0658871,38.9032258 L26.2604032,38.9032258 L26.2604032,41.7919355 C26.2654839,45.2837903 31.3867742,45.3251613 31.3795161,41.7919355 L31.3795161,38.9032258 L34.1310484,38.9032258 L34.1310484,29.8829032 C34.1129032,27.4616129 32.1459677,26.1827419 31.0318548,26.0506452 L31.0318548,26.0506452 Z M5.36443548,33.4001613 C4.05508065,33.3870968 2.99685484,32.3158065 2.99540323,30.9955645 C2.99685484,29.6775 4.05508065,28.6062097 5.36443548,28.5931452 C6.66798387,28.6062097 7.72693548,29.6767742 7.73201613,30.9955645 C7.72693548,32.3158065 6.66798387,33.3870968 5.36443548,33.4001613 L5.36443548,33.4001613 Z M17.0658871,25.8764516 L17.0317742,25.8764516 L5.95524194,25.8764516 L8.08040323,20.4082258 C8.34677419,19.6083871 8.74306452,19.0429839 9.68225806,19.0495161 L17.0317742,19.0495161 L17.0658871,19.0495161 L24.4487903,19.0495161 C25.3625806,19.0429839 25.758871,19.6091129 26.0165323,20.4082258 L28.1416935,25.8764516 L17.0658871,25.8764516 L17.0658871,25.8764516 Z M28.7325,33.4001613 C27.4376613,33.3870968 26.3779839,32.3165323 26.3641935,30.9962903 C26.3779839,29.6782258 27.4376613,28.6069355 28.7325,28.593871 C30.0498387,28.6069355 31.1095161,29.6775 31.1015323,30.9962903 C31.1095161,32.3158065 30.0498387,33.3870968 28.7325,33.4001613 L28.7325,33.4001613 Z" id="Shape" sketch:type="MSShapeGroup"></path>
                <path d="M70.8045968,6.58306452 C70.2958065,4.12766129 68.7026613,3.14782258 66.3118548,2.15782258 C63.9573387,1.20120968 58.3207258,0.0464516129 54.1408065,0.00362903226 C49.9659677,0.0464516129 44.3293548,1.20120968 41.9675806,2.15782258 C39.5862097,3.14782258 37.9916129,4.12766129 37.5089516,6.58306452 L35.6980645,20.163629 L35.6980645,38.9032258 L38.7972581,38.9032258 L38.7972581,41.8282258 C38.7878226,45.4173387 44.1087097,45.4173387 44.126129,41.8282258 L44.126129,38.9032258 L53.9477419,38.9032258 L64.1866935,38.9032258 L64.1866935,41.8282258 C64.1758065,45.4173387 69.4966935,45.4173387 69.4807258,41.8282258 L69.4807258,38.9032258 L72.5806452,38.9032258 L72.5806452,20.163629 L70.8045968,6.58306452 L70.8045968,6.58306452 Z M46.5648387,3.44830645 L53.9477419,3.44830645 L61.7145968,3.44830645 C63.2242742,3.4425 63.2242742,5.6475 61.7145968,5.64169355 L53.9477419,5.64169355 L46.5648387,5.64169355 C45.0616935,5.6475 45.0616935,3.4425 46.5648387,3.44830645 L46.5648387,3.44830645 Z M41.4442742,33.0154839 C40.0420161,33.03 38.8995968,31.9028226 38.9025,30.5078226 C38.8995968,29.1251613 40.0420161,28.0008871 41.4442742,28.0008871 C42.8610484,28.0008871 44.0041935,29.1251613 43.9867742,30.5078226 C44.0041935,31.9028226 42.8610484,33.03 41.4442742,33.0154839 L41.4442742,33.0154839 Z M53.9477419,21.5927419 L40.4354032,21.5927419 C39.0999194,21.6029032 38.8219355,20.6658871 38.9373387,19.7121774 L40.3308871,9.85572581 C40.5391935,8.66540323 40.9514516,7.87572581 42.5242742,7.87137097 L53.9477419,7.87137097 L65.7537097,7.87137097 C67.3352419,7.87572581 67.7489516,8.66540323 67.9478226,9.85572581 L69.3420968,19.7121774 C69.4654839,20.6658871 69.1867742,21.6021774 67.8433065,21.5927419 L53.9477419,21.5927419 L53.9477419,21.5927419 Z M66.8337097,33.0154839 C65.4256452,33.03 64.2825,31.9028226 64.2904839,30.5078226 C64.2825,29.1251613 65.4249194,28.0008871 66.8337097,28.0008871 C68.2454032,28.0008871 69.3878226,29.1251613 69.3762097,30.5078226 C69.3878226,31.9028226 68.2454032,33.03 66.8337097,33.0154839 L66.8337097,33.0154839 Z" id="Shape" sketch:type="MSShapeGroup"></path>
            </g>
        </g>
    </g>
</svg>