<?xml version="1.0" encoding="UTF-8" standalone="no"?>
<svg width="41px" height="45px" viewBox="0 0 41 45" version="1.1" xmlns="http://www.w3.org/2000/svg" xmlns:xlink="http://www.w3.org/1999/xlink" xmlns:sketch="http://www.bohemiancoding.com/sketch/ns">
    <!-- Generator: Sketch 3.4.4 (17249) - http://www.bohemiancoding.com/sketch -->
    <title>write</title>
    <desc>Created with Sketch.</desc>
    <defs></defs>
    <g id="Page-1" stroke="none" stroke-width="1" fill="none" fill-rule="evenodd" sketch:type="MSPage">
        <g id="Artboard-3" sketch:type="MSArtboardGroup" transform="translate(-128.000000, -150.000000)" fill="#FFFFFF">
            <g id="write" sketch:type="MSLayerGroup" transform="translate(128.000000, 150.000000)">
                <path d="M39.9495,6.25170732 L35.294,1.1420122 C34.919,0.730426829 34.41,0.499390244 33.88,0.499390244 C33.35,0.499390244 32.841,0.730426829 32.466,1.1420122 L12.2255,23.3577439 C12.061,23.5377439 11.9265,23.7484756 11.828,23.9795122 L7.7335,33.5831707 C7.3765,34.4195122 7.5355,35.4122561 8.131,36.0653049 C8.5145,36.4867683 9.026,36.7084756 9.5455,36.7084756 C9.832,36.7084756 10.1215,36.6409756 10.3925,36.5015854 L19.1425,32.007622 C19.353,31.8995122 19.545,31.7518902 19.709,31.5713415 L39.9495,9.35615854 C40.731,8.49841463 40.731,7.10890244 39.9495,6.25170732 L39.9495,6.25170732 Z M17.129,28.1946951 L13.6955,29.9584756 L15.3025,26.19 L29.3145,10.809878 L31.1415,12.815122 L17.129,28.1946951 L17.129,28.1946951 Z M33.9695,9.71012195 L32.143,7.70542683 L33.8805,5.79841463 L35.707,7.80365854 L33.9695,9.71012195 L33.9695,9.71012195 Z" id="Shape" sketch:type="MSShapeGroup"></path>
                <path d="M36.083,19.9388415 C34.9785,19.9388415 34.083,20.9217073 34.083,22.1339634 L34.083,37.1343293 L34.083,38.7636585 L34.083,40.1295732 L4.083,40.1295732 L4.083,7.13414634 L5.751,7.13414634 L7.25,7.13414634 L22.167,7.13414634 C23.2715,7.13414634 24.167,6.15128049 24.167,4.93902439 C24.167,3.72676829 23.2715,2.74390244 22.167,2.74390244 L7.084,2.74390244 L5.751,2.74390244 L4.083,2.74390244 C1.874,2.74390244 0.083,4.70963415 0.083,7.13414634 L0.083,40.1295732 C0.083,42.5540854 1.874,44.5198171 4.083,44.5198171 L34.083,44.5198171 C36.292,44.5198171 38.083,42.5540854 38.083,40.1295732 L38.083,38.7636585 L38.083,37.1343293 L38.083,22.1339634 C38.083,20.9217073 37.1875,19.9388415 36.083,19.9388415 L36.083,19.9388415 Z" id="Shape" sketch:type="MSShapeGroup"></path>
            </g>
        </g>
    </g>
</svg>